<?xml version="1.0" encoding="utf-8"?>
<!-- Generator: Adobe Illustrator 19.0.0, SVG Export Plug-In . SVG Version: 6.00 Build 0)  -->
<svg version="1.1" id="图层_1" xmlns="http://www.w3.org/2000/svg" xmlns:xlink="http://www.w3.org/1999/xlink" x="0px" y="0px"
	 viewBox="0 0 120 120" style="enable-background:new 0 0 120 120;" xml:space="preserve">
<style type="text/css">
	.st0{fill:#486987;}
</style>
<g id="XMLID_596_">
	<path id="XMLID_71_" class="st0" d="M59.7,88.8c-0.2,0-0.4-0.1-0.5-0.2c-3.6-0.8-23.4-7-23.4-44.2c0-0.4,0.2-0.7,0.5-0.9
		c0.3-0.2,0.7-0.2,1,0c0.4,0.3,10.2,6.4,21.3-5.2c0-0.4,0.3-0.8,0.6-0.9c0.2-0.1,0.4-0.1,0.7,0c0.1,0,0.3,0,0.4,0.1
		c0.4,0.2,0.7,0.5,0.7,0.9c11.2,11.6,21.2,5.3,21.3,5.2c0.3-0.2,0.7-0.2,1,0c0.3,0.2,0.5,0.5,0.5,0.9c0,37.5-20,43.5-23.4,44.2
		c-0.2,0.1-0.4,0.2-0.6,0.1l-0.1,0l-0.1,0C59.8,88.8,59.8,88.8,59.7,88.8z M37.8,46c0.6,35.6,19.8,40.3,22.1,40.7c0,0,0,0,0,0
		C62.1,86.3,81.4,81.6,82,46c-3.5,1.5-12.5,3.7-22.1-6C50.3,49.7,41.4,47.5,37.8,46z"/>
	<path id="XMLID_68_" class="st0" d="M59.5,81.8c-0.2,0-0.3,0-0.5-0.1c-3.4-0.7-16.5-5.3-16.5-31.1c0-0.4,0.2-0.7,0.5-0.9
		c0.3-0.2,0.7-0.2,1,0c0.3,0.2,6.8,4.3,14.4-3.5c0-0.4,0.3-0.7,0.6-0.8c0.2-0.1,0.4-0.1,0.6,0c0.1,0,0.2,0,0.3,0.1
		c0.3,0.1,0.6,0.4,0.6,0.8c7.6,7.8,14.3,3.6,14.4,3.5c0.3-0.2,0.7-0.2,1,0c0.3,0.2,0.5,0.5,0.5,0.9c0,26-13.3,30.4-16.5,31.1
		c-0.2,0.1-0.4,0.1-0.5,0.1l0,0C59.5,81.8,59.5,81.8,59.5,81.8z M44.5,52.1C45.1,76,57.8,79.4,59.6,79.7c1.7-0.3,14.5-3.7,15.1-27.6
		c-2.7,1-8.7,2.1-15.1-4.2C53.2,54.2,47.3,53.1,44.5,52.1z"/>
</g>
<path id="XMLID_67_" class="st0" d="M61.3,116.7c-0.1,0-0.1,0-0.2,0l-0.5,0l-0.7,0c-2.2,0-4.2-0.7-6.1-1.6L14.9,92.7
	c-1.6-1.1-2.9-2.6-4-4.6C9.6,85.9,9,83.6,9,81.3V38.2c0-2.3,0.6-4.6,1.9-6.7c1-1.7,2.6-3.4,4.5-4.7L53.1,5.1C55.3,4,57.6,3.4,60,3.4
	c0.2,0,0.6,0,0.8,0l0.1,0c0.1,0,0.2,0,0.3,0c2.4,0,4.6,0.6,6.8,1.6l1.4,0.8l36.3,20.9c1.6,1.1,2.9,2.5,4.2,4.7
	c1.3,2.3,1.3,4.7,1.3,6.7V81c0,0.6-0.4,1-1,1s-1-0.4-1-1V38.2c0-2.2-0.1-4-1-5.7c-1.1-1.9-2.1-3.1-3.5-4L68.2,7.6l-1.3-0.8
	c-1.8-0.9-3.8-1.4-5.8-1.4l-0.3,0c-0.3,0-0.6,0-0.8,0c-2,0-4,0.5-5.9,1.4l-1.3,0.7L16.5,28.5c-1.6,1.1-3,2.5-3.9,4
	c-1.1,1.8-1.6,3.8-1.6,5.7v43.1c0,1.9,0.6,3.9,1.6,5.8c1,1.7,2.1,3,3.4,3.9l38.8,22.4c1.5,0.7,3.3,1.4,5.2,1.4l0.7,0l0.6,0
	c1.8,0,3.6-0.7,5.2-1.4l38.1-22.4c0.5-0.3,1.1-0.1,1.4,0.4c0.3,0.5,0.1,1.1-0.4,1.4l-38.2,22.5c0,0-0.1,0-0.1,0
	C65.5,115.9,63.5,116.7,61.3,116.7z"/>
</svg>
