<?xml version="1.0" encoding="utf-8"?>
<!-- Generator: Adobe Illustrator 19.0.0, SVG Export Plug-In . SVG Version: 6.00 Build 0)  -->
<svg version="1.1" id="图层_1" xmlns="http://www.w3.org/2000/svg" xmlns:xlink="http://www.w3.org/1999/xlink" x="0px" y="0px"
	 viewBox="5 -5.6 30.6 30.6" style="enable-background:new 5 -5.6 30.6 30.6;" xml:space="preserve">
<style type="text/css">
	.st0{fill:#F7820D;}
</style>
<path class="st0" d="M31.7,18.8c-0.6-1.1-1.8-2.3-4.1-2.5l-0.2,0c-0.2,0.1-0.9,0-1.5,0c-0.3,0-0.6,0-0.8,0l-1.2-2.1
	c1.8-1.7,2.2-4.2,2.3-5c0.5-0.2,1.5-0.9,1.7-2.9c0-0.9,0-2.6-1.2-3.3V1.9c0.8-0.6,1.4-1.8,0.8-3.3c-0.6-1-1.6-2.3-3.3-2.8
	c-1.7-0.4-3.6,0-5.7,1.3l-0.4,0c-1.3,0.1-5.3,0.4-5.6,3.7l-0.1,1.9h-0.2l-0.1,0.1c-0.5,0.5-1.1,1.2-1.1,2.6v0.2c0,0.7,0,3,2.2,3.6
	c0.2,1,0.7,3.5,2.5,5.2c-0.3,0.4-0.5,0.8-0.7,1.2c-0.2,0.4-0.4,0.7-0.6,0.9c-2.8-0.1-5,0.6-6.4,2.2c-0.9,1.1-1.3,2.6-1,4.2
	c0,0.4,0.5,0.7,0.8,0.7h0.2l0,0c0.4-0.1,0.6-0.4,0.6-1c0,0-0.3-1.7,0.7-2.9c0.9-1.1,2.7-1.6,5.4-1.6H15c0.5,0,0.6-0.1,2.3-2.7
	c0.7,0.4,1.6,0.6,2.5,0.6h0.3c0.8,0,1.7-0.2,2.5-0.7l1.3,2.3l0,0.1c0.1,0.1,0.3,0.3,0.6,0.3c0,0,0.1,0,0.3,0c0.7,0,2,0.1,2.6,0
	c3.5,0.2,3.6,4.4,3.6,4.8c0,0.6,0.5,0.6,0.8,0.6c0.3,0,0.8,0,0.8-0.6C32.7,21.6,32.5,20.1,31.7,18.8z M24.6,8.9
	c0,0.6-0.3,2.5-1.5,3.8c-0.8,0.9-1.8,1.4-3.1,1.5l0,0c-1,0.1-1.8-0.1-2.5-0.7c-2.1-1.5-2.3-5-2.3-5c0-0.4-0.6-0.7-1-0.8
	c-1.2-0.1-1.5-0.5-1.5-2V5.4c0-0.7,0.2-1,0.4-1.1c0.2,0,0.4-0.1,0.5-0.2c0,0,0,0,0,0c0.1-0.1,0.3-0.3,0.3-0.6l0.1-2.5
	c0.1-1.6,2-2,4.1-2.2c0.4,0,0.6,0,0.7-0.1c0.1,0,0.1,0,0.2,0h0.1l0.1,0c1.7-1.1,3.3-1.5,4.6-1.2c1.2,0.3,1.9,1.2,2.3,1.9
	c0.3,0.7-0.2,1.3-0.4,1.5c0,0-0.1,0.1-0.1,0.1c-0.3,0.2-0.3,0.4-0.3,0.6c-0.1,2.7-0.1,2.7,0.4,2.9l0.1,0c0.1,0.1,0.4,0.3,0.4,1.9
	c-0.1,0.9-0.4,1.3-0.6,1.5c-0.2,0-0.5,0-0.7,0.2c-0.2,0.2-0.3,0.4-0.3,0.7L24.6,8.9L24.6,8.9z"/>
</svg>
