<?xml version="1.0" encoding="utf-8"?>
<!-- Generator: Adobe Illustrator 19.0.0, SVG Export Plug-In . SVG Version: 6.00 Build 0)  -->
<svg version="1.1" id="图层_1" xmlns="http://www.w3.org/2000/svg" xmlns:xlink="http://www.w3.org/1999/xlink" x="0px" y="0px"
	 viewBox="0 0 20 20" style="enable-background:new 0 0 20 20;" xml:space="preserve">
<style type="text/css">
	.st0{fill:#333333;}
</style>
<g id="XMLID_6423_">
	<path id="XMLID_5_" class="st0" d="M10.2,19.4c-0.2,0-0.3-0.1-0.4-0.2l-5.2-8.9C2.8,7.2,3.8,3.5,6.7,1.7c2.1-1.3,4.8-1.3,6.9,0
		c3,1.8,4,5.6,2.3,8.5l-5.2,8.9C10.5,19.3,10.4,19.4,10.2,19.4z M10.2,1.7c-1,0-2,0.3-2.9,0.8C4.8,4.1,3.9,7.2,5.4,9.7l4.8,8.2
		L15,9.7c1.4-2.5,0.6-5.6-1.8-7.1C12.2,2,11.2,1.7,10.2,1.7z"/>
	<path id="XMLID_2_" class="st0" d="M10.1,10.3c-1.7,0-3-1.3-3-3c0-1.7,1.3-3,3-3s3,1.3,3,3C13.1,9,11.7,10.3,10.1,10.3z M10.1,5.3
		c-1.1,0-2,0.9-2,2c0,1.1,0.9,2,2,2c1.1,0,2-0.9,2-2C12.1,6.2,11.2,5.3,10.1,5.3z"/>
</g>
</svg>
