<?xml version="1.0" encoding="utf-8"?>
<!-- Generator: Adobe Illustrator 19.0.0, SVG Export Plug-In . SVG Version: 6.00 Build 0)  -->
<svg version="1.1" id="图层_1" xmlns="http://www.w3.org/2000/svg" xmlns:xlink="http://www.w3.org/1999/xlink" x="0px" y="0px"
	 viewBox="0 0 30 30" style="enable-background:new 0 0 30 30;" xml:space="preserve">
<style type="text/css">
	.st0{fill:#999999;}
</style>
<g id="XMLID_79_">
	<g id="XMLID_582_">
		<path id="XMLID_586_" class="st0" d="M13.7,22.2l-7.3-7.3c-0.2-0.2-0.2-0.5,0-0.7l7.4-7.4l0.7,0.7l-7,7l7,7L13.7,22.2z"/>
		<path id="XMLID_581_" class="st0" d="M19.7,22.2l-7.3-7.3c-0.2-0.2-0.2-0.5,0-0.7l7.4-7.4l0.7,0.7l-7,7l7,7L19.7,22.2z"/>
	</g>
	<path id="XMLID_542_" class="st0" d="M14.8,1.5c7.4,0,13.3,6,13.3,13.3s-6,13.3-13.3,13.3s-13.3-6-13.3-13.3S7.5,1.5,14.8,1.5
		 M14.8,0.5C6.9,0.5,0.5,7,0.5,14.9s6.4,14.3,14.3,14.3s14.3-6.4,14.3-14.3S22.7,0.5,14.8,0.5L14.8,0.5z"/>
</g>
</svg>
