<?xml version="1.0" encoding="utf-8"?>
<!-- Generator: Adobe Illustrator 19.0.0, SVG Export Plug-In . SVG Version: 6.00 Build 0)  -->
<svg version="1.1" id="图层_1" xmlns="http://www.w3.org/2000/svg" xmlns:xlink="http://www.w3.org/1999/xlink" x="0px" y="0px"
	 viewBox="0 0 120 120" style="enable-background:new 0 0 120 120;" xml:space="preserve">
<style type="text/css">
	.st0{fill-rule:evenodd;clip-rule:evenodd;fill:#486987;}
	.st1{fill:#486987;}
</style>
<g id="XMLID_9237_">
	<path id="XMLID_9245_" class="st0" d="M56.3,36.6c-0.3-0.4-0.2-0.9,0.2-1.2c0.4-0.3,0.9-0.2,1.2,0.2l1.3,1.9l1.3-1.9
		c0.3-0.4,0.8-0.5,1.2-0.2c0.4,0.3,0.5,0.8,0.2,1.2l-2,2.9c-0.1,0.1-0.1,0.2-0.2,0.2c-0.4,0.3-0.9,0.2-1.2-0.2L56.3,36.6z"/>
	<path id="XMLID_9244_" class="st0" d="M73.4,75.9c0,0.5-0.4,0.9-0.9,0.9c-0.5,0-0.9-0.4-0.9-0.9V62.4c0-3.5-1.4-6.7-3.7-9l0,0l0,0
		c-2.3-2.3-5.5-3.7-9-3.7c-3.5,0-6.7,1.4-9,3.7l0,0c-2.3,2.3-3.7,5.4-3.7,8.9v17.2h26.2c0.5,0,0.9,0.4,0.9,0.9s-0.4,0.9-0.9,0.9
		H45.5h0c-0.5,0-0.9-0.4-0.9-0.9V62.4c0-4,1.6-7.5,4.2-10.2l0-0.1c2.6-2.6,6.2-4.2,10.2-4.2c4,0,7.6,1.6,10.2,4.2l0,0
		c2.6,2.6,4.2,6.2,4.2,10.2V75.9z"/>
	<path id="XMLID_9243_" class="st0" d="M53.6,69.1c0-0.5,0.4-0.9,0.9-0.9c0.5,0,0.9,0.4,0.9,0.9c0,1,0.4,1.9,1.1,2.6
		c0.7,0.7,1.6,1.1,2.6,1.1c1,0,1.9-0.4,2.6-1.1c0.7-0.7,1.1-1.6,1.1-2.6c0-1-0.4-1.9-1.1-2.6l0,0c-0.7-0.7-1.6-1.1-2.6-1.1
		c-1.2,0-2.2-0.5-3-1.3l0,0c-0.8-0.8-1.2-1.8-1.2-3s0.5-2.2,1.2-3l0.1-0.1c0.8-0.7,1.8-1.2,3-1.2c1.2,0,2.2,0.5,3,1.2
		c0.8,0.8,1.2,1.8,1.2,3c0,0.5-0.4,0.9-0.9,0.9c-0.5,0-0.9-0.4-0.9-0.9c0-0.7-0.3-1.3-0.7-1.8c-0.5-0.5-1.1-0.7-1.8-0.7
		c-0.7,0-1.3,0.3-1.7,0.7l0,0c-0.5,0.5-0.7,1.1-0.7,1.8c0,0.7,0.3,1.3,0.7,1.8l0,0l0,0c0.5,0.5,1.1,0.7,1.8,0.7
		c1.5,0,2.8,0.6,3.8,1.6l0,0c1,1,1.6,2.3,1.6,3.8c0,1.5-0.6,2.8-1.6,3.8c-1,1-2.3,1.6-3.8,1.6c-1.5,0-2.8-0.6-3.8-1.6
		C54.2,72,53.6,70.6,53.6,69.1z"/>
	<path id="XMLID_9242_" class="st0" d="M58.1,55.6c0-0.5,0.4-0.9,0.9-0.9c0.5,0,0.9,0.4,0.9,0.9v20.3c0,0.5-0.4,0.9-0.9,0.9
		c-0.5,0-0.9-0.4-0.9-0.9V55.6z"/>
	<path id="XMLID_9241_" class="st0" d="M62.3,44.9c-0.2,0.4-0.8,0.6-1.2,0.3c-0.4-0.2-0.6-0.8-0.3-1.2l6.1-10.5
		c-1.1-0.5-2.2-1-3.4-1.3c-1.4-0.4-2.9-0.6-4.5-0.6c-1.5,0-3,0.2-4.5,0.6c-1.2,0.3-2.3,0.8-3.4,1.3L57.2,44c0.2,0.4,0.1,1-0.3,1.2
		c-0.4,0.2-1,0.1-1.2-0.3l-6.5-11.3c-0.2-0.4-0.1-1,0.3-1.2c1.4-0.8,3-1.5,4.6-1.9c1.6-0.4,3.2-0.6,4.9-0.6c1.7,0,3.3,0.2,4.9,0.6
		c1.6,0.4,3.1,1.1,4.5,1.9l0,0c0.4,0.2,0.6,0.8,0.3,1.2L62.3,44.9z"/>
	<path id="XMLID_9238_" class="st0" d="M61.4,45.3c-0.5-0.1-0.8-0.5-0.7-1c0.1-0.5,0.5-0.8,1-0.7c4.6,0.6,8.7,3,11.7,6.3l0,0
		c2.9,3.3,4.6,7.7,4.6,12.4V85c0,0.5-0.4,0.9-0.9,0.9h0H40.9c-0.5,0-0.9-0.4-0.9-0.9v0V62.4c0-3.8,1.1-7.4,3.1-10.3
		c2-3.1,4.9-5.5,8.2-7c0.4-0.2,1,0,1.2,0.4c0.2,0.4,0,1-0.4,1.2C49,48,46.4,50.2,44.6,53c-1.8,2.7-2.8,5.9-2.8,9.4v21.7h34.4V62.4
		c0-4.3-1.6-8.3-4.2-11.3l0,0l0,0C69.3,48,65.6,45.9,61.4,45.3L61.4,45.3z M56.6,45.3L56.6,45.3c0.5,0,0.8-0.5,0.8-1
		c0-0.5-0.5-0.8-1-0.8l0,0c-0.5,0-0.8,0.5-0.8,1C55.7,45,56.1,45.4,56.6,45.3z"/>
</g>
<path id="XMLID_67_" class="st1" d="M61.3,116.7c-0.1,0-0.1,0-0.2,0l-0.5,0l-0.7,0c-2.2,0-4.2-0.7-6.1-1.6L14.9,92.7
	c-1.6-1.1-2.9-2.6-4-4.6C9.6,85.9,9,83.6,9,81.3V38.2c0-2.3,0.6-4.6,1.9-6.7c1-1.7,2.6-3.4,4.5-4.7L53.1,5.1C55.3,4,57.6,3.4,60,3.4
	c0.2,0,0.6,0,0.8,0l0.1,0c0.1,0,0.2,0,0.3,0c2.4,0,4.6,0.6,6.8,1.6l1.4,0.8l36.3,20.9c1.6,1.1,2.9,2.5,4.2,4.7
	c1.3,2.3,1.3,4.7,1.3,6.7V81c0,0.6-0.4,1-1,1s-1-0.4-1-1V38.2c0-2.2-0.1-4-1-5.7c-1.1-1.9-2.1-3.1-3.5-4L68.2,7.6l-1.3-0.8
	c-1.8-0.9-3.8-1.4-5.8-1.4l-0.3,0c-0.3,0-0.6,0-0.8,0c-2,0-4,0.5-5.9,1.4l-1.3,0.7L16.5,28.5c-1.6,1.1-3,2.5-3.9,4
	c-1.1,1.8-1.6,3.8-1.6,5.7v43.1c0,1.9,0.6,3.9,1.6,5.8c1,1.7,2.1,3,3.4,3.9l38.8,22.4c1.5,0.7,3.3,1.4,5.2,1.4l0.7,0l0.6,0
	c1.8,0,3.6-0.7,5.2-1.4l38.1-22.4c0.5-0.3,1.1-0.1,1.4,0.4c0.3,0.5,0.1,1.1-0.4,1.4l-38.2,22.5c0,0-0.1,0-0.1,0
	C65.5,115.9,63.5,116.7,61.3,116.7z"/>
</svg>
