<?xml version="1.0" encoding="utf-8"?>
<!-- Generator: Adobe Illustrator 19.0.0, SVG Export Plug-In . SVG Version: 6.00 Build 0)  -->
<svg version="1.1" id="图层_1" xmlns="http://www.w3.org/2000/svg" xmlns:xlink="http://www.w3.org/1999/xlink" x="0px" y="0px"
	 viewBox="0 0 20 20" style="enable-background:new 0 0 20 20;" xml:space="preserve">
<style type="text/css">
	.st0{fill-rule:evenodd;clip-rule:evenodd;}
</style>
<g id="XMLID_56_">
	<path id="XMLID_111_" class="st0" d="M16.7,5.5H3.3C3,5.5,2.7,5.6,2.5,5.8S2.2,6.2,2.2,6.5v8c0,0.3,0.1,0.6,0.3,0.8l0,0l0,0
		c0.2,0.2,0.5,0.3,0.8,0.3h13.4c0.3,0,0.6-0.1,0.8-0.3c0.2-0.2,0.3-0.5,0.3-0.8v-8c0-0.3-0.1-0.6-0.3-0.8C17.2,5.6,17,5.5,16.7,5.5
		L16.7,5.5z M3.3,4.9h13.4c0.4,0,0.8,0.2,1.1,0.5c0.3,0.3,0.5,0.7,0.5,1.1v8c0,0.4-0.2,0.8-0.5,1.1c-0.3,0.3-0.7,0.5-1.1,0.5H3.3
		c-0.4,0-0.8-0.2-1.1-0.5l0,0c-0.3-0.3-0.5-0.7-0.5-1.1v-8c0-0.4,0.2-0.8,0.5-1.1C2.4,5.1,2.8,4.9,3.3,4.9z"/>
	<path id="XMLID_103_" class="st0" d="M6,10.6L6,10.6h8.7c0.1,0,0.3,0.1,0.3,0.3v0v1.3c0,0.1-0.1,0.3-0.3,0.3h0H6
		c-0.1,0-0.3-0.1-0.3-0.3v0v-1.3C5.7,10.7,5.8,10.6,6,10.6L6,10.6z M14.4,11.1H6.2V12h8.2V11.1z"/>
	<path id="XMLID_98_" class="st0" d="M3.9,14.8c-0.1,0-0.3-0.1-0.3-0.3c0-0.1,0.1-0.3,0.3-0.3h12.7c0.1,0,0.3,0.1,0.3,0.3
		c0,0.1-0.1,0.3-0.3,0.3H3.9z"/>
	<path id="XMLID_84_" class="st0" d="M1.9,6.3L1.9,6.3H18c0.1,0,0.3,0.1,0.3,0.3v0v2.7c0,0.1-0.1,0.3-0.3,0.3h0H1.9
		c-0.1,0-0.3-0.1-0.3-0.3v0V6.5C1.7,6.4,1.8,6.3,1.9,6.3L1.9,6.3z M17.7,6.8H2.2v2.2h15.5V6.8z"/>
</g>
</svg>
