<?xml version="1.0" encoding="utf-8"?>
<!-- Generator: Adobe Illustrator 19.0.0, SVG Export Plug-In . SVG Version: 6.00 Build 0)  -->
<svg version="1.1" id="图层_1" xmlns="http://www.w3.org/2000/svg" xmlns:xlink="http://www.w3.org/1999/xlink" x="0px" y="0px"
	 viewBox="0 0 20 20" style="enable-background:new 0 0 20 20;" xml:space="preserve">
<style type="text/css">
	.st0{fill-rule:evenodd;clip-rule:evenodd;}
</style>
<g id="XMLID_9806_">
	<path id="XMLID_9818_" class="st0" d="M2.9,17.2c-0.1,0-0.2-0.1-0.2-0.2c0-0.1,0.1-0.2,0.2-0.2h14c0.1,0,0.2,0.1,0.2,0.2
		c0,0.1-0.1,0.2-0.2,0.2H2.9z"/>
	<path id="XMLID_9815_" class="st0" d="M3.6,7.8h12.6L9.9,3.3L3.6,7.8L3.6,7.8z M16.9,8.2h-14v0c-0.1,0-0.1,0-0.2-0.1
		C2.6,8,2.7,7.9,2.8,7.8l7-5l0,0l0,0c0.1-0.1,0.2-0.1,0.3,0l7,5c0.1,0,0.1,0.1,0.1,0.2C17.1,8.1,17,8.2,16.9,8.2z"/>
	<path id="XMLID_9814_" class="st0" d="M9.8,5C9.7,5,9.6,4.8,9.7,4.7C9.8,4.6,9.9,4.6,10,4.6L12,6c0.1,0.1,0.1,0.2,0.1,0.3
		c-0.1,0.1-0.2,0.1-0.3,0.1L9.8,5z"/>
	<path id="XMLID_9813_" class="st0" d="M3.5,16.3c-0.1,0-0.2-0.1-0.2-0.2c0-0.1,0.1-0.2,0.2-0.2h12.8c0.1,0,0.2,0.1,0.2,0.2
		c0,0.1-0.1,0.2-0.2,0.2H3.5z"/>
	<path id="XMLID_9812_" class="st0" d="M4.1,15.4c-0.1,0-0.2-0.1-0.2-0.2C3.9,15.1,4,15,4.1,15h11.5c0.1,0,0.2,0.1,0.2,0.2
		c0,0.1-0.1,0.2-0.2,0.2H4.1z"/>
	<path id="XMLID_9811_" class="st0" d="M13.5,8.9c0-0.1,0.1-0.2,0.2-0.2c0.1,0,0.2,0.1,0.2,0.2v5.2h0.9V8.9c0-0.1,0.1-0.2,0.2-0.2
		c0.1,0,0.2,0.1,0.2,0.2v5.4v0c0,0.1-0.1,0.2-0.2,0.2h-1.3h0c-0.1,0-0.2-0.1-0.2-0.2V8.9z"/>
	<path id="XMLID_9810_" class="st0" d="M9.8,4.6c0.1-0.1,0.2,0,0.3,0.1C10.1,4.8,10.1,5,10,5L8,6.4c-0.1,0.1-0.2,0-0.3-0.1
		C7.6,6.2,7.6,6.1,7.7,6L9.8,4.6z"/>
	<path id="XMLID_9809_" class="st0" d="M4.5,8.9c0-0.1,0.1-0.2,0.2-0.2c0.1,0,0.2,0.1,0.2,0.2v5.2h0.9V8.9c0-0.1,0.1-0.2,0.2-0.2
		c0.1,0,0.2,0.1,0.2,0.2v5.4v0c0,0.1-0.1,0.2-0.2,0.2H4.7h0c-0.1,0-0.2-0.1-0.2-0.2V8.9z"/>
	<path id="XMLID_9808_" class="st0" d="M7.4,8.9c0-0.1,0.1-0.2,0.2-0.2c0.1,0,0.2,0.1,0.2,0.2v5.2h0.9V8.9c0-0.1,0.1-0.2,0.2-0.2
		c0.1,0,0.2,0.1,0.2,0.2v5.4v0c0,0.1-0.1,0.2-0.2,0.2H7.6h0c-0.1,0-0.2-0.1-0.2-0.2V8.9z"/>
	<path id="XMLID_9807_" class="st0" d="M10.6,8.9c0-0.1,0.1-0.2,0.2-0.2c0.1,0,0.2,0.1,0.2,0.2v5.2h0.9V8.9c0-0.1,0.1-0.2,0.2-0.2
		c0.1,0,0.2,0.1,0.2,0.2v5.4v0c0,0.1-0.1,0.2-0.2,0.2h-1.3h0c-0.1,0-0.2-0.1-0.2-0.2V8.9z"/>
</g>
</svg>
