<?xml version="1.0" encoding="utf-8"?>
<!-- Generator: Adobe Illustrator 19.0.0, SVG Export Plug-In . SVG Version: 6.00 Build 0)  -->
<svg version="1.1" id="图层_1" xmlns="http://www.w3.org/2000/svg" xmlns:xlink="http://www.w3.org/1999/xlink" x="0px" y="0px"
	 viewBox="0 0 50 50" style="enable-background:new 0 0 50 50;" xml:space="preserve">
<style type="text/css">
	.st0{fill:#FFAE6C;}
</style>
<path id="XMLID_38_" class="st0" d="M16.2,34.2c-0.2,0-0.4-0.2-0.5-0.4L9.6,5.5L3.4,1.7C3.2,1.5,3.1,1.2,3.3,1S3.7,0.7,4,0.8l6.4,4
	c0.1,0.1,0.2,0.2,0.2,0.3l6.1,28.4c0.1,0.3-0.1,0.5-0.4,0.6C16.3,34.2,16.3,34.2,16.2,34.2z"/>
<path id="XMLID_35_" class="st0" d="M20.2,17.6c-0.2,0-0.4-0.2-0.5-0.4l-2.4-9.6c-0.1-0.3,0.1-0.5,0.4-0.6l9.6-2.4
	c0.3-0.1,0.5,0.1,0.6,0.4l2.4,9.6c0,0.1,0,0.3-0.1,0.4c-0.1,0.1-0.2,0.2-0.3,0.2l-9.6,2.4C20.3,17.6,20.2,17.6,20.2,17.6z M18.4,7.9
	l2.2,8.6l8.6-2.2L27,5.7L18.4,7.9z"/>
<path id="XMLID_32_" class="st0" d="M23.7,32c-0.2,0-0.4-0.2-0.5-0.4l-3.6-14.1c0-0.1,0-0.3,0.1-0.4s0.2-0.2,0.3-0.2l17.4-4.4
	c0.3-0.1,0.5,0.1,0.6,0.4L41.6,27c0.1,0.3-0.1,0.5-0.4,0.6L23.8,32C23.7,32,23.7,32,23.7,32z M20.7,17.7L24,30.9l16.4-4.1l-3.3-13.2
	L20.7,17.7z"/>
<path id="XMLID_29_" class="st0" d="M18.1,47.6c-4,0-7.2-3.2-7.2-7.2s3.2-7.2,7.2-7.2c4,0,7.2,3.2,7.2,7.2S22,47.6,18.1,47.6z
	 M18.1,34.3c-3.4,0-6.2,2.8-6.2,6.2c0,3.4,2.8,6.2,6.2,6.2c3.4,0,6.2-2.8,6.2-6.2C24.3,37.1,21.5,34.3,18.1,34.3z"/>
<path id="XMLID_28_" class="st0" d="M24.8,40.3c-0.2,0-0.4-0.2-0.5-0.4c-0.1-0.3,0.1-0.5,0.4-0.6l21.6-5.1c0.3-0.1,0.5,0.1,0.6,0.4
	c0.1,0.3-0.1,0.5-0.4,0.6l-21.6,5.1C24.8,40.3,24.8,40.3,24.8,40.3z"/>
</svg>
