<?xml version="1.0" encoding="utf-8"?>
<!-- Generator: Adobe Illustrator 19.0.0, SVG Export Plug-In . SVG Version: 6.00 Build 0)  -->
<svg version="1.1" id="图层_1" xmlns="http://www.w3.org/2000/svg" xmlns:xlink="http://www.w3.org/1999/xlink" x="0px" y="0px"
	 viewBox="0 0 50 50" style="enable-background:new 0 0 50 50;" xml:space="preserve">
<style type="text/css">
	.st0{fill:#FFAE6C;}
</style>
<path id="XMLID_32_" class="st0" d="M34.7,49.7c-9,0-21.2,0-22.8-0.1c-5.8-0.2-7-2.5-7-4.4c0-0.2,0.1-0.4,0.1-0.6V4.5
	c0-1,0.3-1.8,1-2.5C7.1,0.9,8.9,1,9,1H40c0.4,0,2.8-0.5,4.3,0.9c0.9,0.8,1.3,2,1.2,3.6c-0.2,2.8,0,30.4,0,30.7l0,0
	c0,0,0.3,1.7-0.8,3.1c-0.1,0.1-0.1,0.1-0.2,0.2l0.3,9.7c0,0.1,0,0.3-0.1,0.4c-0.1,0.1-0.2,0.2-0.4,0.2
	C43.8,49.7,39.7,49.7,34.7,49.7z M5.9,45.3C5.9,45.3,5.9,45.3,5.9,45.3c0,2.1,2,3.3,6,3.4c2.3,0.1,27.8,0.1,31.8,0.1l-0.3-8.5
	c-0.9,0.5-2,0.7-3.4,0.7c-4.4,0.2-28.2,0-29.3,0c-0.1,0-4,0.3-4.7,3.8V45C6,45.1,6,45.2,5.9,45.3z M9,2C8.7,2,7.4,2,6.6,2.8
	C6.2,3.2,6,3.8,6,4.5v37.8c1.7-2.2,4.7-2.4,4.7-2.4c0.3,0,24.8,0.2,29.3,0c1.8,0,3.1-0.4,3.9-1.3c0.8-1,0.6-2.3,0.6-2.4
	c0-1.2-0.2-28.1,0-30.9c0.1-1.3-0.2-2.2-0.8-2.8C42.4,1.5,40.1,2,40.1,2c0,0-0.1,0-0.1,0L9,2C9,2,9,2,9,2z"/>
<path id="XMLID_31_" class="st0" d="M10.5,40.5c-0.3,0-0.5-0.2-0.5-0.5V2c0-0.3,0.2-0.5,0.5-0.5S11,1.7,11,2v38
	C11,40.3,10.8,40.5,10.5,40.5z"/>
<path id="XMLID_30_" class="st0" d="M26,14h-9c-0.3,0-0.5-0.2-0.5-0.5S16.7,13,17,13h9c0.3,0,0.5,0.2,0.5,0.5S26.3,14,26,14z"/>
<path id="XMLID_29_" class="st0" d="M37,19H17c-0.3,0-0.5-0.2-0.5-0.5S16.7,18,17,18h20c0.3,0,0.5,0.2,0.5,0.5S37.3,19,37,19z"/>
<path id="XMLID_28_" class="st0" d="M33,25H17c-0.3,0-0.5-0.2-0.5-0.5S16.7,24,17,24h16c0.3,0,0.5,0.2,0.5,0.5S33.3,25,33,25z"/>
</svg>
