<?xml version="1.0" encoding="utf-8"?>
<!-- Generator: Adobe Illustrator 19.0.0, SVG Export Plug-In . SVG Version: 6.00 Build 0)  -->
<svg version="1.1" id="图层_1" xmlns="http://www.w3.org/2000/svg" xmlns:xlink="http://www.w3.org/1999/xlink" x="0px" y="0px"
	 viewBox="0 0 40 40" style="enable-background:new 0 0 40 40;" xml:space="preserve">
<g id="XMLID_1859_">
	<path id="XMLID_141_" d="M30.1,31.1H10.6c-2.3,0-4.1-1.9-4.1-4.1V8.8c0-0.3,0.2-0.5,0.5-0.5h23.1c0.3,0,0.5,0.2,0.5,0.5v17
		c0,0.3-0.2,0.5-0.5,0.5s-0.5-0.2-0.5-0.5V9.3H7.5V27c0,1.7,1.4,3.1,3.1,3.1h19.4c0.3,0,0.5,0.2,0.5,0.5S30.4,31.1,30.1,31.1z"/>
	<path id="XMLID_140_" d="M20.4,9.3c-0.3,0-0.5-0.2-0.5-0.5s0.2-0.5,0.5-0.5h0c0.3,0,0.5,0.2,0.5,0.5S20.7,9.3,20.4,9.3z"/>
	<path id="XMLID_139_" d="M30.1,31.1H24c-0.3,0-0.5-0.2-0.5-0.5s0.2-0.5,0.5-0.5h6.1c1.8,0,3.1-1.4,3.1-3.1V11.7h-3.1
		c-0.3,0-0.5-0.2-0.5-0.5s0.2-0.5,0.5-0.5h3.6c0.3,0,0.5,0.2,0.5,0.5V27C34.2,29.3,32.4,31.1,30.1,31.1z"/>
	<path id="XMLID_136_" d="M16.3,22h-4c-0.3,0-0.5-0.2-0.5-0.5v-7c0-0.3,0.2-0.5,0.5-0.5h4c0.3,0,0.5,0.2,0.5,0.5v7
		C16.8,21.8,16.6,22,16.3,22z M12.8,21h3v-6h-3V21z"/>
	<path id="XMLID_135_" d="M25.8,15h-3c-0.3,0-0.5-0.2-0.5-0.5s0.2-0.5,0.5-0.5h3c0.3,0,0.5,0.2,0.5,0.5S26.1,15,25.8,15z"/>
	<path id="XMLID_134_" d="M25.8,18h-3c-0.3,0-0.5-0.2-0.5-0.5s0.2-0.5,0.5-0.5h3c0.3,0,0.5,0.2,0.5,0.5S26.1,18,25.8,18z"/>
	<path id="XMLID_133_" d="M25.8,22h-3c-0.3,0-0.5-0.2-0.5-0.5s0.2-0.5,0.5-0.5h3c0.3,0,0.5,0.2,0.5,0.5S26.1,22,25.8,22z"/>
	<path id="XMLID_132_" d="M25.8,28h-13c-0.3,0-0.5-0.2-0.5-0.5s0.2-0.5,0.5-0.5h13c0.3,0,0.5,0.2,0.5,0.5S26.1,28,25.8,28z"/>
</g>
</svg>
