<?xml version="1.0" encoding="utf-8"?>
<!-- Generator: Adobe Illustrator 19.0.0, SVG Export Plug-In . SVG Version: 6.00 Build 0)  -->
<svg version="1.1" id="图层_1" xmlns="http://www.w3.org/2000/svg" xmlns:xlink="http://www.w3.org/1999/xlink" x="0px" y="0px"
	 viewBox="0 0 30 30" style="enable-background:new 0 0 30 30;" xml:space="preserve">
<style type="text/css">
	.st0{fill:#515151;}
</style>
<g id="XMLID_4528_">
	<g id="XMLID_140_">
		<path id="XMLID_141_" class="st0" d="M26.1,8.8h-6.8l-1.7-3h-5.5l-1.7,3H4c-1.1,0-2,0.9-2,2v12.6c0,1.1,0.9,2,2,2h22.1
			c1.1,0,2-0.9,2-2V10.8C28.1,9.7,27.2,8.8,26.1,8.8z M27.1,23.3c0,0.6-0.5,1-1,1H4c-0.6,0-1-0.5-1-1V10.8c0-0.6,0.5-1,1-1h6.9
			l0.3-0.5l1.4-2.5H17l1.4,2.5l0.3,0.5h7.4c0.6,0,1,0.5,1,1V23.3z M4.5,8.3h4C8.8,8.3,9,8,9,7.8c0-0.3-0.2-0.5-0.5-0.5h-4
			C4.2,7.3,4,7.5,4,7.8C4,8,4.2,8.3,4.5,8.3z M23.7,11.7c-0.8,0-1.5,0.7-1.5,1.5c0,0.8,0.7,1.5,1.5,1.5c0.8,0,1.5-0.7,1.5-1.5
			C25.1,12.3,24.5,11.7,23.7,11.7z M23.7,13.6c-0.3,0-0.5-0.2-0.5-0.5c0-0.3,0.2-0.5,0.5-0.5c0.3,0,0.5,0.2,0.5,0.5
			C24.1,13.4,23.9,13.6,23.7,13.6z M14.4,10.6c-3.5,0-6.4,2.9-6.4,6.4c0,3.5,2.9,6.4,6.4,6.4c3.5,0,6.4-2.9,6.4-6.4
			C20.8,13.5,17.9,10.6,14.4,10.6z M14.4,22.3c-3,0-5.4-2.4-5.4-5.4c0-3,2.4-5.4,5.4-5.4c3,0,5.4,2.4,5.4,5.4
			C19.8,19.9,17.4,22.3,14.4,22.3z"/>
	</g>
</g>
</svg>
