<?xml version="1.0" encoding="utf-8"?>
<!-- Generator: Adobe Illustrator 19.0.0, SVG Export Plug-In . SVG Version: 6.00 Build 0)  -->
<svg version="1.1" id="图层_1" xmlns="http://www.w3.org/2000/svg" xmlns:xlink="http://www.w3.org/1999/xlink" x="0px" y="0px"
	 viewBox="0 0 24 24" style="enable-background:new 0 0 24 24;" xml:space="preserve">
<style type="text/css">
	.st0{fill:#FBB03B;}
</style>
<g id="XMLID_147_">
	<path id="XMLID_70_" class="st0" d="M6.3,21.5c-0.3,0-0.7-0.1-1-0.3c-0.5-0.4-0.8-1.1-0.7-1.7l1.2-5.1l-3.5-3.6
		c-0.5-0.5-0.6-1.1-0.4-1.7c0.2-0.6,0.8-1,1.4-1.1l4.8-0.7l2-4.5c0.2-0.6,0.9-1,1.5-1c0.6,0,1.2,0.3,1.6,0.8l0.1,0.1l2,4.5l4.8,0.7
		c0.6,0.1,1.1,0.6,1.3,1.2c0.2,0.6,0,1.3-0.4,1.7l-2.9,2.9c-0.2,0.2-0.5,0.2-0.7,0c-0.2-0.2-0.2-0.5,0-0.7l2.9-2.9
		c0.2-0.2,0.3-0.5,0.2-0.7C20.4,9.1,20.2,9,20,8.9l-4.9-0.8c-0.2,0-0.4-0.2-0.4-0.2l-0.1-0.1l-2.1-4.6c-0.2-0.2-0.5-0.4-0.8-0.4
		c-0.3,0-0.5,0.2-0.6,0.4L8.9,7.8C8.9,8,8.7,8.2,8.3,8.2L3.4,9C3.2,9,2.9,9.2,2.8,9.5C2.8,9.7,2.8,10,3,10.2l3.9,4l-1.3,5.6
		c0,0.3,0.1,0.5,0.3,0.7c0.2,0.1,0.6,0.1,0.8,0l3.6-2.2c0.2-0.1,0.5-0.1,0.7,0.2c0.1,0.2,0.1,0.5-0.2,0.7l-3.6,2.2
		C7,21.4,6.7,21.5,6.3,21.5z"/>
	<path id="XMLID_62_" class="st0" d="M21.7,21.2c-0.2,0-0.4-0.2-0.5-0.4c0,0-0.6-2.3-6.3-2.4v1.7c0,0.2-0.1,0.4-0.3,0.5
		c-0.2,0.1-0.4,0-0.5-0.1l-3.9-3.9c-0.1-0.1-0.1-0.2-0.1-0.4s0.1-0.3,0.1-0.4l3.9-3.9c0.1-0.1,0.4-0.2,0.5-0.1
		c0.2,0.1,0.3,0.3,0.3,0.5V14c6.7,0.3,7.3,6.6,7.3,6.6C22.3,20.9,22.1,21.1,21.7,21.2C21.8,21.2,21.8,21.2,21.7,21.2z M11.2,16.2
		l2.7,2.7v-1c0-0.3,0.2-0.5,0.5-0.5c3.2,0,5.1,0.6,6.2,1.4C20,17.1,18.3,15,14.5,15c-0.3,0-0.5-0.2-0.5-0.5v-1L11.2,16.2z"/>
</g>
</svg>
