<?xml version="1.0" encoding="utf-8"?>
<!-- Generator: Adobe Illustrator 19.0.0, SVG Export Plug-In . SVG Version: 6.00 Build 0)  -->
<svg version="1.1" id="图层_1" xmlns="http://www.w3.org/2000/svg" xmlns:xlink="http://www.w3.org/1999/xlink" x="0px" y="0px"
	 viewBox="0 0 26 26" style="enable-background:new 0 0 26 26;" xml:space="preserve">
<style type="text/css">
	.st0{fill:#FBB03B;}
</style>
<g id="XMLID_144_">
	<path id="XMLID_472_" class="st0" d="M15.9,20.3H3.6c-0.3,0-0.6-0.3-0.6-0.6v-13C2.9,6.3,3.2,6,3.6,6H21c0.3,0,0.6,0.3,0.6,0.6v8.5
		c0.3,0.1,0.5,0.2,0.7,0.3c0,0,0,0,0.1,0V6.6c0-0.8-0.6-1.4-1.4-1.4H3.6c-0.8,0-1.4,0.6-1.4,1.4v13c0,0.8,0.6,1.4,1.4,1.4h12.8
		c-0.1-0.1-0.2-0.3-0.3-0.5C16,20.5,16,20.4,15.9,20.3z"/>
	<polygon id="XMLID_471_" class="st0" points="12,15.1 2.5,6.2 3.1,5.7 12,14.1 21.5,5.8 22,6.3 	"/>
	
		<rect id="XMLID_322_" x="6.4" y="11.9" transform="matrix(0.6433 0.7657 -0.7657 0.6433 15.3284 0.8713)" class="st0" width="0.7" height="10.1"/>
</g>
<path id="XMLID_15_" class="st0" d="M24.9,21.8c-0.2,0-0.4-0.2-0.5-0.4c0,0-0.6-2.3-6.3-2.4v1.7c0,0.2-0.1,0.4-0.3,0.5
	c-0.2,0.1-0.4,0-0.5-0.1l-3.9-3.9c-0.2-0.2-0.2-0.5,0-0.7l3.9-3.9c0.1-0.1,0.4-0.2,0.5-0.1c0.2,0.1,0.3,0.3,0.3,0.5v1.8
	c6.7,0.3,7.3,6.6,7.3,6.6C25.5,21.5,25.3,21.8,24.9,21.8C25,21.8,25,21.8,24.9,21.8z M14.4,16.8l2.7,2.7v-1c0-0.3,0.2-0.5,0.5-0.5
	c3.2,0,5.1,0.6,6.2,1.4c-0.7-1.7-2.4-3.7-6.2-3.7c-0.3,0-0.5-0.2-0.5-0.5v-1L14.4,16.8z"/>
</svg>
