<?xml version="1.0" encoding="utf-8"?>
<!-- Generator: Adobe Illustrator 19.0.0, SVG Export Plug-In . SVG Version: 6.00 Build 0)  -->
<svg version="1.1" id="图层_1" xmlns="http://www.w3.org/2000/svg" xmlns:xlink="http://www.w3.org/1999/xlink" x="0px" y="0px"
	 viewBox="0 0 30 30" style="enable-background:new 0 0 30 30;" xml:space="preserve">
<style type="text/css">
	.st0{fill:#DD7D14;}
</style>
<path id="XMLID_4731_" class="st0" d="M26.9,22.5c0,0-0.1,0-0.2,0H12.4l-1.3-3.8c8.4-0.5,11.3-0.6,12.4-0.8v0.1
	c1.3-0.2,2-1.9,2.1-2.1c0,0,1-2.4,2.6-5.1c0.7-1.4,1-2.4,0.5-3.1C28.2,6.9,27.1,7,27.1,7H6.9L6,4.2C5.9,3.9,5.6,3.8,5.4,3.8H1
	c-0.2,0-0.6,0.2-0.6,0.6S0.6,5,1,5h3.9l6.2,17.5H8.2c-0.1,0-0.4-0.1-0.5-0.1c-1.2,0-2.1,1-2.1,2.1c0,1.2,1,2.1,2.1,2.1
	s2.1-1,2.1-2.1c0-0.4-0.1-0.6-0.2-0.8h15.1c-0.1,0.2-0.2,0.6-0.2,1c0,1.2,1,2.1,2.1,2.1c1.2,0,2.1-1,2.1-2.1
	C28.8,23.5,28,22.6,26.9,22.5z M27.1,8.2c0.1,0,0.4,0,0.5,0.1c0.1,0.1,0.1,0.7-0.5,1.8c-1.5,2.9-2.6,5.2-2.6,5.2
	c-0.2,0.5-0.7,1.3-1.3,1.4l0,0c-0.7,0.1-7.7,0.5-12.5,0.7L7.4,8.3L27.1,8.2z M8.6,24.5c0,0.5-0.5,1-1,1c-0.5,0-0.8-0.4-0.8-1
	c0-0.5,0.2-0.7,0.7-0.8l0,0h0.6C8.4,23.8,8.6,24.1,8.6,24.5z M26.7,25.6c-0.5,0-1-0.5-1-1c0-0.5,0.5-1,1-1s1,0.5,1,1
	C27.6,25.1,27.1,25.6,26.7,25.6z"/>
</svg>
