<?xml version="1.0" encoding="utf-8"?>
<!-- Generator: Adobe Illustrator 19.0.0, SVG Export Plug-In . SVG Version: 6.00 Build 0)  -->
<svg version="1.1" id="图层_1" xmlns="http://www.w3.org/2000/svg" xmlns:xlink="http://www.w3.org/1999/xlink" x="0px" y="0px"
	 viewBox="0 0 60 60" style="enable-background:new 0 0 60 60;" xml:space="preserve">
<style type="text/css">
	.st0{fill:#FBB03B;}
	.st1{fill:none;}
</style>
<g id="XMLID_11_">
	<path id="XMLID_12_" class="st0" d="M57.3,18h-17c-0.3,0-0.5,0.2-0.5,0.5S40,19,40.3,19H57h0.3c0.3,0,0.5-0.2,0.5-0.5
		S57.6,18,57.3,18z"/>
	<path id="XMLID_13_" class="st0" d="M51.3,24h-11c-0.3,0-0.5,0.2-0.5,0.5S40,25,40.3,25H51h0.3c0.3,0,0.5-0.2,0.5-0.5
		S51.6,24,51.3,24z"/>
	<path id="XMLID_14_" class="st0" d="M48.3,31h-8c-0.3,0-0.5,0.2-0.5,0.5S40,32,40.3,32H48h0.3c0.3,0,0.5-0.2,0.5-0.5
		S48.6,31,48.3,31z"/>
	<path id="XMLID_70_" class="st0" d="M6.1,10.9c0.5,0.1,11.6,3,13,15.2l-3.8-3.4c-0.2-0.2-0.5-0.2-0.7,0s-0.2,0.5,0,0.7l4.7,4.3
		c0.1,0.1,0.2,0.1,0.3,0.1c0,0,0,0,0.1,0c0.1,0,0.3-0.1,0.4-0.2l3.8-5.6c0.2-0.2,0.1-0.5-0.1-0.7c-0.2-0.2-0.5-0.1-0.7,0.1L20,25.8
		C18.5,13.1,6.4,10,6.3,9.9C6,9.9,5.8,10,5.7,10.3C5.6,10.6,5.8,10.8,6.1,10.9z"/>
	<path id="XMLID_15_" class="st1" d="M5.8,42.7c0.3,0.4,0.8,0.7,1.3,0.7c0,0,0,0,0,0C6.6,43.4,6.1,43.1,5.8,42.7z"/>
	<path id="XMLID_18_" class="st1" d="M5.7,42.5c0,0,0-0.1-0.1-0.1C5.7,42.5,5.7,42.5,5.7,42.5z"/>
	<path id="XMLID_46_" class="st0" d="M5.8,42.7c0-0.1-0.1-0.1-0.1-0.2C5.8,42.6,5.8,42.6,5.8,42.7z"/>
	<path id="XMLID_50_" class="st1" d="M7.2,40.1c-0.9,0-1.6,0.7-1.6,1.6c0,0.2,0,0.4,0.1,0.6c0,0,0,0.1,0.1,0.1c0,0.1,0.1-0.1,0.1,0
		C6.1,42.9,6.6,43,7.2,43c0,0,0,0,0,0s0,0,0,0c0.9,0,1.6-0.5,1.6-1.4C8.8,40.7,8.1,40.1,7.2,40.1z"/>
	<path id="XMLID_51_" class="st1" d="M34.2,43.4c-0.1,0-0.3,0-0.4-0.1c-0.7-0.2-1.2-0.8-1.2-1.6c0,0,0,0,0,0
		C32.5,42.7,33.3,43.4,34.2,43.4z"/>
	<path id="XMLID_52_" class="st1" d="M35.7,41.3C35.7,41.3,35.7,41.3,35.7,41.3C35.7,41.3,35.7,41.3,35.7,41.3z"/>
	<path id="XMLID_53_" class="st1" d="M34.2,43.4c-0.1,0-0.3,0-0.4-0.1C33.9,43.4,34,43.4,34.2,43.4c0.9,0,1.6-0.7,1.6-1.6
		c0,0,0,0,0,0C35.8,42.7,35,43.4,34.2,43.4z"/>
	<path id="XMLID_56_" class="st0" d="M43.3,12.5H37l-1.8,5H21.3c-0.3,0-0.5,0.2-0.5,0.5s0.2,0.5,0.5,0.5h13.5l-4.9,14
		c-2-0.1-14.4-1-17-1c0,0,0,0,0,0c-2.3,0-3.2-2.4-3.2-2.5c0-0.1-2.6-5.7-4.2-8.7c-0.3-0.7-0.4-1.2-0.2-1.4c0.3-0.4,1.5-0.4,2-0.4h6
		c0.3,0,0.5-0.2,0.5-0.5s-0.2-0.5-0.5-0.5l-5.9,0c-0.2,0-2.2-0.3-2.9,0.8c-0.4,0.6-0.4,1.5,0.2,2.5c1.6,3.1,4.2,8.5,4.2,8.6
		c0,0.1,1.1,3.1,4.1,3.1c0,0,0,0,0,0c2.4,0,14.1,0.7,16.7,0.9l-2,5.8c0,0.1,0,0.2,0,0.3H8.3c-0.4-0.2-0.8-0.3-1.2-0.3
		c-1.4,0-2.6,1.2-2.6,2.6s1.2,2.6,2.6,2.6s2.6-1.2,2.6-2.6c0-0.5-0.1-0.9-0.4-1.3h22.5c-0.2,0.4-0.4,0.8-0.4,1.3
		c0,1.4,1.2,2.6,2.6,2.6s2.6-1.2,2.6-2.6s-1.2-2.6-2.6-2.6c-0.4,0-0.8,0.1-1.2,0.3h-4.4c0,0,0,0,0,0l9.1-26h5.6
		c0.3,0,0.5-0.2,0.5-0.5S43.6,12.5,43.3,12.5z M7.2,43.4C7.2,43.4,7.2,43.4,7.2,43.4C7.2,43.4,7.2,43.4,7.2,43.4
		c-0.6,0-1.1-0.3-1.4-0.7c0-0.1-0.1-0.1-0.1-0.2c0,0,0-0.1-0.1-0.1c-0.1-0.2-0.1-0.4-0.1-0.6c0-0.9,0.7-1.6,1.6-1.6
		c0.9,0,1.6,0.7,1.6,1.6C8.8,42.7,8.1,43.4,7.2,43.4z M32.5,41.8c0,0,0-0.1,0-0.1c0,0,0-0.1,0-0.1c0-0.5,0.3-0.6,0.7-1.6h1.1
		c0.2,0,0.3,0.2,0.4,0c0.4,0.2,0.8,0.6,0.9,1.1c0,0,0,0,0,0c0,0.1,0,0.1,0.1,0.2c0,0.1,0.1,0.3,0.1,0.4c0,0,0,0,0,0c0,0,0,0,0,0
		c0,0.9-0.7,1.6-1.6,1.6S32.5,42.7,32.5,41.8C32.5,41.8,32.5,41.8,32.5,41.8C32.5,41.8,32.5,41.8,32.5,41.8z"/>
	<polygon id="XMLID_58_" class="st0" points="35.8,41.8 35.8,41.8 35.8,41.8 	"/>
	<path id="XMLID_59_" class="st0" d="M35.7,41.3C35.7,41.3,35.7,41.3,35.7,41.3c0,0,0-0.1,0-0.2C35.7,41.2,35.7,41.2,35.7,41.3
		C35.7,41.3,35.7,41.3,35.7,41.3z"/>
	<path id="XMLID_66_" class="st0" d="M34.2,40.2c0.7,0,1.2,0.4,1.5,1c-0.2-0.5-0.5-0.9-0.9-1.1c-0.1,0.1-0.2,0-0.4,0h-1.1
		c-0.4,1-0.7,1-0.7,1.6c0,0,0,0.1,0,0.1C32.6,40.8,33.3,40.2,34.2,40.2z"/>
	<path id="XMLID_69_" class="st0" d="M35.8,41.8c0-0.2,0-0.3-0.1-0.4C35.7,41.5,35.8,41.6,35.8,41.8C35.8,41.8,35.8,41.8,35.8,41.8z
		"/>
	<path id="XMLID_71_" class="st0" d="M35.6,41.1C35.6,41.1,35.6,41.1,35.6,41.1C35.6,41.1,35.6,41.1,35.6,41.1z"/>
	<path id="XMLID_72_" class="st0" d="M32.5,41.7c0,0,0,0.1,0,0.1c0,0,0,0,0,0C32.5,41.8,32.5,41.7,32.5,41.7
		C32.6,41.7,32.5,41.7,32.5,41.7z"/>
	<path id="XMLID_73_" class="st0" d="M35.8,41.8C35.8,41.8,35.8,41.8,35.8,41.8c0-0.1,0-0.3-0.1-0.4c0,0,0,0,0,0
		C35.7,41.5,35.8,41.6,35.8,41.8z"/>
</g>
</svg>
