<?xml version="1.0" encoding="utf-8"?>
<!-- Generator: Adobe Illustrator 19.0.0, SVG Export Plug-In . SVG Version: 6.00 Build 0)  -->
<svg version="1.1" id="图层_1" xmlns="http://www.w3.org/2000/svg" xmlns:xlink="http://www.w3.org/1999/xlink" x="0px" y="0px"
	 viewBox="0 0 20 20" style="enable-background:new 0 0 20 20;" xml:space="preserve">
<style type="text/css">
	.st0{fill:#FFC183;}
</style>
<g id="XMLID_138_">
	<g id="XMLID_236_">
		<g id="XMLID_237_">
			<path id="XMLID_238_" class="st0" d="M9.7,16.6c-0.9,0-1.5-0.7-1.6-0.7c0-0.1-0.1-0.3,0-0.3c0-0.1,0.1-0.1,0.1,0c0,0,1.2,1.2,3,0
				c0.1,0,0.1,0,0.1,0.1s0,0.3-0.1,0.3C10.8,16.5,10.1,16.6,9.7,16.6z"/>
		</g>
	</g>
	<g id="XMLID_156_">
		<g id="XMLID_232_">
			<path id="XMLID_233_" class="st0" d="M17.7,9.6c0,4.9-3.4,8.9-7.7,8.9s-7.7-4-7.7-8.9h2.6L8.3,7L6.8,9.6C7.1,9.6,14,11,17.7,9.6z
				 M10,0.7C5.1,0.7,1,4,1,9.5s4,10.2,9,10.2c4.9,0,9-4.5,9-10.2C19,4,14.9,0.7,10,0.7L10,0.7z"/>
		</g>
		<g id="XMLID_228_">
			<path id="XMLID_229_" class="st0" d="M6.7,11c-0.8,0-1.5,0.7-1.5,1.5S5.9,14,6.7,14s1.5-0.7,1.5-1.5S7.5,11,6.7,11z M7,13.4
				c-0.4,0-0.8-0.4-0.8-0.8s0.3-0.8,0.8-0.8c0.4,0,0.8,0.4,0.8,0.8S7.4,13.4,7,13.4z"/>
		</g>
		<g id="XMLID_166_">
			<path id="XMLID_170_" class="st0" d="M12.4,12.4c0,0.8,0.7,1.5,1.5,1.5s1.5-0.7,1.5-1.5s-0.7-1.5-1.5-1.5
				C13,11,12.4,11.5,12.4,12.4z M12.8,12.5c0-0.4,0.4-0.8,0.8-0.8s0.8,0.4,0.8,0.8s-0.3,0.8-0.8,0.8C13.2,13.4,12.8,13,12.8,12.5z"
				/>
		</g>
		<g id="XMLID_157_">
			<path id="XMLID_161_" class="st0" d="M17.7,9.6c0,4.9-3.4,8.9-7.7,8.9s-7.7-4-7.7-8.9h2.6L8.3,7L6.8,9.6C7.1,9.6,14,11,17.7,9.6z
				 M10,0.7C5.1,0.7,1,4,1,9.5s4,10.2,9,10.2c4.9,0,9-4.5,9-10.2C19,4,14.9,0.7,10,0.7L10,0.7z"/>
		</g>
	</g>
</g>
</svg>
