<?xml version="1.0" encoding="utf-8"?>
<!-- Generator: Adobe Illustrator 19.0.0, SVG Export Plug-In . SVG Version: 6.00 Build 0)  -->
<svg version="1.1" id="图层_1" xmlns="http://www.w3.org/2000/svg" xmlns:xlink="http://www.w3.org/1999/xlink" x="0px" y="0px"
	 viewBox="0 0 30 30" style="enable-background:new 0 0 30 30;" xml:space="preserve">
<path id="XMLID_38_" d="M26.6,25.8l-5.7-8c0,0,0-0.1-0.1-0.1c0,0-1.9-1.7-0.2-5.6c0,0,0,0,0,0c0.5-1.2,1.2-3,2.2-5.3
	c0.1-0.1,0.1-0.3,0-0.4c-0.1-0.1-0.2-0.2-0.3-0.3c-1.4-0.4-2.8-0.6-4.3-0.8c0-0.1,0-0.1,0-0.2c0-1.3,0.3-2.6,0.9-3.7
	c0.1-0.2,0-0.6-0.2-0.7c-0.2-0.1-0.5-0.1-0.7,0.2c-0.7,1.2-1,2.6-1,4.1c0,0.1,0,0.1,0,0.2c-1.6-0.1-3.1-0.1-4.7,0c0,0,0-0.1,0-0.1
	c0-1.5-0.4-3-1-4.2c-0.1-0.2-0.4-0.3-0.7-0.2c-0.2,0.1-0.3,0.4-0.2,0.7c0.6,1.1,0.9,2.3,0.9,3.6c0,0.1,0,0.2,0,0.3
	c-1.3,0.2-2.6,0.4-3.8,0.7c-0.1,0-0.3,0.1-0.3,0.3c-0.1,0.1-0.1,0.3,0,0.4c1,2.2,1.7,4,2.2,5.3c1.6,3.9-0.2,5.6-0.2,5.6
	c0,0-0.1,0.1-0.1,0.1l-5.7,8.1c-0.1,0.1-0.1,0.3-0.1,0.4c0,0.1,0.1,0.3,0.3,0.3C7,28.1,11,28.9,15,28.9c4.1,0,8.1-0.8,11.4-2.4
	c0.1-0.1,0.2-0.2,0.3-0.3C26.7,26.1,26.7,25.9,26.6,25.8z M8.5,6.9c4.2-1,9-1,13.2,0c-0.9,2-1.5,3.6-2,4.7c-0.6,1.4-0.8,2.6-0.7,3.5
	c-2.5,0.3-5.2,0.3-7.7,0c0-0.9-0.2-2.1-0.7-3.5C10,10.5,9.4,8.9,8.5,6.9z M21,27.3l-2.7-7.7c-0.1-0.3-0.4-0.4-0.6-0.3
	c-0.3,0.1-0.4,0.4-0.3,0.6l2.7,7.5c-1.6,0.3-3.3,0.4-5,0.4c-1.5,0-2.9-0.1-4.3-0.3l2.7-7.7c0.1-0.3,0-0.5-0.3-0.6
	c-0.3-0.1-0.5,0-0.6,0.3l-2.8,7.8c-1.8-0.3-3.5-0.8-5-1.5l5.3-7.5c0.2-0.2,0.8-0.9,1.1-2.2c1.3,0.2,2.7,0.2,4.1,0.2
	c1.3,0,2.6-0.1,3.8-0.2c0.3,1.3,0.9,2,1.1,2.2l5.3,7.5C24.1,26.5,22.6,27,21,27.3z"/>
</svg>
