<?xml version="1.0" encoding="utf-8"?>
<!-- Generator: Adobe Illustrator 19.0.0, SVG Export Plug-In . SVG Version: 6.00 Build 0)  -->
<svg version="1.1" id="图层_1" xmlns="http://www.w3.org/2000/svg" xmlns:xlink="http://www.w3.org/1999/xlink" x="0px" y="0px"
	 viewBox="0 0 50 50" style="enable-background:new 0 0 50 50;" xml:space="preserve">
<style type="text/css">
	.st0{fill:#8CC63F;}
</style>
<path id="XMLID_6_" class="st0" d="M24.9,49.4c-13.5,0-24.5-11-24.5-24.5c0-13.5,11-24.5,24.5-24.5c13.5,0,24.5,11,24.5,24.5
	C49.4,38.4,38.4,49.4,24.9,49.4z M24.9,1.4C11.9,1.4,1.4,12,1.4,24.9c0,13,10.5,23.5,23.5,23.5s23.5-10.5,23.5-23.5
	C48.4,12,37.8,1.4,24.9,1.4z"/>
<polygon id="XMLID_4_" class="st0" points="16.6,40.1 5.2,28.6 5.9,27.9 16.6,38.7 41.6,13.7 42.3,14.4 "/>
</svg>
