<?xml version="1.0" encoding="utf-8"?>
<!-- Generator: Adobe Illustrator 19.0.0, SVG Export Plug-In . SVG Version: 6.00 Build 0)  -->
<svg version="1.1" id="图层_1" xmlns="http://www.w3.org/2000/svg" xmlns:xlink="http://www.w3.org/1999/xlink" x="0px" y="0px"
	 viewBox="0 0 20 20" style="enable-background:new 0 0 20 20;" xml:space="preserve">
<path id="XMLID_3978_" d="M16.6,6.5h-1.5c0-0.1,0-0.3,0-0.4c0-2.8-2.3-5.1-5.1-5.1S4.9,3.2,4.9,6.1c0,0.1,0,0.3,0,0.4H3.4
	c-0.5,0-0.9,0.4-0.9,0.9v10.8c0,0.5,0.4,0.9,0.9,0.9h13.3c0.5,0,0.9-0.4,0.9-0.9V7.4C17.5,6.9,17.1,6.5,16.6,6.5z M5.5,6.1
	c0-2.5,2-4.5,4.5-4.5c2.5,0,4.5,2,4.5,4.5c0,0.1,0,0.3,0,0.4h-9C5.5,6.3,5.5,6.2,5.5,6.1z M16.9,18.1c0,0.2-0.1,0.3-0.3,0.3H3.4
	c-0.2,0-0.3-0.1-0.3-0.3V7.4c0-0.2,0.1-0.3,0.3-0.3h13.3c0.2,0,0.3,0.1,0.3,0.3V18.1z"/>
<polygon id="XMLID_3994_" points="9,15.8 5.8,12.6 6.3,12.1 9,14.8 14.6,9 15.2,9.5 "/>
</svg>
