<?xml version="1.0" encoding="utf-8"?>
<!-- Generator: Adobe Illustrator 19.0.0, SVG Export Plug-In . SVG Version: 6.00 Build 0)  -->
<svg version="1.1" id="图层_1" xmlns="http://www.w3.org/2000/svg" xmlns:xlink="http://www.w3.org/1999/xlink" x="0px" y="0px"
	 viewBox="0 0 50 50" style="enable-background:new 0 0 50 50;" xml:space="preserve">
<style type="text/css">
	.st0{fill:#F7931E;}
</style>
<path id="XMLID_8_" class="st0" d="M25,49.9c-13.7,0-24.8-11.1-24.8-24.8C0.2,11.5,11.3,0.3,25,0.3c13.7,0,24.8,11.1,24.8,24.8
	C49.7,38.8,38.6,49.9,25,49.9z M25,1.3C11.9,1.3,1.2,12,1.2,25.1S11.9,48.9,25,48.9s23.8-10.7,23.8-23.8S38.1,1.3,25,1.3z"/>
<path id="XMLID_2_" class="st0" d="M25.6,40.2c-0.1,0-0.2,0-0.4-0.1c-1-0.5-10.2-4.7-10.2-10.3V16.4c0-0.5,0.4-0.9,0.9-0.9
	c7.4,0,8.8-2.7,8.8-2.7c0.1-0.3,0.5-0.5,0.8-0.5c0.4,0,0.7,0.2,0.8,0.6l0,0c0,0,1.4,2.7,8.8,2.7c0.5,0,0.9,0.4,0.9,0.9v13.4
	c0,5.9-9.7,10.2-10.2,10.3C25.9,40.2,25.7,40.2,25.6,40.2z M16.1,16.5v13.3c0,5.1,9.2,9.3,9.6,9.4c0,0,9.5-4.2,9.5-9.4V16.5
	c-7.1,0-9.1-2.5-9.5-3.2C25.2,14,23.2,16.4,16.1,16.5z"/>
</svg>
