<?xml version="1.0" encoding="utf-8"?>
<!-- Generator: Adobe Illustrator 19.0.0, SVG Export Plug-In . SVG Version: 6.00 Build 0)  -->
<svg version="1.1" id="图层_1" xmlns="http://www.w3.org/2000/svg" xmlns:xlink="http://www.w3.org/1999/xlink" x="0px" y="0px"
	 viewBox="0 0 50 50" style="enable-background:new 0 0 50 50;" xml:space="preserve">
<style type="text/css">
	.st0{fill:#F7931E;}
</style>
<path id="XMLID_8_" class="st0" d="M25,49.9c-13.7,0-24.8-11.1-24.8-24.8C0.2,11.5,11.3,0.3,25,0.3c13.7,0,24.8,11.1,24.8,24.8
	C49.7,38.8,38.6,49.9,25,49.9z M25,1.3C11.9,1.3,1.2,12,1.2,25.1S11.9,48.9,25,48.9s23.8-10.7,23.8-23.8S38.1,1.3,25,1.3z"/>
<g id="XMLID_1_">
	<path id="XMLID_11_" class="st0" d="M33,41H17.8c-2.1,0-3.9-1.7-3.9-3.9V13.5c0-2.1,1.7-3.9,3.9-3.9H33c2.1,0,3.9,1.7,3.9,3.9v23.6
		C36.8,39.2,35.1,41,33,41z M17.8,10.6c-1.6,0-2.9,1.3-2.9,2.9v23.6c0,1.6,1.3,2.9,2.9,2.9H33c1.6,0,2.9-1.3,2.9-2.9V13.5
		c0-1.6-1.3-2.9-2.9-2.9H17.8z"/>
	<path id="XMLID_5_" class="st0" d="M25.8,38.7c-0.8,0-1.4-0.6-1.4-1.4s0.6-1.4,1.4-1.4s1.4,0.6,1.4,1.4S26.6,38.7,25.8,38.7z
		 M25.8,36.9c-0.2,0-0.4,0.2-0.4,0.4s0.2,0.4,0.4,0.4c0.2,0,0.4-0.2,0.4-0.4S26.1,36.9,25.8,36.9z"/>
	<path id="XMLID_4_" class="st0" d="M36,35H15c-0.3,0-0.5-0.2-0.5-0.5S14.7,34,15,34h21c0.3,0,0.5,0.2,0.5,0.5S36.3,35,36,35z"/>
	<path id="XMLID_3_" class="st0" d="M36,17H15c-0.3,0-0.5-0.2-0.5-0.5S14.7,16,15,16h21c0.3,0,0.5,0.2,0.5,0.5S36.3,17,36,17z"/>
</g>
</svg>
