<?xml version="1.0" encoding="utf-8"?>
<!-- Generator: Adobe Illustrator 19.0.0, SVG Export Plug-In . SVG Version: 6.00 Build 0)  -->
<svg version="1.1" id="图层_1" xmlns="http://www.w3.org/2000/svg" xmlns:xlink="http://www.w3.org/1999/xlink" x="0px" y="0px"
	 viewBox="0 0 50 50" style="enable-background:new 0 0 50 50;" xml:space="preserve">
<style type="text/css">
	.st0{fill:#F7931E;}
</style>
<path id="XMLID_8_" class="st0" d="M25,49.9c-13.7,0-24.8-11.1-24.8-24.8C0.2,11.5,11.3,0.3,25,0.3c13.7,0,24.8,11.1,24.8,24.8
	C49.7,38.8,38.6,49.9,25,49.9z M25,1.3C11.9,1.3,1.2,12,1.2,25.1S11.9,48.9,25,48.9s23.8-10.7,23.8-23.8S38.1,1.3,25,1.3z"/>
<path id="XMLID_7_" class="st0" d="M30.2,40.3H18c-2.8,0-5.1-2.3-5.1-5.1V24.6c0-2.8,2.3-5.1,5.1-5.1h12.2c2.8,0,5.1,2.3,5.1,5.1
	v10.7C35.2,38,33,40.3,30.2,40.3z M18,20.5c-2.2,0-4.1,1.8-4.1,4.1v10.7c0,2.2,1.8,4.1,4.1,4.1h12.2c2.2,0,4.1-1.8,4.1-4.1V24.6
	c0-2.2-1.8-4.1-4.1-4.1H18z"/>
<path id="XMLID_6_" class="st0" d="M31.7,20.5c-0.3,0-0.5-0.2-0.5-0.5v-2.5c0-3.9-3.2-7-7-7H24c-3.9,0-7,3.2-7,7V20
	c0,0.3-0.2,0.5-0.5,0.5S16,20.3,16,20v-2.5c0-4.4,3.6-8,8-8h0.2c4.4,0,8,3.6,8,8V20C32.2,20.3,32,20.5,31.7,20.5z"/>
<path id="XMLID_2_" class="st0" d="M24.1,29.6c-1.1,0-2-0.9-2-2s0.9-2,2-2s2,0.9,2,2S25.2,29.6,24.1,29.6z M24.1,26.6
	c-0.6,0-1,0.5-1,1s0.5,1,1,1s1-0.5,1-1S24.6,26.6,24.1,26.6z"/>
<path id="XMLID_3_" class="st0" d="M24.5,34.5c-0.3,0-0.5-0.2-0.5-0.5v-4c0-0.3,0.2-0.5,0.5-0.5S25,29.7,25,30v4
	C25,34.3,24.8,34.5,24.5,34.5z"/>
</svg>
