<?xml version="1.0" encoding="utf-8"?>
<!-- Generator: Adobe Illustrator 19.0.0, SVG Export Plug-In . SVG Version: 6.00 Build 0)  -->
<svg version="1.1" id="图层_1" xmlns="http://www.w3.org/2000/svg" xmlns:xlink="http://www.w3.org/1999/xlink" x="0px" y="0px"
	 viewBox="0 0 50 50" style="enable-background:new 0 0 50 50;" xml:space="preserve">
<style type="text/css">
	.st0{fill:#F7931E;}
</style>
<path id="XMLID_8_" class="st0" d="M25,49.9c-13.7,0-24.8-11.1-24.8-24.8C0.2,11.5,11.3,0.3,25,0.3c13.7,0,24.8,11.1,24.8,24.8
	C49.7,38.8,38.6,49.9,25,49.9z M25,1.3C11.9,1.3,1.2,12,1.2,25.1S11.9,48.9,25,48.9s23.8-10.7,23.8-23.8S38.1,1.3,25,1.3z"/>
<g id="XMLID_8163_">
	<path id="XMLID_35_" class="st0" d="M34.6,39.5H17.1c-1.6,0-3-1.3-3-3V15.2c0-1.6,1.3-3,3-3h17.5c1.6,0,3,1.3,3,3v21.3
		C37.6,38.2,36.3,39.5,34.6,39.5z M17.1,13.3c-1.1,0-2,0.9-2,2v21.3c0,1.1,0.9,2,2,2h17.5c1.1,0,2-0.9,2-2V15.2c0-1.1-0.9-2-2-2
		H17.1z"/>
	<path id="XMLID_32_" class="st0" d="M33.6,20.1H18c-0.8,0-1.5-0.7-1.5-1.5v-1.6c0-0.8,0.7-1.5,1.5-1.5h15.6c0.8,0,1.5,0.7,1.5,1.5
		v1.6C35.1,19.4,34.4,20.1,33.6,20.1z M18,16.4c-0.3,0-0.5,0.2-0.5,0.5v1.6c0,0.3,0.2,0.5,0.5,0.5h15.6c0.3,0,0.5-0.2,0.5-0.5v-1.6
		c0-0.3-0.2-0.5-0.5-0.5H18z"/>
	<path id="XMLID_29_" class="st0" d="M20.7,26.8h-2.2c-0.8,0-1.5-0.7-1.5-1.5v-1.1c0-0.8,0.7-1.5,1.5-1.5h2.2c0.8,0,1.5,0.7,1.5,1.5
		v1.1C22.2,26.1,21.5,26.8,20.7,26.8z M18.5,23.7c-0.3,0-0.5,0.2-0.5,0.5v1.1c0,0.3,0.2,0.5,0.5,0.5h2.2c0.3,0,0.5-0.2,0.5-0.5v-1.1
		c0-0.3-0.2-0.5-0.5-0.5H18.5z"/>
	<path id="XMLID_26_" class="st0" d="M26.9,26.8h-2.2c-0.8,0-1.5-0.7-1.5-1.5v-1.1c0-0.8,0.7-1.5,1.5-1.5h2.2c0.8,0,1.5,0.7,1.5,1.5
		v1.1C28.4,26.1,27.7,26.8,26.9,26.8z M24.7,23.7c-0.3,0-0.5,0.2-0.5,0.5v1.1c0,0.3,0.2,0.5,0.5,0.5h2.2c0.3,0,0.5-0.2,0.5-0.5v-1.1
		c0-0.3-0.2-0.5-0.5-0.5H24.7z"/>
	<path id="XMLID_23_" class="st0" d="M33.1,26.8h-2.2c-0.8,0-1.5-0.7-1.5-1.5v-1.1c0-0.8,0.7-1.5,1.5-1.5h2.2c0.8,0,1.5,0.7,1.5,1.5
		v1.1C34.6,26.1,33.9,26.8,33.1,26.8z M30.9,23.7c-0.3,0-0.5,0.2-0.5,0.5v1.1c0,0.3,0.2,0.5,0.5,0.5h2.2c0.3,0,0.5-0.2,0.5-0.5v-1.1
		c0-0.3-0.2-0.5-0.5-0.5H30.9z"/>
	<path id="XMLID_20_" class="st0" d="M20.7,31.5h-2.2c-0.8,0-1.5-0.7-1.5-1.5v-1.1c0-0.8,0.7-1.5,1.5-1.5h2.2c0.8,0,1.5,0.7,1.5,1.5
		V30C22.2,30.8,21.5,31.5,20.7,31.5z M18.5,28.4c-0.3,0-0.5,0.2-0.5,0.5V30c0,0.3,0.2,0.5,0.5,0.5h2.2c0.3,0,0.5-0.2,0.5-0.5v-1.1
		c0-0.3-0.2-0.5-0.5-0.5H18.5z"/>
	<path id="XMLID_17_" class="st0" d="M26.9,31.5h-2.2c-0.8,0-1.5-0.7-1.5-1.5v-1.1c0-0.8,0.7-1.5,1.5-1.5h2.2c0.8,0,1.5,0.7,1.5,1.5
		V30C28.4,30.8,27.7,31.5,26.9,31.5z M24.7,28.4c-0.3,0-0.5,0.2-0.5,0.5V30c0,0.3,0.2,0.5,0.5,0.5h2.2c0.3,0,0.5-0.2,0.5-0.5v-1.1
		c0-0.3-0.2-0.5-0.5-0.5H24.7z"/>
	<path id="XMLID_14_" class="st0" d="M33.1,31.5h-2.2c-0.8,0-1.5-0.7-1.5-1.5v-1.1c0-0.8,0.7-1.5,1.5-1.5h2.2c0.8,0,1.5,0.7,1.5,1.5
		V30C34.6,30.8,33.9,31.5,33.1,31.5z M30.9,28.4c-0.3,0-0.5,0.2-0.5,0.5V30c0,0.3,0.2,0.5,0.5,0.5h2.2c0.3,0,0.5-0.2,0.5-0.5v-1.1
		c0-0.3-0.2-0.5-0.5-0.5H30.9z"/>
	<path id="XMLID_11_" class="st0" d="M20.7,36.1h-2.2c-0.8,0-1.5-0.7-1.5-1.5v-1.1c0-0.8,0.7-1.5,1.5-1.5h2.2c0.8,0,1.5,0.7,1.5,1.5
		v1.1C22.2,35.4,21.5,36.1,20.7,36.1z M18.5,33c-0.3,0-0.5,0.2-0.5,0.5v1.1c0,0.3,0.2,0.5,0.5,0.5h2.2c0.3,0,0.5-0.2,0.5-0.5v-1.1
		c0-0.3-0.2-0.5-0.5-0.5H18.5z"/>
	<path id="XMLID_5_" class="st0" d="M26.9,36.1h-2.2c-0.8,0-1.5-0.7-1.5-1.5v-1.1c0-0.8,0.7-1.5,1.5-1.5h2.2c0.8,0,1.5,0.7,1.5,1.5
		v1.1C28.4,35.4,27.7,36.1,26.9,36.1z M24.7,33c-0.3,0-0.5,0.2-0.5,0.5v1.1c0,0.3,0.2,0.5,0.5,0.5h2.2c0.3,0,0.5-0.2,0.5-0.5v-1.1
		c0-0.3-0.2-0.5-0.5-0.5H24.7z"/>
	<path id="XMLID_2_" class="st0" d="M33.1,36.1h-2.2c-0.8,0-1.5-0.7-1.5-1.5v-1.1c0-0.8,0.7-1.5,1.5-1.5h2.2c0.8,0,1.5,0.7,1.5,1.5
		v1.1C34.6,35.4,33.9,36.1,33.1,36.1z M30.9,33c-0.3,0-0.5,0.2-0.5,0.5v1.1c0,0.3,0.2,0.5,0.5,0.5h2.2c0.3,0,0.5-0.2,0.5-0.5v-1.1
		c0-0.3-0.2-0.5-0.5-0.5H30.9z"/>
</g>
</svg>
