<?xml version="1.0" encoding="utf-8"?>
<!-- Generator: Adobe Illustrator 19.0.0, SVG Export Plug-In . SVG Version: 6.00 Build 0)  -->
<svg version="1.1" id="图层_1" xmlns="http://www.w3.org/2000/svg" xmlns:xlink="http://www.w3.org/1999/xlink" x="0px" y="0px"
	 viewBox="0 0 50 50" style="enable-background:new 0 0 50 50;" xml:space="preserve">
<style type="text/css">
	.st0{fill:#F7931E;}
</style>
<path id="XMLID_8_" class="st0" d="M25,49.9c-13.7,0-24.8-11.1-24.8-24.8C0.2,11.5,11.3,0.3,25,0.3c13.7,0,24.8,11.1,24.8,24.8
	C49.7,38.8,38.6,49.9,25,49.9z M25,1.3C11.9,1.3,1.2,12,1.2,25.1S11.9,48.9,25,48.9s23.8-10.7,23.8-23.8S38.1,1.3,25,1.3z"/>
<g id="XMLID_8220_">
	<path id="XMLID_7_" class="st0" d="M24.7,27.6c-0.1,0-0.2,0-0.3-0.1L10.9,15.8l0.7-0.8l13.2,11.4L37.9,15l0.7,0.8L25,27.5
		C24.9,27.5,24.8,27.6,24.7,27.6z"/>
	<path id="XMLID_4_" class="st0" d="M38.2,35.7h-27c-0.3,0-0.5-0.2-0.5-0.5V15.4c0-0.3,0.2-0.5,0.5-0.5h27c0.3,0,0.5,0.2,0.5,0.5
		v19.8C38.7,35.4,38.5,35.7,38.2,35.7z M11.7,34.7h26V15.9h-26V34.7z"/>
	
		<rect id="XMLID_3_" x="15.2" y="22.3" transform="matrix(0.7818 0.6235 -0.6235 0.7818 21.8395 -3.3471)" class="st0" width="1" height="14.4"/>
	
		<rect id="XMLID_2_" x="26.5" y="29" transform="matrix(0.6238 0.7816 -0.7816 0.6238 35.7612 -15.229)" class="st0" width="14.4" height="1"/>
</g>
</svg>
