<?xml version="1.0" encoding="utf-8"?>
<!-- Generator: Adobe Illustrator 19.0.0, SVG Export Plug-In . SVG Version: 6.00 Build 0)  -->
<svg version="1.1" id="图层_1" xmlns="http://www.w3.org/2000/svg" xmlns:xlink="http://www.w3.org/1999/xlink" x="0px" y="0px"
	 viewBox="0 0 20 20" style="enable-background:new 0 0 20 20;" xml:space="preserve">
<style type="text/css">
	.st0{fill:#4D4D4D;}
</style>
<g id="XMLID_319_">
	<path id="XMLID_323_" class="st0" d="M14.5,13.7c0.2-0.2,0.4-0.7,0.2-1.1l-0.5-1.5L14,10.4l-0.6-1.7l-0.4-1.1l-0.1-0.4
		c-0.1-0.2-0.2-0.4-0.4-0.5c-0.1,0-0.2-0.1-0.4-0.1c-0.2,0-0.1,0-0.2,0c-0.2,0.1-0.4,0.2-0.5,0.4c-0.1,0.1-0.1,0.4,0,0.6l0.1,0.4
		l0,0h-0.1l-0.4-1.1c-0.1-0.4-0.4-0.5-0.7-0.5c-0.1,0-0.1,0-0.2,0C9.7,6.9,9.4,7.5,9.5,7.7l0.4,1.1H9.8L9.3,7.2
		C9.2,6.7,8.7,6.6,8.5,6.6c-0.1,0-0.1,0-0.2,0C7.8,6.7,7.7,7.2,7.8,7.6l0.5,1.6H8.2l0,0L6.7,4.6C6.5,4.1,6.3,3.9,6.1,3.9H6L5.8,4
		C5.3,4.2,5.1,4.2,5.3,5.1l2.1,6.2l-0.7-0.7c-0.1-0.1-0.4-0.2-0.6-0.2c-0.1,0-0.1,0-0.2,0s-0.2,0.1-0.4,0.2
		c-0.1,0.1-0.2,0.4-0.2,0.6c0,0.2,0.1,0.5,0.2,0.6l3.2,3.1c0.2,0.4,0.6,0.5,0.9,0.5c0,0,0,0,0.1,0l0.2,0.9c0,0.1,0.2,0.2,0.4,0.2
		h0.1l4-1.3c0.2-0.1,0.4-0.2,0.2-0.5L14.5,13.7z"/>
	<path id="XMLID_320_" class="st0" d="M10,20C4.5,20,0,15.5,0,10S4.5,0,10,0s10,4.5,10,10S15.5,20,10,20z M10,0.9
		c-5.1,0-9.1,4-9.1,9.1s4,9.1,9.1,9.1s9.1-4.1,9.1-9.1S15.1,0.9,10,0.9z"/>
</g>
</svg>
