<?xml version="1.0" encoding="utf-8"?>
<!-- Generator: Adobe Illustrator 19.0.0, SVG Export Plug-In . SVG Version: 6.00 Build 0)  -->
<svg version="1.1" id="图层_1" xmlns="http://www.w3.org/2000/svg" xmlns:xlink="http://www.w3.org/1999/xlink" x="0px" y="0px"
	 viewBox="0 0 20 20" style="enable-background:new 0 0 20 20;" xml:space="preserve">
<style type="text/css">
	.st0{fill:#4D4D4D;}
</style>
<g id="XMLID_300_">
	<path id="XMLID_302_" class="st0" d="M10,20C4.5,20,0,15.5,0,10S4.5,0,10,0s10,4.5,10,10S15.5,20,10,20z M10,0.7
		c-5.1,0-9.1,4.1-9.1,9.1S5,19,10,19s9.1-4.1,9.1-9.1S15.1,0.7,10,0.7z"/>
	<path id="XMLID_301_" class="st0" d="M14.5,11l-3.8,3.8c-0.2,0.2-0.6,0.2-0.9,0s-0.2-0.6,0-0.9l3.8-3.8c0.9-0.9,0.9-2.3,0-3.2
		c-0.9-0.9-2.3-0.9-3.2,0l-4.4,4.4c-0.5,0.5-0.5,1.3,0,1.8s1.3,0.5,1.8,0L12.1,9c0.1-0.1,0.1-0.4,0-0.5c-0.1-0.1-0.4-0.1-0.5,0
		L8.2,12c-0.2,0.2-0.6,0.2-0.9,0s-0.2-0.6,0-0.9l3.4-3.4c0.6-0.6,1.6-0.6,2.1,0c0.6,0.6,0.6,1.6,0,2.1l-4,4.3c-1,1-2.6,1-3.4,0
		c-1-1-1-2.6,0-3.4l4.4-4.4c1.3-1.3,3.4-1.3,4.8,0C15.7,7.4,15.7,9.6,14.5,11"/>
</g>
</svg>
