<?xml version="1.0" encoding="utf-8"?>
<!-- Generator: Adobe Illustrator 19.0.0, SVG Export Plug-In . SVG Version: 6.00 Build 0)  -->
<svg version="1.1" id="图层_1" xmlns="http://www.w3.org/2000/svg" xmlns:xlink="http://www.w3.org/1999/xlink" x="0px" y="0px"
	 viewBox="0 0 20 20" style="enable-background:new 0 0 20 20;" xml:space="preserve">
<path id="XMLID_8_" d="M18.8,17.5L11.3,10l7.5-7.5c0.4-0.4,0.4-1,0-1.3c-0.4-0.4-1-0.4-1.3,0L10,8.6L2.5,1.2c-0.4-0.4-1-0.4-1.3,0
	c-0.4,0.4-0.4,1,0,1.3L8.6,10l-7.5,7.5c-0.4,0.4-0.4,1,0,1.3c0.2,0.2,0.4,0.3,0.7,0.3s0.5-0.1,0.7-0.3l7.5-7.5l7.5,7.5
	c0.2,0.2,0.4,0.3,0.7,0.3s0.5-0.1,0.7-0.3C19.2,18.5,19.2,17.9,18.8,17.5z"/>
</svg>
