<?xml version="1.0" encoding="utf-8"?>
<!-- Generator: Adobe Illustrator 19.0.0, SVG Export Plug-In . SVG Version: 6.00 Build 0)  -->
<svg version="1.1" id="图层_1" xmlns="http://www.w3.org/2000/svg" xmlns:xlink="http://www.w3.org/1999/xlink" x="0px" y="0px"
	 viewBox="0 0 24 24" style="enable-background:new 0 0 24 24;" xml:space="preserve">
<style type="text/css">
	.st0{fill:#FBB03B;}
</style>
<g id="XMLID_2_">
	<path id="XMLID_159_" class="st0" d="M8.6,4.9C8.3,4.9,8,4.7,8,4.4V2.2C8,2,8.3,1.7,8.6,1.7h7.2c0.3,0,0.5,0.2,0.5,0.5v2.1
		c0,0.3-0.2,0.5-0.5,0.5c-0.3,0-0.5-0.2-0.5-0.5V2.7H9.1v1.7C9.1,4.7,8.8,4.9,8.6,4.9z"/>
	<g id="XMLID_133_">
		<path id="XMLID_158_" class="st0" d="M16.2,21.9H8.3c-1.7,0-3.2-1.6-3.4-3.5L3.7,7.2c0-0.3,0.2-0.5,0.5-0.5s0.5,0.2,0.6,0.5
			l1,11.2c0.1,1.4,1.2,2.5,2.4,2.5h8c1.2,0,2.3-1.1,2.4-2.5l0.9-11.2c0-0.3,0.3-0.5,0.5-0.5c0.3,0,0.5,0.2,0.5,0.5l-1.1,11.2
			C19.4,20.3,17.9,21.9,16.2,21.9z"/>
	</g>
	<g id="XMLID_83_">
		<line id="XMLID_110_" class="st0" x1="2.1" y1="6" x2="22.1" y2="6"/>
		<path id="XMLID_109_" class="st0" d="M22.1,6h-20C1.8,6,1.6,5.8,1.6,5.5S1.8,5,2.1,5h20c0.3,0,0.5,0.2,0.5,0.5S22.4,6,22.1,6z"/>
	</g>
	<path id="XMLID_71_" class="st0" d="M12.3,17.8c-1.7,0-3.3-1-4-2.6c-0.1-0.3,0-0.5,0.3-0.7c0.3-0.1,0.5,0,0.7,0.3
		c0.5,1.2,1.7,2,3.1,2c1.4,0,2.6-0.8,3.1-2.1c0.1-0.3,0.4-0.4,0.7-0.3c0.3,0.1,0.4,0.4,0.3,0.7C15.7,16.8,14.1,17.8,12.3,17.8z"/>
	<path id="XMLID_62_" class="st0" d="M8.8,12.5c-0.1,0-0.1,0-0.2,0c-0.3-0.1-0.4-0.4-0.3-0.7c0.7-1.6,2.3-2.7,4-2.7
		c1.7,0,3.3,1,4,2.6c0.1,0.3,0,0.5-0.3,0.7c-0.3,0.1-0.5,0-0.7-0.3c-0.5-1.2-1.7-2-3.1-2c-1.3,0-2.6,0.8-3.1,2
		C9.1,12.4,9,12.5,8.8,12.5z"/>
	<path id="XMLID_181_" class="st0" d="M16.1,12.5c0,0-0.1,0-0.1,0l-3.1-0.6c-0.3-0.1-0.4-0.3-0.4-0.6s0.3-0.4,0.6-0.4l2.5,0.5
		l-0.1-2.6c0-0.3,0.2-0.5,0.5-0.5c0.3,0,0.5,0.2,0.5,0.5l0.2,3.2c0,0.2-0.1,0.3-0.2,0.4C16.3,12.5,16.2,12.5,16.1,12.5z"/>
	<path id="XMLID_182_" class="st0" d="M8.8,19c-0.3,0-0.5-0.4-0.5-0.7L8.1,15c0-0.2,0.1-0.4,0.2-0.5c0.1-0.1,0.3-0.2,0.4-0.1
		l3.1,0.6c0.3,0.1,0.4,0.3,0.4,0.6c-0.1,0.3-0.3,0.4-0.6,0.4l-2.5-0.5l0.1,2.8C9.3,18.6,9.1,19,8.8,19C8.8,19,8.8,19,8.8,19z"/>
</g>
</svg>
