<?xml version="1.0" encoding="utf-8"?>
<!-- Generator: Adobe Illustrator 19.0.0, SVG Export Plug-In . SVG Version: 6.00 Build 0)  -->
<svg version="1.1" id="图层_1" xmlns="http://www.w3.org/2000/svg" xmlns:xlink="http://www.w3.org/1999/xlink" x="0px" y="0px"
	 viewBox="0 0 20 20" style="enable-background:new 0 0 20 20;" xml:space="preserve">
<style type="text/css">
	.st0{fill:#FF8C1A;}
</style>
<g>
	<path class="st0" d="M19.2,6.3l-1.4-1.4c-0.1-0.1-0.3-0.1-0.3-0.1c-0.1,0-0.2,0-0.3,0.1l-0.5,0.4l0,0c-0.2,0.3-0.6,0.3-0.9,0.3
		c-0.3,0-0.7-0.2-1-0.5s-0.5-0.7-0.5-1c0-0.4,0.1-0.6,0.4-0.9l0.5-0.5c0.1-0.1,0.1-0.5,0-0.7l-1.4-1.4C13,0,11.9-0.1,11.2,0.6
		L0.6,11.3c-0.3,0.3-0.4,0.7-0.4,1.2c0,0.4,0.2,0.8,0.5,1.2l1.4,1.4c0.1,0.1,0.5,0.1,0.7,0l0.6-0.4l0,0c0.2-0.3,0.6-0.3,0.9-0.3
		c0.3,0,0.7,0.2,1,0.5c0.3,0.3,0.5,0.7,0.5,1c0,0.4-0.1,0.7-0.4,0.9l-0.5,0.5c-0.1,0.1-0.1,0.3-0.1,0.3c0,0.1,0,0.2,0.1,0.3l1.4,1.4
		c0.3,0.3,0.8,0.5,1.3,0.5c0.4,0,0.8-0.1,1.2-0.4L19.3,8.7c0.3-0.3,0.4-0.7,0.4-1.2C19.7,7.1,19.5,6.7,19.2,6.3z M6.1,17.3
		c0.4-0.4,0.6-1,0.6-1.7c0-0.6-0.3-1.2-0.7-1.7c-0.5-0.5-1.1-0.7-1.7-0.7c-0.7,0-1.3,0.2-1.7,0.6l-0.1,0.1l-1-1l0,0
		c-0.1-0.1-0.2-0.3-0.2-0.5l0-0.1c0-0.1-0.1-0.2,0.2-0.5L11.9,1.4c0.1-0.1,0.3-0.2,0.5-0.2c0.2,0,0.4,0.1,0.5,0.3L14,2.6l-0.1,0.1
		c-0.4,0.4-0.6,1-0.6,1.7c0,0.6,0.3,1.2,0.7,1.7s1.1,0.7,1.7,0.7c0.7,0,1.3-0.2,1.7-0.6l0.1-0.1l1,1l0,0c0.1,0.1,0.2,0.3,0.2,0.5
		c0,0.3-0.1,0.5-0.2,0.5L8,18.6c-0.3,0.3-0.7,0.2-1-0.1l-1-1L6.1,17.3z"/>
	<path class="st0" d="M7.9,12.5c0.1,0,0.3,0,0.3-0.2l4.1-4.1c0.1-0.1,0.1-0.5,0-0.7C12.2,7.5,12,7.5,12,7.5c-0.1,0-0.2,0-0.3,0.1
		l-4.1,4.1C7.4,11.8,7.4,12,7.4,12c0,0.1,0,0.2,0.1,0.3C7.6,12.5,7.8,12.5,7.9,12.5z"/>
</g>
</svg>
