<?xml version="1.0" encoding="utf-8"?>
<!-- Generator: Adobe Illustrator 19.0.0, SVG Export Plug-In . SVG Version: 6.00 Build 0)  -->
<svg version="1.1" id="图层_1" xmlns="http://www.w3.org/2000/svg" xmlns:xlink="http://www.w3.org/1999/xlink" x="0px" y="0px"
	 viewBox="5 -5 30 30" style="enable-background:new 5 -5 30 30;" xml:space="preserve">
<style type="text/css">
	.st0{fill:#1A1A1A;}
</style>
<path id="XMLID_324_" class="st0" d="M20,25c-8.3,0-15-6.7-15-15S11.7-5,20-5s15,6.7,15,15S28.2,25,20,25z M20-3.8
	C12.4-3.8,6.2,2.4,6.2,10S12.4,23.8,20,23.8S33.8,17.6,33.8,10S27.6-3.8,20-3.8z"/>
<g id="XMLID_247_">
	<path id="XMLID_306_" class="st0" d="M19.1,17.3c-0.9,0-1.7-0.1-2.7-0.3c-0.1,0.7-0.5,1.4-0.9,2.1v1.2h7V19
		c-0.5-0.6-0.8-1.3-0.9-2.1C20.9,17,20,17.3,19.1,17.3z"/>
	<path id="XMLID_305_" class="st0" d="M29.8,7.2c-0.3,0-0.6,0-0.9,0.1v0.1c0,0.6,0,1-0.1,1.5c0.2-0.2,0.6-0.5,1-0.5
		c0.7,0,1.3,0.6,1.3,1.2c0,1.4-2,2.1-3.2,2.2c-0.2,0.5-0.6,0.9-0.8,1.4c0,0,0.1,0,0.2,0c1.7,0,5.3-0.9,5.3-3.6
		C32.5,8.3,31.2,7.2,29.8,7.2z"/>
	<path id="XMLID_250_" class="st0" d="M19.1,16.2c4.8,0,8.8-3.9,8.8-8.8v-2H10.3v2C10.3,12.3,14.2,16.2,19.1,16.2z"/>
</g>
</svg>
