<?xml version="1.0" encoding="utf-8"?>
<!-- Generator: Adobe Illustrator 19.0.0, SVG Export Plug-In . SVG Version: 6.00 Build 0)  -->
<svg version="1.1" id="图层_1" xmlns="http://www.w3.org/2000/svg" xmlns:xlink="http://www.w3.org/1999/xlink" x="0px" y="0px"
	 viewBox="0 0 30 30" style="enable-background:new 0 0 30 30;" xml:space="preserve">
<g id="XMLID_264_">
	<path id="XMLID_267_" d="M12.3,22.4c-1.1,0-2.2-0.2-3.3-0.4c-0.1,0.9-0.5,1.8-1.2,2.6l0,1.5h8.9l0-1.5c-0.6-0.8-1.1-1.7-1.2-2.6
		C14.5,22.2,13.4,22.4,12.3,22.4z"/>
	<path id="XMLID_266_" d="M25.8,9.7c-0.4,0-0.8,0.1-1.1,0.2V10c0,0.7-0.1,1.3-0.2,1.9c0.3-0.3,0.8-0.6,1.3-0.6
		c0.9,0,1.6,0.7,1.6,1.5c0,1.8-2.6,2.6-4.2,2.8c-0.3,0.6-0.7,1.2-1.1,1.7c0.1,0,0.1,0,0.2,0c2.2,0,6.7-1.1,6.7-4.6
		C29.1,11.1,27.6,9.7,25.8,9.7z"/>
	<path id="XMLID_265_" d="M12.3,21.1c6.1,0,11.1-5,11.1-11.1V7.5H1.2V10C1.2,16.1,6.1,21.1,12.3,21.1z"/>
</g>
</svg>
