<?xml version="1.0" encoding="utf-8"?>
<!-- Generator: Adobe Illustrator 19.0.0, SVG Export Plug-In . SVG Version: 6.00 Build 0)  -->
<svg version="1.1" id="图层_1" xmlns="http://www.w3.org/2000/svg" xmlns:xlink="http://www.w3.org/1999/xlink" x="0px" y="0px"
	 viewBox="0 0 25 25" style="enable-background:new 0 0 25 25;" xml:space="preserve">
<style type="text/css">
	.st0{fill-rule:evenodd;clip-rule:evenodd;}
</style>
<g id="XMLID_485_">
	<path id="XMLID_503_" class="st0" d="M1.8,19.1L1.8,19.1V8.8c0-0.2,0.2-0.4,0.4-0.4h0h19.7c0.2,0,0.4,0.2,0.4,0.4v0v10.3
		c0,0.2-0.2,0.4-0.4,0.4h0H2.2C2,19.5,1.8,19.3,1.8,19.1L1.8,19.1z M2.6,9.2v9.4h18.9V9.2H2.6z"/>
	<path id="XMLID_502_" class="st0" d="M3.8,7.5c-0.2,0-0.4-0.2-0.4-0.4c0-0.2,0.2-0.4,0.4-0.4h19.7c0.2,0,0.4,0.2,0.4,0.4v0v10.3
		c0,0.2-0.2,0.4-0.4,0.4c-0.2,0-0.4-0.2-0.4-0.4V7.5H3.8z"/>
	<path id="XMLID_499_" class="st0" d="M5.4,15.2c-0.3,0-0.6-0.1-0.8-0.4c-0.2-0.2-0.3-0.6-0.3-0.9c0-0.4,0.1-0.7,0.3-0.9
		c0.2-0.2,0.5-0.4,0.8-0.4c0.3,0,0.6,0.1,0.8,0.4l0,0l0,0l0,0c0.2,0.2,0.3,0.5,0.3,0.9c0,0.4-0.1,0.7-0.3,0.9l0,0
		C6,15.1,5.7,15.2,5.4,15.2L5.4,15.2z M5.1,14.2c0.1,0.1,0.2,0.1,0.3,0.1c0.1,0,0.2,0,0.3-0.1l0,0c0.1-0.1,0.1-0.2,0.1-0.3
		c0-0.1,0-0.2-0.1-0.3l0,0c-0.1-0.1-0.2-0.1-0.3-0.1c-0.1,0-0.2,0-0.3,0.1C5,13.7,5,13.8,5,13.9C5,14,5,14.2,5.1,14.2z"/>
	<path id="XMLID_496_" class="st0" d="M18.8,15.2c-0.3,0-0.6-0.1-0.8-0.4l0,0l0,0c-0.2-0.2-0.3-0.6-0.3-0.9c0-0.4,0.1-0.7,0.3-0.9
		l0,0l0,0l0,0c0.2-0.2,0.5-0.4,0.8-0.4c0.3,0,0.6,0.1,0.8,0.4l0,0l0,0l0,0c0.2,0.2,0.3,0.5,0.3,0.9c0,0.4-0.1,0.7-0.3,0.9l0,0
		C19.4,15.1,19.1,15.2,18.8,15.2L18.8,15.2z M18.5,14.2c0.1,0.1,0.2,0.1,0.3,0.1c0.1,0,0.2,0,0.3-0.1l0,0c0.1-0.1,0.1-0.2,0.1-0.3
		c0-0.1,0-0.2-0.1-0.3l0,0c-0.1-0.1-0.2-0.1-0.3-0.1c-0.1,0-0.2,0-0.3,0.1l0,0c-0.1,0.1-0.1,0.2-0.1,0.3
		C18.4,14,18.4,14.2,18.5,14.2L18.5,14.2z"/>
	<path id="XMLID_495_" class="st0" d="M18.7,8.8c0-0.2,0.2-0.4,0.4-0.4c0.2,0,0.4,0.2,0.4,0.4c0,0.7,0.3,1.4,0.7,1.9
		c0.4,0.5,1.1,0.8,1.7,0.8c0.2,0,0.4,0.2,0.4,0.4c0,0.2-0.2,0.4-0.4,0.4c-0.9,0-1.7-0.4-2.3-1l0,0C19.1,10.6,18.7,9.8,18.7,8.8z"/>
	<path id="XMLID_494_" class="st0" d="M4.7,8.8c0-0.2,0.2-0.4,0.4-0.4c0.2,0,0.4,0.2,0.4,0.4c0,1-0.4,1.8-0.9,2.5l0,0
		c-0.6,0.6-1.4,1-2.3,1c-0.2,0-0.4-0.2-0.4-0.4c0-0.2,0.2-0.4,0.4-0.4c0.7,0,1.3-0.3,1.7-0.8l0,0C4.4,10.2,4.7,9.5,4.7,8.8z"/>
	<path id="XMLID_493_" class="st0" d="M19.5,19.1c0,0.2-0.2,0.4-0.4,0.4c-0.2,0-0.4-0.2-0.4-0.4c0-1,0.4-1.8,0.9-2.5l0,0
		c0.6-0.6,1.4-1,2.3-1c0.2,0,0.4,0.2,0.4,0.4c0,0.2-0.2,0.4-0.4,0.4c-0.7,0-1.3,0.3-1.7,0.8l0,0C19.8,17.7,19.5,18.3,19.5,19.1z"/>
	<path id="XMLID_492_" class="st0" d="M5.5,19.1c0,0.2-0.2,0.4-0.4,0.4c-0.2,0-0.4-0.2-0.4-0.4c0-0.7-0.3-1.4-0.7-1.9l0,0
		c-0.4-0.5-1.1-0.8-1.7-0.8c-0.2,0-0.4-0.2-0.4-0.4c0-0.2,0.2-0.4,0.4-0.4c0.9,0,1.7,0.4,2.3,1l0,0C5.1,17.2,5.5,18.1,5.5,19.1z"/>
	<path id="XMLID_489_" class="st0" d="M12.1,11.1c-0.3,0-0.6,0.1-0.8,0.3l0,0C11.1,11.7,11,12,11,12.3c0,0.3,0.1,0.6,0.3,0.8l0,0
		l0,0c0.2,0.2,0.5,0.3,0.8,0.3c0.3,0,0.6-0.1,0.8-0.3l0,0c0.2-0.2,0.3-0.5,0.3-0.8c0-0.3-0.1-0.6-0.3-0.8l0,0
		C12.6,11.3,12.4,11.1,12.1,11.1L12.1,11.1z M10.8,10.9c0.3-0.4,0.8-0.6,1.3-0.6c0.5,0,1,0.2,1.3,0.6l0,0c0.3,0.4,0.5,0.9,0.5,1.4
		c0,0.6-0.2,1.1-0.5,1.4l0,0c-0.3,0.4-0.8,0.6-1.3,0.6c-0.5,0-1-0.2-1.3-0.6l0,0c-0.3-0.4-0.5-0.9-0.5-1.4
		C10.2,11.8,10.4,11.3,10.8,10.9L10.8,10.9z"/>
	<path id="XMLID_486_" class="st0" d="M10.2,15.3c-0.1,0.1-0.1,0.2-0.2,0.3l0,0c-0.1,0.1-0.1,0.3-0.2,0.4c0.3,0.3,0.6,0.6,1,0.8
		c0.4,0.2,0.9,0.4,1.4,0.4c0.5,0,1-0.1,1.4-0.4c0.4-0.2,0.7-0.5,1-0.8c-0.1-0.2-0.1-0.3-0.2-0.4l0,0c-0.1-0.1-0.1-0.2-0.2-0.3
		c-0.2,0.2-0.5,0.3-0.7,0.4c-0.4,0.2-0.8,0.2-1.2,0.2c-0.4,0-0.8-0.1-1.2-0.2C10.6,15.6,10.4,15.5,10.2,15.3L10.2,15.3z M9.3,15.1
		c0.2-0.3,0.3-0.5,0.6-0.7c0.1-0.2,0.4-0.2,0.5,0c0.2,0.2,0.5,0.4,0.8,0.5c0.3,0.1,0.6,0.2,0.9,0.2c0.3,0,0.6-0.1,0.9-0.2
		c0.3-0.1,0.6-0.3,0.8-0.5c0.1-0.1,0.4-0.2,0.5,0c0.2,0.2,0.4,0.5,0.6,0.7l0,0l0,0c0.2,0.3,0.3,0.5,0.4,0.8l0,0c0,0.1,0,0.3-0.1,0.4
		c-0.4,0.5-0.8,1-1.4,1.3c-0.5,0.3-1.1,0.5-1.8,0.5c-0.6,0-1.2-0.2-1.8-0.5c-0.5-0.3-1-0.7-1.4-1.3c-0.1-0.1-0.1-0.2-0.1-0.4
		C9,15.7,9.1,15.4,9.3,15.1L9.3,15.1z"/>
</g>
</svg>
