<?xml version="1.0" encoding="utf-8"?>
<!-- Generator: Adobe Illustrator 19.0.0, SVG Export Plug-In . SVG Version: 6.00 Build 0)  -->
<svg version="1.1" id="图层_1" xmlns="http://www.w3.org/2000/svg" xmlns:xlink="http://www.w3.org/1999/xlink" x="0px" y="0px"
	 viewBox="0 0 20 20" style="enable-background:new 0 0 20 20;" xml:space="preserve">
<style type="text/css">
	.st0{fill:#F29724;}
</style>
<g id="XMLID_1_">
	<path id="XMLID_1072_" class="st0" d="M18.6,5H1.7C1.5,5,1.3,4.7,1.3,4.5S1.5,4,1.7,4h16.9c0.2,0,0.4,0.3,0.4,0.5S18.9,5,18.6,5z"
		/>
	<path id="XMLID_1071_" class="st0" d="M6.9,3.5C6.7,3.5,6.5,3.3,6.5,3V1.1c0-0.2,0.2-0.4,0.4-0.4h6.3c0.2,0,0.4,0.2,0.4,0.4V3
		c0,0.2-0.2,0.4-0.4,0.4S12.8,3.2,12.8,3V1.6H7.3V3C7.3,3.3,7.1,3.5,6.9,3.5z"/>
	<path id="XMLID_1070_" class="st0" d="M7.3,16.9c-0.2,0-0.4-0.2-0.4-0.4L5.8,7c0-0.2,0.1-0.5,0.4-0.5c0.2,0,0.5,0.1,0.5,0.4
		l1.1,9.5C7.8,16.6,7.6,16.9,7.3,16.9C7.4,16.9,7.3,16.9,7.3,16.9z"/>
	<g id="XMLID_1064_">
		<path id="XMLID_15_" class="st0" d="M13.6,19.4h-7c-1.5,0-2.8-1.4-3-3.1l-1-9.8c0-0.2,0.2-0.4,0.4-0.4s0.5,0.2,0.5,0.4l0.9,9.8
			c0.1,1.2,1.1,2.2,2.1,2.2h7.1c1.1,0,2-1,2.1-2.2l0.8-9.8c0-0.2,0.2-0.4,0.5-0.4c0.2,0,0.4,0.2,0.4,0.4l-0.9,9.8
			C16.4,18.1,15.1,19.4,13.6,19.4z"/>
	</g>
	<path id="XMLID_1063_" class="st0" d="M13.4,16.6C13.3,16.6,13.3,16.6,13.4,16.6c-0.3,0-0.5-0.3-0.4-0.5L14,7.3
		c0-0.2,0.3-0.4,0.5-0.4c0.2,0,0.4,0.3,0.4,0.5l-1.1,8.8C13.8,16.4,13.6,16.6,13.4,16.6z"/>
	<path id="XMLID_1062_" class="st0" d="M10.5,16.6c-0.2,0-0.5-0.2-0.5-0.4V7.3c0-0.2,0.3-0.4,0.5-0.4S11,7,11,7.3v8.9
		C11,16.4,10.7,16.6,10.5,16.6z"/>
	<path id="XMLID_1060_" class="st0" d="M7.3,16.6c-0.2,0-0.4-0.2-0.4-0.4L5.8,7c0-0.2,0.1-0.5,0.4-0.5c0.2,0,0.5,0.1,0.5,0.4
		l1.1,9.2C7.8,16.4,7.6,16.6,7.3,16.6C7.4,16.6,7.3,16.6,7.3,16.6z"/>
</g>
</svg>
