<?xml version="1.0" encoding="utf-8"?>
<!-- Generator: Adobe Illustrator 19.0.0, SVG Export Plug-In . SVG Version: 6.00 Build 0)  -->
<svg version="1.1" id="图层_1" xmlns="http://www.w3.org/2000/svg" xmlns:xlink="http://www.w3.org/1999/xlink" x="0px" y="0px"
	 viewBox="0 0 30 30" style="enable-background:new 0 0 30 30;" xml:space="preserve">
<style type="text/css">
	.st0{fill:#666666;}
</style>
<g id="XMLID_960_">
	<path id="XMLID_976_" class="st0" d="M11.6,8.6c-0.3,0-0.5-0.2-0.5-0.5V6c0-0.3,0.2-0.5,0.5-0.5h7c0.3,0,0.5,0.2,0.5,0.5v2.1
		c0,0.3-0.2,0.5-0.5,0.5c-0.3,0-0.5-0.2-0.5-0.5V6.5h-6v1.6C12.1,8.4,11.9,8.6,11.6,8.6z"/>
	<g id="XMLID_973_">
		<path id="XMLID_12_" class="st0" d="M19,25.1h-7.7c-1.6,0-3.1-1.5-3.3-3.4L6.9,10.8c0-0.3,0.2-0.5,0.4-0.5c0.3,0,0.5,0.2,0.5,0.5
			l1,10.9c0.1,1.4,1.2,2.5,2.4,2.5h7.8c1.2,0,2.2-1.1,2.4-2.5l0.9-10.9c0-0.3,0.3-0.5,0.5-0.5c0.3,0,0.5,0.2,0.4,0.5l-1,10.9
			C22.1,23.6,20.7,25.1,19,25.1z"/>
	</g>
	<path id="XMLID_972_" class="st0" d="M18.8,22C18.7,22,18.7,22,18.8,22c-0.3,0-0.5-0.3-0.5-0.5l1.2-9.7c0-0.3,0.3-0.5,0.5-0.4
		c0.3,0,0.5,0.3,0.4,0.5l-1.2,9.7C19.2,21.8,19,22,18.8,22z"/>
	<path id="XMLID_971_" class="st0" d="M15.5,22c-0.3,0-0.5-0.2-0.5-0.5v-9.8c0-0.3,0.2-0.5,0.5-0.5s0.5,0.2,0.5,0.5v9.8
		C16,21.8,15.8,22,15.5,22z"/>
	<path id="XMLID_970_" class="st0" d="M12.1,22c-0.2,0-0.5-0.2-0.5-0.4l-1.2-10.2c0-0.3,0.2-0.5,0.4-0.5c0.3,0,0.5,0.2,0.5,0.4
		l1.2,10.2C12.6,21.7,12.4,22,12.1,22C12.1,22,12.1,22,12.1,22z"/>
	<g id="XMLID_961_">
		<line id="XMLID_969_" class="st0" x1="5" y1="10" x2="25" y2="10"/>
		<path id="XMLID_963_" class="st0" d="M24.8,10H5.4c-0.3,0-0.5-0.2-0.5-0.5S5.1,9,5.4,9h19.4c0.3,0,0.5,0.2,0.5,0.5
			S25.1,10,24.8,10z"/>
	</g>
</g>
<path id="XMLID_978_" class="st0" d="M14.9,1.9c7.2,0,13,5.8,13,13s-5.8,13-13,13c-7.2,0-13-5.8-13-13S7.7,1.9,14.9,1.9 M14.9,0.9
	c-7.7,0-14,6.3-14,14s6.3,14,14,14s14-6.3,14-14S22.6,0.9,14.9,0.9L14.9,0.9z"/>
</svg>
