<?xml version="1.0" encoding="utf-8"?>
<!-- Generator: Adobe Illustrator 19.0.0, SVG Export Plug-In . SVG Version: 6.00 Build 0)  -->
<svg version="1.1" id="图层_1" xmlns="http://www.w3.org/2000/svg" xmlns:xlink="http://www.w3.org/1999/xlink" x="0px" y="0px"
	 viewBox="0 0 20 20" style="enable-background:new 0 0 20 20;" xml:space="preserve">
<style type="text/css">
	.st0{fill:#F7931E;}
</style>
<g id="XMLID_1743_">
	<path id="XMLID_1769_" class="st0" d="M3,15.7H2.7c-1.2,0-2.2-1-2.2-2.2V9.1c0-1.2,1-2.2,2.2-2.2H3c1.2,0,2.2,1,2.2,2.2v4.5
		C5.1,14.8,4.2,15.7,3,15.7z M2.7,7.9c-0.7,0-1.2,0.5-1.2,1.2v4.5c0,0.7,0.5,1.2,1.2,1.2H3c0.7,0,1.2-0.5,1.2-1.2V9.1
		c0-0.7-0.5-1.2-1.2-1.2H2.7z"/>
	<path id="XMLID_1766_" class="st0" d="M17.3,15.7h-0.2c-1.2,0-2.2-1-2.2-2.2V9.1c0-1.2,1-2.2,2.2-2.2h0.2c1.2,0,2.2,1,2.2,2.2v4.5
		C19.5,14.8,18.5,15.7,17.3,15.7z M17.1,7.9c-0.7,0-1.2,0.5-1.2,1.2v4.5c0,0.7,0.5,1.2,1.2,1.2h0.2c0.7,0,1.2-0.5,1.2-1.2V9.1
		c0-0.7-0.5-1.2-1.2-1.2H17.1z"/>
	<path id="XMLID_1765_" class="st0" d="M11.9,19.2l-0.2-0.9c1.8-0.4,3.4-1.6,4.4-3.2l0.8,0.5C15.8,17.3,14,18.7,11.9,19.2z"/>
	<path id="XMLID_1764_" class="st0" d="M17.7,8h-1c0-4-3-6.7-6.7-6.7S3.3,4,3.3,8h-1c0-5,3.4-7.7,7.7-7.7S17.7,3,17.7,8z"/>
	<path id="XMLID_1744_" class="st0" d="M10.6,19.8c-1,0-1.7-0.6-1.7-1.4c0-0.8,0.8-1.4,1.7-1.4s1.7,0.6,1.7,1.4
		C12.3,19.2,11.5,19.8,10.6,19.8z M10.6,18c-0.4,0-0.8,0.2-0.8,0.5c0,0.2,0.3,0.5,0.8,0.5c0.4,0,0.8-0.2,0.8-0.5
		C11.3,18.2,11,18,10.6,18z"/>
</g>
</svg>
