<?xml version="1.0" encoding="utf-8"?>
<!-- Generator: Adobe Illustrator 19.0.0, SVG Export Plug-In . SVG Version: 6.00 Build 0)  -->
<svg version="1.1" id="图层_1" xmlns="http://www.w3.org/2000/svg" xmlns:xlink="http://www.w3.org/1999/xlink" x="0px" y="0px"
	 viewBox="0 0 20 20" style="enable-background:new 0 0 20 20;" xml:space="preserve">
<style type="text/css">
	.st0{fill:#F29724;}
</style>
<path id="XMLID_1051_" class="st0" d="M15.1,1.7l-0.8,0.8l-9.1,9.1c-0.1,0.1-0.1,0.2-0.1,0.3v3.1c0,0.2,0.2,0.4,0.4,0.4l3.1,0
	c0.1,0,0.2,0,0.3-0.1l9.8-9.8c1-1,1-2.6,0-3.6C17.8,0.7,16.1,0.7,15.1,1.7z M5.9,14.4v-1.8l1.8,1.8L5.9,14.4z M8.6,14.3l-2.5-2.5
	l8.5-8.5l2.5,2.5L8.6,14.3z M17.7,5.2l-2.5-2.5l0.2-0.2L17.9,5L17.7,5.2z M18.4,4.4L16,2c0.7-0.4,1.7-0.3,2.2,0.2
	C18.8,2.8,18.9,3.7,18.4,4.4z"/>
<path id="XMLID_1045_" class="st0" d="M13.6,19.1H4.6c-1.8,0-3.3-1.6-3.3-3.5V4.7c0-1.9,1.5-3.5,3.3-3.5h8.9c0.3,0,0.5,0.2,0.5,0.5
	s-0.2,0.5-0.5,0.5H4.6c-1.3,0-2.3,1.1-2.3,2.5v10.9c0,1.4,1,2.5,2.3,2.5h8.9c1.3,0,2.3-1.1,2.3-2.5V8.9c0-0.3,0.2-0.5,0.5-0.5
	s0.5,0.2,0.5,0.5v6.7C16.9,17.5,15.4,19.1,13.6,19.1z"/>
</svg>
