<?xml version="1.0" encoding="utf-8"?>
<!-- Generator: Adobe Illustrator 19.0.0, SVG Export Plug-In . SVG Version: 6.00 Build 0)  -->
<svg version="1.1" id="图层_1" xmlns="http://www.w3.org/2000/svg" xmlns:xlink="http://www.w3.org/1999/xlink" x="0px" y="0px"
	 viewBox="0 0 20 20" style="enable-background:new 0 0 20 20;" xml:space="preserve">
<g id="XMLID_1127_">
	<path id="XMLID_31_" d="M16.9,15.9H3.4c-0.7,0-1.3-0.6-1.3-1.3v-10c0-0.7,0.6-1.3,1.3-1.3h13.6c0.7,0,1.3,0.6,1.3,1.3v10
		C18.2,15.3,17.6,15.9,16.9,15.9z M3.4,3.9C3,3.9,2.6,4.2,2.6,4.7v10c0,0.4,0.3,0.8,0.8,0.8h13.6c0.4,0,0.8-0.3,0.8-0.8v-10
		c0-0.4-0.3-0.8-0.8-0.8H3.4z"/>
	<polygon id="XMLID_30_" points="9.9,11.1 2.4,4.1 2.7,3.8 9.9,10.5 17.6,3.8 17.9,4.2 	"/>
	<polygon id="XMLID_29_" points="17.3,15.5 10.9,10.2 11.3,9.8 17.7,15.1 	"/>
	<polygon id="XMLID_28_" points="2.8,15.4 2.4,15 8.6,9.9 8.9,10.3 	"/>
</g>
</svg>
