<?xml version="1.0" encoding="utf-8"?>
<!-- Generator: Adobe Illustrator 19.0.0, SVG Export Plug-In . SVG Version: 6.00 Build 0)  -->
<svg version="1.1" id="图层_1" xmlns="http://www.w3.org/2000/svg" xmlns:xlink="http://www.w3.org/1999/xlink" x="0px" y="0px"
	 viewBox="0 0 20 20" style="enable-background:new 0 0 20 20;" xml:space="preserve">
<style type="text/css">
	.st0{fill:#FBB03B;}
</style>
<path id="XMLID_10276_" class="st0" d="M17.8,15c0.1-0.1,0.2-0.2,0.2-0.4v-10c0-0.1-0.1-0.1-0.1-0.2l-6.3,5.4L17.8,15z"/>
<path id="XMLID_10301_" class="st0" d="M3,4.4c0,0.1,0,0.2,0,0.3v10c0,0.1-0.1,0.1,0,0.2l5.9-4.9L3,4.4z"/>
<path id="XMLID_10304_" class="st0" d="M17.5,4.1C17.3,4,17.2,4,17.1,4H3.6C3.4,4,3.3,4,3.2,4.1l6.9,6.4L17.5,4.1z"/>
<path id="XMLID_10344_" class="st0" d="M10.1,11.1l-1-0.9l0,0l-6,4.8C3.3,15.1,3.4,15,3.6,15h13.6c0.1,0,0.2,0.2,0.3,0.1l-6.2-5
	L10.1,11.1z"/>
</svg>
