<?xml version="1.0" encoding="utf-8"?>
<!-- Generator: Adobe Illustrator 19.0.0, SVG Export Plug-In . SVG Version: 6.00 Build 0)  -->
<svg version="1.1" id="图层_1" xmlns="http://www.w3.org/2000/svg" xmlns:xlink="http://www.w3.org/1999/xlink" x="0px" y="0px"
	 viewBox="0 0 20 20" style="enable-background:new 0 0 20 20;" xml:space="preserve">
<path id="XMLID_3995_" d="M18.4,2.2H1.6c-0.5,0-0.9,0.4-0.9,0.9v14.1c0,0.5,0.4,0.9,0.9,0.9h16.7c0.5,0,0.9-0.4,0.9-0.9V3.1
	C19.2,2.6,18.9,2.2,18.4,2.2z M18.1,2.8l-8,8.2L1.8,2.8H18.1z M18.7,17.2c0,0.2-0.1,0.3-0.3,0.3H1.6c-0.2,0-0.3-0.1-0.3-0.3v-14
	l8.5,8.4c0.1,0.1,0.1,0.1,0.2,0.1c0,0,0,0,0,0c0.1,0,0.2,0,0.2-0.1l8.4-8.6c0,0,0,0,0,0V17.2z"/>
</svg>
