<?xml version="1.0" encoding="utf-8"?>
<!-- Generator: Adobe Illustrator 19.0.0, SVG Export Plug-In . SVG Version: 6.00 Build 0)  -->
<svg version="1.1" id="图层_1" xmlns="http://www.w3.org/2000/svg" xmlns:xlink="http://www.w3.org/1999/xlink" x="0px" y="0px"
	 viewBox="5 -5 30 30" style="enable-background:new 5 -5 30 30;" xml:space="preserve">
<g id="XMLID_93_">
	<path id="XMLID_95_" d="M19.8,4.9c-4.4,0-8.3,2.2-10.8,5.8c2.5,3.4,6.4,5.7,10.8,5.7s8.3-2.2,10.8-5.7C28.1,7.1,24.2,4.9,19.8,4.9z
		 M20,14.3c-2,0-3.6-1.6-3.6-3.6s1.6-3.6,3.6-3.6s3.6,1.6,3.6,3.6C23.5,12.7,22,14.3,20,14.3z"/>
	<circle id="XMLID_94_" cx="20" cy="10.9" r="1.7"/>
</g>
<path id="XMLID_294_" d="M20,24.9c-8.3,0-14.9-6.7-14.9-14.9S11.8-5,20-5S35,1.7,35,9.9S28.2,24.9,20,24.9z M20-3.8
	C12.5-3.8,6.3,2.4,6.3,9.9S12.5,23.8,20,23.8s13.8-6.2,13.8-13.8S27.6-3.8,20-3.8z"/>
</svg>
