<?xml version="1.0" ?><!DOCTYPE svg  PUBLIC '-//W3C//DTD SVG 1.1//EN'  'http://www.w3.org/Graphics/SVG/1.1/DTD/svg11.dtd'><svg enable-background="new 0 0 512 512" height="512px" id="Layer_1" version="1.1" viewBox="0 0 512 512" width="512px" xml:space="preserve" xmlns="http://www.w3.org/2000/svg" xmlns:xlink="http://www.w3.org/1999/xlink"><linearGradient gradientUnits="userSpaceOnUse" id="SVGID_1_" x1="419.7869" x2="71.8043" y1="462.8515" y2="23.3735"><stop offset="0" style="stop-color:#3B5998"/><stop offset="1" style="stop-color:#336699"/></linearGradient><path d="M256,7.098C118.535,7.098,7.098,118.535,7.098,256S118.535,504.902,256,504.902  c1.781,0,3.554-0.03,5.326-0.067v-164.1h-55.124v-68.905h55.124v-41.343c0-56.764,32.041-96.467,82.687-96.467  c24.255,0,41.343,0,55.124,0v68.905h-27.562c-27.535,0-41.343,13.781-41.343,41.343v27.562h68.905l-13.781,68.905h-55.124v152.908  C431.44,462.061,504.902,367.611,504.902,256C504.902,118.535,393.465,7.098,256,7.098z" fill="url(#SVGID_1_)"/></svg>