<?xml version="1.0" encoding="utf-8"?>
<!-- Generator: Adobe Illustrator 19.0.0, SVG Export Plug-In . SVG Version: 6.00 Build 0)  -->
<svg version="1.1" id="图层_1" xmlns="http://www.w3.org/2000/svg" xmlns:xlink="http://www.w3.org/1999/xlink" x="0px" y="0px"
	 viewBox="0 0 30 30" style="enable-background:new 0 0 30 30;" xml:space="preserve">
<style type="text/css">
	.st0{fill:#666666;}
</style>
<g id="XMLID_626_">
	<path id="XMLID_666_" class="st0" d="M14.9,6.4L17,11c0.2,0.4,0.6,0.7,1,0.7l4.8,0.7l-3.5,3.6c-0.3,0.3-0.4,0.7-0.4,1.1l1.4,5.2
		l-4.7-2.8c-0.2-0.1-0.4-0.1-0.7-0.1c-0.2,0-0.4,0.1-0.7,0.1l-4.5,2.8l1.2-5.2c0.1-0.4-0.1-0.8-0.4-1.1L7,12.5l4.8-0.7
		c0.4-0.1,0.8-0.4,1-0.7L14.9,6.4 M14.9,5.2L14.9,5.2c-0.4,0-0.9,0.3-1,0.7l-2.1,4.6c0,0.1-0.1,0.1-0.1,0.1l-4.8,0.7
		c-0.4,0.1-0.8,0.4-1,0.7c-0.1,0.4,0,0.9,0.3,1.2l3.5,3.6l0.1,0.1L8.6,22c-0.1,0.4,0.1,0.9,0.4,1.2c0.2,0.1,0.4,0.2,0.7,0.2
		s0.4-0.1,0.6-0.1l4.5-2.8h0.1H15l4.8,2.8c0.1,0.1,0.4,0.1,0.6,0.1c0.2,0,0.5-0.1,0.7-0.2c0.4-0.3,0.5-0.7,0.4-1.2l-1.4-5.1
		c0,0,0-0.1,0.1-0.1l3.5-3.6c0.3-0.3,0.4-0.7,0.3-1.2s-0.5-0.7-0.9-0.8l-4.8-0.7c-0.1,0-0.1-0.1-0.1-0.1l-2.1-4.6
		C15.8,5.5,15.3,5.2,14.9,5.2L14.9,5.2z"/>
</g>
<path id="XMLID_977_" class="st0" d="M15.1,1.9c7.2,0,13,5.8,13,13s-5.8,13-13,13c-7.2,0-13-5.8-13-13S7.9,1.9,15.1,1.9 M15.1,1
	c-7.7,0-14,6.3-14,14s6.3,14,14,14s14-6.3,14-14S22.8,1,15.1,1L15.1,1z"/>
</svg>
