<?xml version="1.0" encoding="utf-8"?>
<!-- Generator: Adobe Illustrator 19.0.0, SVG Export Plug-In . SVG Version: 6.00 Build 0)  -->
<svg version="1.1" id="图层_1" xmlns="http://www.w3.org/2000/svg" xmlns:xlink="http://www.w3.org/1999/xlink" x="0px" y="0px"
	 viewBox="0 0 60 60" style="enable-background:new 0 0 60 60;" xml:space="preserve">
<style type="text/css">
	.st0{fill:#F7931E;}
</style>
<path id="XMLID_13_" class="st0" d="M44.4,54.1c-0.3,0-0.5-0.1-0.7-0.2l-14-8c-0.7-0.4-1.6-0.4-2.3,0l-13.2,7.9
	c-0.5,0.3-1.2,0.3-1.7-0.1c-0.5-0.4-0.7-1-0.6-1.6l3.4-15.2c0.1-0.6-0.1-1.4-0.7-1.9L4.3,24.9c-0.4-0.4-0.5-1-0.4-1.5
	c0.2-0.5,0.6-0.9,1.2-1l14.1-2.1c0.8-0.1,1.5-0.6,1.8-1.3l6.1-13.3c0.2-0.5,0.8-0.9,1.4-0.9c0.6,0,1.1,0.3,1.4,0.9L36,18.9
	c0.3,0.7,1,1.2,1.8,1.3l14.1,2.1c0.6,0.1,1,0.5,1.2,1c0.2,0.5,0,1.1-0.4,1.5L42.4,35.2c-0.5,0.5-0.8,1.2-0.6,1.9l4.1,15
	c0.2,0.6,0,1.2-0.5,1.6C45.1,54,44.8,54.1,44.4,54.1z M28.5,44.7c0.6,0,1.1,0.1,1.6,0.4l14,8c0.2,0.1,0.4,0.1,0.6,0
	c0.2-0.1,0.2-0.3,0.2-0.5l-4.1-15.1c-0.2-1.1,0.2-2.1,0.9-2.8l10.3-10.3c0.1-0.1,0.2-0.3,0.1-0.5c-0.1-0.2-0.2-0.3-0.4-0.3
	l-14.1-2.1c-1.1-0.2-2.1-0.9-2.6-1.9L29,6c-0.2-0.4-0.8-0.4-0.9,0l-6.1,13.3c-0.5,1-1.4,1.7-2.6,1.9L5.3,23.3
	c-0.2,0-0.4,0.2-0.4,0.3c-0.1,0.2,0,0.4,0.1,0.5l10.3,10.3c0.7,0.7,1.1,1.8,0.9,2.8l-3.4,15.2c0,0.2,0,0.4,0.2,0.5
	c0.2,0.1,0.4,0.1,0.6,0l13.2-8C27.4,44.8,28,44.7,28.5,44.7z"/>
<path id="XMLID_12_" class="st0" d="M28.3,40.8c-3.2,0-5.8-2.6-5.8-5.8c0-0.3,0.2-0.5,0.5-0.5s0.5,0.2,0.5,0.5
	c0,2.7,2.2,4.8,4.8,4.8c2.7,0,4.8-2.2,4.8-4.8c0-0.3,0.2-0.5,0.5-0.5s0.5,0.2,0.5,0.5C34.2,38.1,31.5,40.8,28.3,40.8z"/>
<path id="XMLID_11_" class="st0" d="M25.6,29.4c-0.3,0-0.5-0.2-0.5-0.5c0-1.6-1.3-2.8-2.8-2.8s-2.8,1.3-2.8,2.8
	c0,0.3-0.2,0.5-0.5,0.5s-0.5-0.2-0.5-0.5c0-2.1,1.7-3.8,3.8-3.8c2.1,0,3.8,1.7,3.8,3.8C26.1,29.2,25.9,29.4,25.6,29.4z"/>
<path id="XMLID_10_" class="st0" d="M37.6,29.4c-0.3,0-0.5-0.2-0.5-0.5c0-1.6-1.3-2.8-2.8-2.8c-1.6,0-2.8,1.3-2.8,2.8
	c0,0.3-0.2,0.5-0.5,0.5c-0.3,0-0.5-0.2-0.5-0.5c0-2.1,1.7-3.8,3.8-3.8s3.8,1.7,3.8,3.8C38.1,29.2,37.9,29.4,37.6,29.4z"/>
</svg>
