<?xml version="1.0" encoding="utf-8"?>
<!-- Generator: Adobe Illustrator 19.0.0, SVG Export Plug-In . SVG Version: 6.00 Build 0)  -->
<svg version="1.1" id="图层_1" xmlns="http://www.w3.org/2000/svg" xmlns:xlink="http://www.w3.org/1999/xlink" x="0px" y="0px"
	 viewBox="0 0 30 30" style="enable-background:new 0 0 30 30;" xml:space="preserve">
<style type="text/css">
	.st0{fill:#444444;}
</style>
<g id="XMLID_2103_">
	<g id="XMLID_115_">
		<path id="XMLID_116_" class="st0" d="M22.7,1.6h-19c-0.9,0-1.6,0.7-1.6,1.6v23.2c0,0.9,0.7,1.6,1.6,1.6H27c0.9,0,1.6-0.7,1.6-1.6
			v-19L22.7,1.6z M8,2.7h12.7v10H8V2.7z M27.5,26.4c0,0.3-0.2,0.5-0.5,0.5H3.8c-0.3,0-0.5-0.2-0.5-0.5V3.2c0-0.3,0.2-0.5,0.5-0.5
			h3.2v11.1h14.8V2.7h0.6l5.2,5.2V26.4z M17.5,11.1h1.1V4.3h-1.1V11.1z M21.2,18.5H7.4c-0.3,0-0.5,0.2-0.5,0.5
			c0,0.3,0.2,0.5,0.5,0.5h13.7c0.3,0,0.5-0.2,0.5-0.5C21.7,18.7,21.5,18.5,21.2,18.5z M21.2,21.1H7.4c-0.3,0-0.5,0.2-0.5,0.5
			c0,0.3,0.2,0.5,0.5,0.5h13.7c0.3,0,0.5-0.2,0.5-0.5C21.7,21.4,21.5,21.1,21.2,21.1z M21.2,23.8H7.4c-0.3,0-0.5,0.2-0.5,0.5
			c0,0.3,0.2,0.5,0.5,0.5h13.7c0.3,0,0.5-0.2,0.5-0.5C21.7,24,21.5,23.8,21.2,23.8z"/>
	</g>
</g>
</svg>
