<?xml version="1.0" ?><!DOCTYPE svg  PUBLIC '-//W3C//DTD SVG 1.1//EN'  'http://www.w3.org/Graphics/SVG/1.1/DTD/svg11.dtd'><svg enable-background="new 0 0 512 512" height="512px" id="Layer_1" version="1.1" viewBox="0 0 512 512" width="512px" xml:space="preserve" xmlns="http://www.w3.org/2000/svg" xmlns:xlink="http://www.w3.org/1999/xlink"><g><linearGradient gradientUnits="userSpaceOnUse" id="SVGID_1_" x1="95.6983" x2="568.7811" y1="95.6983" y2="568.781"><stop offset="0" style="stop-color:#DD272D"/><stop offset="0.5153" style="stop-color:#CA2429"/><stop offset="1" style="stop-color:#B22025"/></linearGradient><path d="M256,7.098C118.535,7.098,7.098,118.535,7.098,256c0,137.465,111.437,248.902,248.902,248.902   c137.464,0,248.902-111.437,248.902-248.902C504.902,118.535,393.465,7.098,256,7.098z M199.015,396.405   c-49.039,0-90.426-19.978-90.426-51.875c0-32.388,37.751-63.597,86.79-63.611c5.349,0,10.277-0.07,15.303-0.07   c-6.697-6.528-11.989-14.404-11.989-24.274c0-5.854,1.825-11.217,4.464-16.201c-2.667,0.197-5.391,0.828-8.199,0.828   c-40.278,0-67.261-27.601-67.261-63.092c0-34.733,37.274-62.516,76.864-62.516c22.069,0,86.537,0,86.537,0l-14.039,14.039h-31.588   c18.574,0,28.12,27.081,28.12,49.277c0,18.672-10.347,32.276-24.933,43.676c-14.264,11.147-16.959,15.808-16.959,25.27   c0,8.087,15.26,21.831,23.249,27.461c23.319,16.538,30.872,31.869,30.872,57.434C285.819,364.649,254.933,396.405,199.015,396.405z    M403.411,255.888h-42.117v42.117h-28.078v-42.117h-42.117V227.81h42.117v-42.117h28.078v42.117h42.117V255.888z" fill="url(#SVGID_1_)"/><linearGradient gradientUnits="userSpaceOnUse" id="SVGID_2_" x1="27.9908" x2="501.0735" y1="163.4058" y2="636.4885"><stop offset="0" style="stop-color:#DD272D"/><stop offset="0.5153" style="stop-color:#CA2429"/><stop offset="1" style="stop-color:#B22025"/></linearGradient><path d="M226.7,292.6c-6.683-2.134-14.067-3.411-21.957-3.496c-33.918-0.379-64.285,20.666-64.285,45.922   c0,25.776,24.47,47.228,58.375,47.228c47.663,0,64.299-20.146,64.299-45.922c0-3.089-0.407-6.135-1.081-9.111   C258.302,312.648,245.106,305.418,226.7,292.6z" fill="url(#SVGID_2_)"/><linearGradient gradientUnits="userSpaceOnUse" id="SVGID_3_" x1="107.4131" x2="580.4958" y1="83.9835" y2="557.0662"><stop offset="0" style="stop-color:#DD272D"/><stop offset="0.5153" style="stop-color:#CA2429"/><stop offset="1" style="stop-color:#B22025"/></linearGradient><path d="M241.835,178.209c-3.917-29.875-25.565-53.854-48.309-54.556   c-22.743-0.674-38.004,22.196-34.087,52.099c3.917,29.861,25.551,54.654,48.309,55.314   C230.505,231.74,245.765,208.085,241.835,178.209z" fill="url(#SVGID_3_)"/></g></svg>