<?xml version="1.0" encoding="utf-8"?>
<!-- Generator: Adobe Illustrator 19.0.0, SVG Export Plug-In . SVG Version: 6.00 Build 0)  -->
<svg version="1.1" id="图层_1" xmlns="http://www.w3.org/2000/svg" xmlns:xlink="http://www.w3.org/1999/xlink" x="0px" y="0px"
	 viewBox="0 0 20 20" style="enable-background:new 0 0 20 20;" xml:space="preserve">
<style type="text/css">
	.st0{fill:#4D4D4D;}
</style>
<g id="XMLID_319_">
	<path id="XMLID_323_" class="st0" d="M13.9,13.5c0.2-0.2,0.3-0.6,0.2-0.9l-0.4-1.2l-0.2-0.6l-0.5-1.4l-0.3-0.9l-0.1-0.3
		c-0.1-0.2-0.2-0.3-0.3-0.4c-0.1,0-0.2-0.1-0.3-0.1c-0.1,0-0.1,0-0.2,0c-0.2,0.1-0.3,0.2-0.4,0.3c-0.1,0.1-0.1,0.3,0,0.5l0.1,0.3
		l0,0l-0.1,0l-0.3-0.9c-0.1-0.3-0.3-0.4-0.6-0.4c-0.1,0-0.1,0-0.2,0C10.1,7.8,9.9,8.2,10,8.5l0.3,0.9l-0.1,0L9.8,8.1
		C9.7,7.8,9.4,7.7,9.2,7.7c-0.1,0-0.1,0-0.2,0C8.6,7.8,8.5,8.1,8.6,8.5L9,9.8l-0.1,0l0,0L7.7,6.1C7.5,5.7,7.4,5.5,7.2,5.5
		c0,0-0.1,0-0.1,0L6.9,5.6C6.5,5.8,6.3,5.8,6.5,6.5l1.7,5.1L7.6,11c-0.1-0.1-0.3-0.2-0.5-0.2c-0.1,0-0.1,0-0.2,0
		c-0.1,0-0.2,0.1-0.3,0.2c-0.1,0.1-0.2,0.3-0.2,0.5c0,0.2,0.1,0.4,0.2,0.5l2.6,2.5c0.2,0.3,0.5,0.4,0.8,0.4c0,0,0,0,0.1,0l0.2,0.7
		c0,0.1,0.2,0.2,0.3,0.2c0,0,0.1,0,0.1,0l3.3-1.1c0.2-0.1,0.3-0.2,0.2-0.4L13.9,13.5z"/>
	<path id="XMLID_320_" class="st0" d="M10.2,18.7C5.7,18.7,2,15,2,10.5s3.7-8.2,8.2-8.2s8.2,3.7,8.2,8.2S14.7,18.7,10.2,18.7z
		 M10.2,3C6,3,2.7,6.3,2.7,10.5S6,18,10.2,18s7.5-3.4,7.5-7.5S14.4,3,10.2,3z"/>
</g>
</svg>
