<?xml version="1.0" encoding="utf-8"?>
<!-- Generator: Adobe Illustrator 19.0.0, SVG Export Plug-In . SVG Version: 6.00 Build 0)  -->
<svg version="1.1" id="图层_1" xmlns="http://www.w3.org/2000/svg" xmlns:xlink="http://www.w3.org/1999/xlink" x="0px" y="0px"
	 viewBox="0 0 20 20" style="enable-background:new 0 0 20 20;" xml:space="preserve">
<style type="text/css">
	.st0{fill:#4D4D4D;}
</style>
<g id="XMLID_305_">
	<path id="XMLID_309_" class="st0" d="M12.5,5.5c-1.1,0-2,0.5-2.5,1.4C9.4,6,8.5,5.5,7.5,5.5c-1.7,0-3.2,1.5-3.2,3.2
		c0,2.5,5.7,7.1,5.7,7.1s5.7-4.5,5.7-7.1C15.7,6.8,14.3,5.5,12.5,5.5z M10,12L7.9,9.9l0.6-0.6l1.5,1.5l3.6-3.6l0.6,0.6L10,12z"/>
	<path id="XMLID_306_" class="st0" d="M10,20C4.5,20,0,15.5,0,10S4.5,0,10,0s10,4.5,10,10S15.5,20,10,20z M10,0.8
		c-5.2,0-9.2,4.1-9.2,9.2s4.1,9.2,9.2,9.2s9.2-4.1,9.2-9.2S15.2,0.8,10,0.8z"/>
</g>
</svg>
