<?xml version="1.0" encoding="utf-8"?>
<!-- Generator: Adobe Illustrator 19.0.0, SVG Export Plug-In . SVG Version: 6.00 Build 0)  -->
<svg version="1.1" id="图层_1" xmlns="http://www.w3.org/2000/svg" xmlns:xlink="http://www.w3.org/1999/xlink" x="0px" y="0px"
	 viewBox="0 0 28 28" style="enable-background:new 0 0 28 28;" xml:space="preserve">
<path id="XMLID_96_" d="M27.4,11.6l-5.7-5.7c0,0-0.1-0.1-0.2-0.1s-0.1,0-0.2,0.1L20,7.3c0,0-0.1,0-0.1,0c-0.1,0-0.2,0-0.3,0
	c0,0,0,0,0,0c-0.1,0-0.3,0-0.4,0l-0.9,0.1c0,0-0.1,0-0.1,0c0,0,0,0-0.1,0L14,8l-4-0.5c0,0,0,0-0.1,0c0,0-0.1,0-0.1,0L8.9,7.4
	c-0.1,0-0.2,0-0.4,0c0,0-0.1,0-0.1,0c-0.1,0-0.2,0-0.3,0c0,0-0.1,0-0.1,0L6.6,5.9c-0.1-0.1-0.3-0.1-0.4,0l-5.7,5.7
	c-0.1,0.1-0.1,0.2,0,0.3l2.8,4.5c0.1,0.2,0.5,0.9,0.6,1l6.6,6.6c0.3,0.3,0.6,0.4,1,0.4c0,0,0,0,0,0c0.3,0,0.5-0.1,0.7-0.3l0.2-0.2
	l0.1,0.1c0.4,0.4,1,0.4,1.5,0.1c0.5,0.3,1.1,0.3,1.5-0.1l0.1-0.1l0.2,0.2c0.2,0.2,0.4,0.3,0.7,0.3h0c0.3,0,0.7-0.2,1-0.4l6.6-6.6
	c0.2-0.2,0.5-0.8,0.6-1l2.8-4.5C27.5,11.8,27.5,11.7,27.4,11.6z M16.8,23.5c-0.2,0.2-0.3,0.2-0.4,0.1l-0.2-0.2l0,0
	c0,0,0.1-0.1,0.1-0.2C16.5,23.3,16.7,23.4,16.8,23.5L16.8,23.5z M14.4,23.5C14.4,23.5,14.4,23.4,14.4,23.5l-2.9-2.9
	c-0.1-0.1-0.1-0.1-0.2-0.1c-0.2,0-0.3,0-0.5,0c-0.1,0-0.2,0.1-0.2,0.2c0,0.1,0,0.2,0.1,0.3l1.6,1.6c0,0.1,0,0.2,0,0.3l-0.7,0.7
	c-0.1,0.1-0.3,0.1-0.4-0.1l-6.6-6.6c-0.1-0.2-1.8-3-3-5l4.9-4.9l1.1,1.1c0,0,0.1,0.1,0.2,0.1l0.2,0c0.2,0,0.3,0,0.5,0
	c0.2,0,0.3,0,0.5,0l1.8,0.2c-0.4,0.3-0.6,0.8-0.6,1.4l0.2,1.4c0.1,0.8,0.8,1.3,1.5,1.2c0,0,1.1,0,1.8-0.1c0,0,0,0,0.1,0.1l5.6,5.6
	c0.1,0.1,0.1,0.4,0,0.5l-0.9,0.9c-0.1,0.1-0.2,0.1-0.3,0.1h0c-0.1,0-0.2,0-0.3-0.1l-2.7-2.7c-0.1-0.1-0.1-0.1-0.2-0.1
	c-0.1,0-0.1,0.1-0.2,0.1c-0.1,0.1-0.2,0.3-0.2,0.4c-0.1,0.1,0,0.2,0,0.3l3.6,3.6c0.1,0.1,0.1,0.2,0.1,0.3c0,0.1,0,0.1-0.1,0.2
	l-0.8,0.8c-0.1,0.1-0.3,0.1-0.5-0.1l-1-1c-0.5-0.5-1.1-1.1-1.5-1.5c-0.1-0.1-0.2-0.2-0.3-0.3c-0.2-0.2-0.3-0.3-0.5-0.2
	c-0.1,0.1-0.2,0.2-0.3,0.2c-0.1,0-0.1,0.1-0.1,0.2c0,0.1,0,0.1,0.1,0.2l2.3,2.3c0,0.1,0,0.2-0.1,0.2l-0.8,0.8
	C14.7,23.6,14.6,23.6,14.4,23.5z M19.1,21.2c0-0.1-0.1-0.2-0.2-0.3l-0.3-0.3c0.1-0.1,0.1-0.1,0.2-0.2l1.1-1.1
	c0.5-0.7,0.7-1.4-0.5-2.5l-4.6-4.6l-0.1-0.1c0.1-0.1,0.2-0.2,0.3-0.2l0.1-0.1c0.1-0.1,0.1-0.2,0.1-0.3c0-0.1-0.1-0.1-0.2-0.2
	l-3.3,0.1c-0.2,0-0.4-0.1-0.4-0.4L11,9.8c0-0.1,0-0.2,0.1-0.3c0.1-0.1,0.1-0.1,0.2-0.1l7.8-1c0.2,0,0.3,0,0.5,0c0.2,0,0.3,0,0.5,0
	l0.2,0c0.1,0,0.1,0,0.2-0.1l1.1-1.1l4.9,4.9c-1.1,2-2.8,4.8-3,5L19.1,21.2z"/>
</svg>
