<?xml version="1.0" encoding="utf-8"?>
<!-- Generator: Adobe Illustrator 19.0.0, SVG Export Plug-In . SVG Version: 6.00 Build 0)  -->
<svg version="1.1" id="图层_1" xmlns="http://www.w3.org/2000/svg" xmlns:xlink="http://www.w3.org/1999/xlink" x="0px" y="0px"
	 viewBox="0 0 20 20" style="enable-background:new 0 0 20 20;" xml:space="preserve">
<style type="text/css">
	.st0{fill:#F7931E;}
</style>
<path id="XMLID_1772_" class="st0" d="M7.5,19.4c-1.2,0-2.5-1.1-2.5-2.3V13h0.4C3.7,13,1,10.8,1,9V7.9C1,6,3.7,4,5.4,4h6.4
	c0,0,3.9-0.6,5.2-3.6c0.1-0.2,0.3-0.3,0.4-0.3c0.2,0,0.3,0.2,0.4,0.4c0,0.1,0,0.2,0.1,5.4c1,0.2,1.8,1.2,1.8,2.3
	c0,1.1-0.6,2.1-1.6,2.3v5.7c0,0.2-0.2,0.4-0.3,0.5c-0.2,0.1-0.4,0.1-0.5,0c-0.9-1.1-3.7-3.7-5.4-3.7H10v4.1
	C10,18.3,8.7,19.4,7.5,19.4z M17,2.2C15.1,4.5,12,5,11.8,5L5,5C3.8,5,2,6.6,2,7.9V9c0,1.3,2.2,3,3.4,3h0.5C6.2,12,6,12.1,6,12.3v4.7
	c0,0.7,0.8,1.4,1.5,1.4S9,17.8,9,17.1v-4.7C9,12.1,9.2,12,9.5,12h2.3c1.8,0,4.2,1.9,5.2,3.1v-5c0-0.3,0.2-0.5,0.4-0.5
	c0.7,0,1.3-0.7,1.3-1.4c0-0.7-0.6-1.4-1.3-1.4c-0.2,0-0.4-0.2-0.4-0.5V6.1C17,5,17,3.4,17,2.2z"/>
</svg>
