<?xml version="1.0" encoding="utf-8"?>
<!-- Generator: Adobe Illustrator 19.0.0, SVG Export Plug-In . SVG Version: 6.00 Build 0)  -->
<svg version="1.1" id="图层_1" xmlns="http://www.w3.org/2000/svg" xmlns:xlink="http://www.w3.org/1999/xlink" x="0px" y="0px"
	 viewBox="0 0 70 70" style="enable-background:new 0 0 70 70;" xml:space="preserve">
<g id="XMLID_88_">
	<path id="XMLID_91_" d="M40.7,25.4c3.2,0,5.8-2.6,5.8-5.8s-2.6-5.8-5.8-5.8s-5.8,2.6-5.8,5.8S37.5,25.4,40.7,25.4z M40.7,14.9
		c2.5,0,4.6,2.1,4.6,4.6s-2.1,4.6-4.6,4.6s-4.6-2.1-4.6-4.6S38.2,14.9,40.7,14.9z"/>
	<path id="XMLID_94_" d="M17.5,35.9c-0.1-0.6-0.4-1.1-0.9-1.4c-0.5-0.3-1.1-0.5-1.6-0.4l-3.5,0.6c-1.2,0.2-2,1.3-1.8,2.5l3.6,22.2
		c0.2,1.1,1.1,1.9,2.2,1.9c0.1,0,0.2,0,0.4,0l3.5-0.6c1.2-0.2,2-1.3,1.8-2.5L17.5,35.9z M19.8,58.3c0.1,0.5-0.3,1-0.8,1.1L15.5,60
		c-0.3,0-0.5,0-0.7-0.2c-0.2-0.2-0.3-0.4-0.4-0.6L10.9,37c-0.1-0.5,0.3-1,0.8-1.1l3.5-0.6c0.5-0.1,1,0.3,1.1,0.8L19.8,58.3z"/>
	<path id="XMLID_95_" d="M50.8,37.5c-2.3-1.5-9.6-0.2-15.7,1.1c-0.4,0.1-0.8,0.2-1,0.2c0,0-0.1,0-0.1,0c4.1-3.2,5.7-6.3,5.8-8.3
		c0.1-0.9-0.2-1.5-0.6-1.9c-0.7-0.7-1.6-1-2.7-0.9c-2.2,0.2-4.9,2-7,4.9c-3.1,3.9-10.2,4.9-10.5,4.9c-0.2,0-0.3,0.1-0.4,0.2
		c-0.1,0.1-0.2,0.3-0.1,0.5c0,0.2,0.1,0.3,0.2,0.4c0.1,0.1,0.3,0.2,0.5,0.1c0.3,0,7.9-1,11.3-5.4c1.9-2.6,4.3-4.3,6.1-4.4
		c0.7-0.1,1.3,0.1,1.8,0.6c0.2,0.1,0.2,0.5,0.2,0.9c-0.1,1.8-1.8,4.9-6.2,8c-0.5,0.4-0.6,0.9-0.4,1.2c0.3,0.6,1.1,0.6,2.4,0.3
		c0.2,0,0.6-0.1,1-0.2c3.1-0.7,12.6-2.7,14.8-1.3c0.2,0.1,0.3,0.3,0.3,0.4c0.1,0.4,0,0.8-0.3,1.1c-0.5,0.6-1.7,1.5-5,2.1
		c-1.2,0.1-2.6,0.3-4.5,0.5c-0.3,0-0.7,0.1-0.9,0.1l-0.5,0c-0.2,0-0.4,0.1-0.5,0.3c-0.1,0.2-0.1,0.5,0.1,0.6c0.2,0.3,0.3,0.3,1,0.2
		c2.1-0.2,4-0.4,5.5-0.7c3-0.3,3.7-0.1,3.9,0l0,0.1c0,0.5,0.1,0.8-0.2,1.1c-0.5,0.5-1.7,1-3.6,1.4c-0.1,0-0.2,0-0.3,0
		c-2.1,0-4.9,0.5-7,0.8l-0.1,0c-0.3,0.1-0.6,0.4-0.5,0.7c0,0.3,0.3,0.6,0.7,0.5c3.1-0.2,5.6-0.5,7.4-0.9c0.9,0,1.2,0.2,1.3,0.2
		c0.2,1.2,0.3,2.3-2.6,2.9c-0.9,0.2-2.5,0.4-4.8,0.8c-1.7,0.1-3.3,0.5-3.9,0.6c-0.3,0.1-0.5,0.4-0.5,0.7c0.1,0.3,0.4,0.6,0.7,0.5
		l0.1,0c0.3-0.1,1.9-0.3,3.7-0.5c1.8-0.2,3-0.1,3.4,0.2c0,0,0,0,0,0c-0.1,1.3-1.2,2.9-8.5,3.3c-2.1,0.3-5.2,0.5-7.8-0.3
		c-0.1,0-0.1,0-0.2,0c-0.6,0-3.5,0.6-3.8,0.7c-0.3,0.1-0.6,0.4-0.5,0.7c0.1,0.3,0.3,0.5,0.6,0.5c0,0,0.1,0,0.1,0
		c1.1-0.2,3-0.6,3.5-0.6c2.8,0.9,6,0.7,8.2,0.4c6.5-0.3,9.4-1.6,9.7-4.4c0.1-0.4-0.1-0.8-0.4-1.1c0.3,0,0.5-0.1,0.8-0.1
		c4-0.9,3.7-3,3.5-4.3c0-0.1-0.1-0.3-0.2-0.5c1-0.3,1.7-0.7,2.2-1.3c0.6-0.7,0.5-1.5,0.5-2.1l0-0.2c0-0.2-0.1-0.5-0.4-0.7
		c-0.2-0.1-0.4-0.2-0.7-0.3c0.8-0.4,1.4-0.9,1.8-1.4c0.5-0.6,0.6-1.4,0.5-2.1C51.5,38.2,51.2,37.8,50.8,37.5z"/>
	<path id="XMLID_98_" d="M60.1,6.9H20.4c-1.4,0-2.5,0.8-2.5,2.3v21.2c0,1.4,1,2.5,2.5,2.5h8.2c0.3,0,0.6-0.2,0.6-0.5
		s-0.3-0.5-0.6-0.5H28c0.2-1,0.3-1.1,0.3-1.7c0-3.3-3.1-6-6.9-6c-0.8,0-1.6,0.1-2.3,0.3c0,0-0.1,0-0.1,0v-8.3c0,0,0.1,0,0.1,0
		c0.7,0.3,1.5,0.4,2.3,0.4c3.8,0,6.9-3,6.9-6.8c0-0.7-0.1-0.9-0.3-1.9h25c-0.2,1-0.3,1.2-0.3,1.9c0,3.8,3.3,6.8,7.1,6.8
		c0.7,0,1.2-0.1,2.2-0.3v8.1c-1-0.2-1.5-0.3-2.2-0.3c-3.8,0-7,2.7-7,6c0,0.6,0,0.7,0.2,1.7H40.7c-0.3,0-0.6,0.2-0.6,0.5
		s0.3,0.5,0.6,0.5h19.3c1.4,0,2.9-1.1,2.9-2.5V9.2C62.9,7.7,61.5,6.9,60.1,6.9z M54.2,31.9c0,0,0-0.2,0-0.2c-0.2-0.5-0.3-1-0.3-1.6
		c0-2.6,2.5-4.7,5.6-4.7c0.7,0,1.6,0.1,2.1,0.3c0,0-0.7,0,0.3,0v4.7c0,0.8-1.1,1.5-1.9,1.5H54.2z M54.2,7.9h5.8
		c0.8,0,1.9,0.5,1.9,1.3V15c-1,0-0.3,0-0.3,0c-0.6,0.2-1.3,0.3-2,0.3c-3.1,0-5.7-2.5-5.7-5.6C53.9,9.1,54,8.5,54.2,7.9
		C54.2,7.9,54.2,7.9,54.2,7.9z M19.4,25.7c0.6-0.2,1.2-0.3,1.9-0.3c3.1,0,5.6,2.1,5.6,4.7c0,0.5-0.1,1.1-0.3,1.6c0,0,0,0.2,0,0.2
		h-6.2c-0.8,0-1.5-0.8-1.5-1.5v-4.7C18.9,25.7,19.3,25.7,19.4,25.7z M26.7,7.9C26.9,8.5,27,9.1,27,9.8c0,3.1-2.5,5.6-5.6,5.6
		c-0.7,0-1.3-0.1-1.9-0.3c-0.2-0.1-0.5-0.1-0.5,0V9.2c0-0.8,0.7-1.3,1.5-1.3L26.7,7.9C26.7,7.9,26.7,7.9,26.7,7.9z"/>
</g>
</svg>
