<?xml version="1.0" encoding="utf-8"?>
<!-- Generator: Adobe Illustrator 19.0.0, SVG Export Plug-In . SVG Version: 6.00 Build 0)  -->
<svg version="1.1" id="图层_1" xmlns="http://www.w3.org/2000/svg" xmlns:xlink="http://www.w3.org/1999/xlink" x="0px" y="0px"
	 viewBox="0 0 20 20" style="enable-background:new 0 0 20 20;" xml:space="preserve">
<style type="text/css">
	.st0{fill:#FFC183;}
</style>
<path id="XMLID_620_" class="st0" d="M5.1,15.9c0.7-0.3,1.7-0.1,2.4-0.1c0.8,0,1.8-0.2,2-0.9C9.9,14,9.2,13,9.8,12.4
	c0.6-0.6,1.7,0,2.4-0.3c1.4-0.6,0.5-3.4,1.9-3.8c0.5-0.2,1,0.1,1.6,0.1c1-0.1,1.5-1.5,1.5-2.5C17.2,4.9,17,4,17.3,3H4.7
	C4,3,2.8,3.7,2.8,4.4v14C4.1,17.6,4.2,16.4,5.1,15.9z"/>
</svg>
