<?xml version="1.0" encoding="utf-8"?>
<!-- Generator: Adobe Illustrator 19.0.0, SVG Export Plug-In . SVG Version: 6.00 Build 0)  -->
<svg version="1.1" id="图层_1" xmlns="http://www.w3.org/2000/svg" xmlns:xlink="http://www.w3.org/1999/xlink" x="0px" y="0px"
	 viewBox="0 0 20 20" style="enable-background:new 0 0 20 20;" xml:space="preserve">
<style type="text/css">
	.st0{fill:#4D4D4D;}
</style>
<g id="XMLID_293_">
	<path id="XMLID_297_" class="st0" d="M14.1,7.8h-1.5c0-1.5-1.2-2.7-2.7-2.7S7.3,6.3,7.3,7.8H5.9C5.6,7.8,5.4,8,5.4,8.3V15h9.4V8.3
		C14.6,8,14.4,7.8,14.1,7.8z M8.4,7.8C8.4,7,9.1,6.2,10,6.2c0.9,0,1.6,0.7,1.6,1.6H8.4z"/>
	<path id="XMLID_294_" class="st0" d="M10,20C4.5,20,0,15.5,0,10S4.5,0,10,0s10,4.5,10,10S15.5,20,10,20z M10,0.9
		C4.9,0.9,0.9,5,0.9,10S5,19.1,10,19.1s9.1-4.1,9.1-9.1S15.1,0.9,10,0.9z"/>
</g>
</svg>
