<?xml version="1.0" encoding="utf-8"?>
<!-- Generator: Adobe Illustrator 19.0.0, SVG Export Plug-In . SVG Version: 6.00 Build 0)  -->
<svg version="1.1" id="图层_1" xmlns="http://www.w3.org/2000/svg" xmlns:xlink="http://www.w3.org/1999/xlink" x="0px" y="0px"
	 viewBox="-419 221 120 120" style="enable-background:new -419 221 120 120;" xml:space="preserve">
<style type="text/css">
	.st0{fill:#486987;}
</style>
<path id="XMLID_69_" class="st0" d="M-357.7,336.7c-0.1,0-0.1,0-0.2,0h-0.5h-0.7c-2.2,0-4.2-0.7-6.1-1.6l-38.9-22.4
	c-1.6-1.1-2.9-2.6-4-4.6c-1.3-2.2-1.9-4.5-1.9-6.8v-43.1c0-2.3,0.6-4.6,1.9-6.7c1-1.7,2.6-3.4,4.5-4.7l37.7-21.7
	c2.2-1.1,4.5-1.7,6.9-1.7c0.2,0,0.6,0,0.8,0h0.1c0.1,0,0.2,0,0.3,0c2.4,0,4.6,0.6,6.8,1.6l1.4,0.8l36.3,20.9
	c1.6,1.1,2.9,2.5,4.2,4.7c1.3,2.3,1.3,4.7,1.3,6.7V301c0,0.6-0.4,1-1,1c-0.6,0-1-0.4-1-1v-42.8c0-2.2-0.1-4-1-5.7
	c-1.1-1.9-2.1-3.1-3.5-4l-36.5-20.9l-1.3-0.8c-1.8-0.9-3.8-1.4-5.8-1.4h-0.3c-0.3,0-0.6,0-0.8,0c-2,0-4,0.5-5.9,1.4l-1.3,0.7
	l-36.3,21c-1.6,1.1-3,2.5-3.9,4c-1.1,1.8-1.6,3.8-1.6,5.7v43.1c0,1.9,0.6,3.9,1.6,5.8c1,1.7,2.1,3,3.4,3.9l38.8,22.4
	c1.5,0.7,3.3,1.4,5.2,1.4h0.7h0.6c1.8,0,3.6-0.7,5.2-1.4l38.1-22.4c0.5-0.3,1.1-0.1,1.4,0.4s0.1,1.1-0.4,1.4l-38.2,22.5h-0.1
	C-353.5,335.9-355.5,336.7-357.7,336.7z"/>
<g>
	<path class="st0" d="M-366.2,275.2c-0.1,0.2-0.1,0.3-0.1,0.5l4.1,16.2l0,0.1c0.1,0.3,0.4,0.8,0.8,0.8h0.1l19.6-5.2
		c0.4-0.1,0.8-0.7,0.7-1.1l-4.1-16c-0.2-0.5-0.5-0.8-1-0.7l-7.9,1.9l-2.5-10.3c-0.3-0.8-0.8-0.7-1-0.7l-10.8,2.7
		c-0.5,0.2-0.8,0.5-0.7,1L-366.2,275.2z M-364.4,276.1l18-4.5l3.6,14.3l-18,4.6L-364.4,276.1z M-364.6,274.2l-2.4-9.2l9.2-2.4
		l2.4,9.2L-364.6,274.2z"/>
	<path class="st0" d="M-335,294.8L-335,294.8c-0.2-0.6-0.5-0.8-1-0.7l-23.5,5.5c-0.7-3.9-4.2-6.7-8.2-6.7c-0.5,0-1,0.1-1.4,0.2
		l-6.7-31.6c0-0.2-0.2-0.4-0.3-0.5l-7.3-4.5c-0.4-0.1-0.8,0-1.1,0.3c-0.3,0.3-0.2,0.9,0.1,1.2l6.9,4.2l6.7,31.4
		c-3.2,1.2-5.4,4.3-5.4,7.8c0,4.6,3.7,8.4,8.3,8.4c4.6,0,8.4-3.7,8.4-8.4l23.6-5.5c0.4,0,0.6-0.1,0.6-0.3
		C-335,295.4-334.9,295.2-335,294.8z M-361,301.6c0,3.7-3,6.8-6.8,6.8c-3.7,0-6.8-3.1-6.8-6.8s3.1-6.8,6.8-6.8S-361,297.9-361,301.6
		z"/>
</g>
</svg>
