<?xml version="1.0" encoding="utf-8"?>
<!-- Generator: Adobe Illustrator 19.0.0, SVG Export Plug-In . SVG Version: 6.00 Build 0)  -->
<svg version="1.1" id="图层_1" xmlns="http://www.w3.org/2000/svg" xmlns:xlink="http://www.w3.org/1999/xlink" x="0px" y="0px"
	 viewBox="0 0 18 18" style="enable-background:new 0 0 18 18;" xml:space="preserve">
<style type="text/css">
	.st0{fill:#334C65;}
</style>
<path id="XMLID_68_" class="st0" d="M15.2,1H6.2C5.1,1,4,1.9,4,3.2V6c0,0.3,0.2,0.5,0.5,0.5S5,6.3,5,6V3.2C5,2.5,5.6,2,6.2,2h8.9
	C15.8,2,16,2.5,16,3.2v10.2c0,0.7-0.2,1.6-0.8,1.6H6.2C5.6,15,5,14.1,5,13.4v-2.5c0-0.3-0.2-0.5-0.5-0.5S4,10.6,4,10.9v2.5
	C4,14.7,5.1,16,6.2,16h8.9c1.2,0,1.8-1.3,1.8-2.6V3.2C17,1.9,16.3,1,15.2,1z"/>
<path id="XMLID_227_" class="st0" d="M7.1,11.9c-0.2,0.2-0.2,0.5,0,0.7c0.1,0.1,0.2,0.1,0.4,0.1s0.3,0,0.4-0.1l3.7-3.7
	c0.2-0.2,0.2-0.5,0-0.7L7.9,4.6c-0.2-0.2-0.5-0.2-0.7,0S7,5.1,7.1,5.3L9.9,8H1C0.7,8,0.5,8.2,0.5,8.5S0.7,9,1,9h9L7.1,11.9z"/>
</svg>
