<?xml version="1.0" encoding="utf-8"?>
<!-- Generator: Adobe Illustrator 19.0.0, SVG Export Plug-In . SVG Version: 6.00 Build 0)  -->
<svg version="1.1" id="图层_1" xmlns="http://www.w3.org/2000/svg" xmlns:xlink="http://www.w3.org/1999/xlink" x="0px" y="0px"
	 viewBox="0 0 20 20" style="enable-background:new 0 0 20 20;" xml:space="preserve">
<style type="text/css">
	.st0{fill:#344D67;}
</style>
<path id="XMLID_4752_" class="st0" d="M-15.5,16c-2.1,0-4.4-1.9-5.9-3.8c-1.8-2.2-3.5-5.7-2.6-8.3c0.1-0.2,1.3-2.2,3.4-1.7
	c0,0,0,0,0,0c0.1,0,0.3,0,0.6,0.2c0.3,0.2,0.4,0.5,0.5,0.9l0.5,2.9c0,0.2,0,0.4-0.2,0.5l-1.3,0.9c0.2,0.8,1,2.9,3,4.1l1.1-0.8
	c0.1-0.1,0.3-0.1,0.5-0.1l2.9,1.2c0.3,0.1,0.8,0.6,0.7,1.5c0,0-0.1,2-2.6,2.6C-15.2,15.9-15.3,16-15.5,16z M-21.3,3.1
	c-1.1,0-1.8,1.2-1.9,1.2c-0.7,2,0.7,5.1,2.5,7.3c1.8,2.2,3.9,3.6,5.4,3.4c1.8-0.4,1.8-1.7,1.8-1.7c0-0.3-0.1-0.4-0.1-0.5l-2.7-1.1
	l-1.1,0.8c-0.2,0.1-0.4,0.1-0.5,0c-3.1-1.7-3.8-5.1-3.8-5.2c0-0.2,0-0.4,0.2-0.5l1.3-0.9l-0.4-2.6c0-0.2-0.1-0.2-0.1-0.2
	c-0.1,0-0.1,0-0.2,0C-21,3.1-21.1,3.1-21.3,3.1z"/>
<g id="XMLID_4826_">
	<g id="XMLID_4833_">
		<line id="XMLID_4835_" x1="4.3" y1="6" x2="15.7" y2="6"/>
		<rect id="XMLID_4834_" x="4.3" y="5.4" width="11.4" height="1.1"/>
	</g>
	<g id="XMLID_4830_">
		<line id="XMLID_4832_" x1="4.3" y1="10.5" x2="15.7" y2="10.5"/>
		<rect id="XMLID_4831_" x="4.3" y="9.9" width="11.4" height="1.1"/>
	</g>
	<g id="XMLID_4827_">
		<line id="XMLID_4829_" x1="4.3" y1="15" x2="15.7" y2="15"/>
		<rect id="XMLID_4828_" x="4.3" y="14.5" width="11.4" height="1.1"/>
	</g>
</g>
</svg>
