<?xml version="1.0" encoding="utf-8"?>
<!-- Generator: Adobe Illustrator 19.0.0, SVG Export Plug-In . SVG Version: 6.00 Build 0)  -->
<svg version="1.1" id="图层_1" xmlns="http://www.w3.org/2000/svg" xmlns:xlink="http://www.w3.org/1999/xlink" x="0px" y="0px"
	 viewBox="0 0 30 30" style="enable-background:new 0 0 30 30;" xml:space="preserve">
<path id="XMLID_42_" d="M24.6,5.7c-0.1-0.1-0.2-0.2-0.3-0.2c-1.3-0.5-2.6-0.9-4-1.1c0-0.2-0.1-0.4-0.3-0.5c-0.1,0-0.1,0-0.2,0
	c-0.2-0.4-0.3-0.8-0.5-1.1c0-0.2-0.1-0.4-0.2-0.5c-0.4-0.6-1.1-0.9-1.9-0.8c-0.9,0.1-4.5,0-4.8,0c-0.3,0-1.4-0.1-1.8,0.6
	c0,0,0,0.1-0.1,0.1c-0.3,0.4-0.8,1.1-1,1.8C9.3,4,9.2,4.2,9.2,4.4c-1,0.2-2,0.4-2.9,0.7C6.2,5.1,6.1,5.2,6,5.3
	c-2.2,4.2-3.3,9.1-3.3,14.3c0,1.3,0.3,2.6,0.5,4C3.3,24.8,3,26,4,27.2c0,0,0,0,0,0c0,0-0.2,0-0.2,0c-0.1,0.3,0,0.5,0.2,0.6
	c0.8,0.2,1.5,0.3,2.1,0.3c1.3,0,1.9-0.4,2-0.4c0,0,0,0,0-0.1c0,0.6,0,1,0,1.1c0,0.2,0.2,0.4,0.4,0.5c1.4,0.2,2.9,0.4,4.3,0.5
	c0.9,0.1,1.8,0.1,2.8,0.1c2.4,0,4.7-0.2,7-0.6c0.2,0,0.4-0.3,0.4-0.5L23,27.1c0.3,0.1,0.8,0.2,1.4,0.2c0.5,0,1.1-0.1,1.7-0.2
	c0.1,0.1,0.1,0.1,0.2,0.1c0,0,0.1,0,0.1,0c0.2,0,0.4-0.2,0.5-0.4c0.3-1.2,0.5-2.5,0.6-3.7c0.1-1.1,0.2-2.3,0.2-3.4
	C27.7,14.6,26.6,9.8,24.6,5.7z M19,4.8c-0.3,0.7-0.8,1.8-1.3,2.6c-0.1-0.4-0.2-0.8-0.4-1.1c-0.1-0.1-0.1-0.2-0.2-0.3
	c0.6-0.5,1.2-1.1,1.7-1.8C18.9,4.4,19,4.6,19,4.8z M12.3,2.5C12.3,2.5,12.3,2.5,12.3,2.5c0.2,0,4,0.1,5,0c0.3,0,0.5,0,0.7,0.2
	c0,0,0,0,0,0c0.1,0.1,0.1,0.2,0.3,0.5c0,0.1,0,0.2-0.1,0.3c-0.5,0.8-1.2,1.5-2,2.1c-0.1,0-0.2,0.1-0.3,0.2c-0.5,0.4-0.9,0.6-1.1,0.8
	c-0.6-0.5-2.3-1.7-3.1-3.2c-0.2-0.3-0.2-0.5-0.2-0.6c0-0.1,0.1-0.1,0.1-0.2c0.1,0,0.3-0.1,0.5-0.1C12.1,2.5,12.2,2.5,12.3,2.5z
	 M10.7,3.7c0,0.1,0,0.1,0.1,0.1c0.4,0.8,1.1,1.5,1.7,2c-0.1,0.1-0.2,0.2-0.3,0.4C12,6.6,11.9,7,11.8,7.4c-0.5-0.9-1.1-2.1-1.4-2.8
	c0,0,0,0,0,0C10.4,4.3,10.5,4,10.7,3.7z M23.1,26.1c-0.1-0.8-0.2-1.7-0.3-2.5l-0.1-1.9c0-0.1,0-0.2-0.1-0.2
	c-0.1-1.2-0.1-2.4-0.1-3.6c0-2.5,0.1-4.9,0.3-7c0-0.3-0.2-0.5-0.4-0.5c-0.3,0-0.5,0.2-0.5,0.4c-0.2,2.2-0.3,4.7-0.3,7.1
	c0,2,0.1,3.9,0.2,5.8l0.2,4.7c-3,0.5-6,0.7-9.1,0.4c-1.3-0.1-2.6-0.2-3.8-0.4c-0.1-1.4-0.2-5.8-0.2-6.9c0-0.2-0.1-0.3-0.2-0.4
	c0-0.8,0-1.6,0-2.4c0-2.5-0.1-5-0.3-7.1c0-0.3-0.3-0.5-0.5-0.4c-0.3,0-0.5,0.3-0.4,0.5c0.2,2.1,0.3,4.6,0.3,7c0,3-0.2,5.8-0.5,8.3
	c-0.4,0.1-1.3,0.3-2.8,0c-0.3-1.1-0.5-2.3-0.6-3.4c-0.1-1.3-0.2-2.6-0.2-3.8c0-5,1.1-9.7,3.1-13.7c0.9-0.3,1.8-0.5,2.8-0.7
	c0.5,1,1.4,2.9,2.2,3.7c0.1,0.1,0.2,0.2,0.4,0.2c0.1,0,0.2,0,0.3-0.1c0.2-0.1,0.3-0.3,0.2-0.5c0-0.4,0.3-1.6,0.6-2
	c0.7,0.6,1.2,1,1.3,1c0.1,0.1,0.2,0.1,0.3,0.1c0.1,0,0.2,0,0.3-0.1c0.1,0,0.6-0.4,1.4-0.9c0.3,0.5,0.6,1.6,0.5,2
	c0,0.2,0,0.4,0.2,0.5c0.1,0.1,0.2,0.1,0.3,0.1c0.1,0,0.3-0.1,0.4-0.2c0.8-0.8,1.7-2.7,2.2-3.7c1.3,0.3,2.6,0.6,3.8,1.1
	c1.9,3.9,2.9,8.5,2.9,13.3c0,1.1-0.1,2.2-0.2,3.3c-0.1,1-0.3,2.1-0.5,3.1C24.5,26.4,23.5,26.2,23.1,26.1z"/>
</svg>
