<?xml version="1.0" encoding="utf-8"?>
<!-- Generator: Adobe Illustrator 19.0.0, SVG Export Plug-In . SVG Version: 6.00 Build 0)  -->
<svg version="1.1" id="图层_1" xmlns="http://www.w3.org/2000/svg" xmlns:xlink="http://www.w3.org/1999/xlink" x="0px" y="0px"
	 viewBox="0 0 30 30" style="enable-background:new 0 0 30 30;" xml:space="preserve">
<path id="XMLID_38_" d="M25.6,13.6c0.7-1.5,1.1-3.2,1.1-4.9c0-1.4-0.3-2.8-0.8-4.1c-0.1-0.3-0.4-0.4-0.6-0.3
	c-0.3,0.1-0.4,0.4-0.3,0.6c0.5,1.2,0.7,2.4,0.7,3.7c0,1.6-0.4,3.1-1,4.5c-4.7,0.6-8.5,4-9.9,8.7c-1.4-4.6-5.2-7.9-9.8-8.6
	c-0.7-1.4-1.1-2.9-1.1-4.5c0-1.3,0.2-2.5,0.7-3.7c0.1-0.3,0-0.5-0.3-0.6c-0.3-0.1-0.5,0-0.6,0.3C3.2,5.9,2.9,7.2,2.9,8.7
	c0,1.7,0.4,3.3,1.1,4.7c-1.7,2.3-2.6,5-2.6,7.9c0,0.9,0.1,1.8,0.3,2.7c0,0.2,0.2,0.3,0.4,0.4C3.8,24.8,5.6,25,7.4,25
	c2.5,0,5-0.4,7.4-1.2c2.4,0.8,4.9,1.2,7.4,1.2c1.8,0,3.6-0.2,5.3-0.6c0.2,0,0.3-0.2,0.4-0.4c0.2-0.9,0.3-1.8,0.3-2.7
	C28.1,18.5,27.2,15.8,25.6,13.6z M2.6,23.5c-0.1-0.7-0.2-1.4-0.2-2.2c0-2.6,0.8-5.1,2.3-7.2c4.5,0.6,8.2,4.1,9.3,8.8
	C10.4,24.1,6.4,24.3,2.6,23.5z M26.9,23.5c-3.8,0.9-7.8,0.7-11.4-0.5c1.1-4.7,4.8-8.2,9.3-8.8c1.5,2.1,2.3,4.5,2.3,7.2
	C27.1,22,27,22.7,26.9,23.5z"/>
</svg>
