<?xml version="1.0" encoding="utf-8"?>
<!-- Generator: Adobe Illustrator 19.0.0, SVG Export Plug-In . SVG Version: 6.00 Build 0)  -->
<svg version="1.1" id="图层_1" xmlns="http://www.w3.org/2000/svg" xmlns:xlink="http://www.w3.org/1999/xlink" x="0px" y="0px"
	 viewBox="-419 221 120 120" style="enable-background:new -419 221 120 120;" xml:space="preserve">
<style type="text/css">
	.st0{fill:#486987;}
</style>
<g>
	<path class="st0" d="M-309.1,252.7c-1.3-2.2-2.6-3.6-4.2-4.7l-36.3-20.9l-1.4-0.8c-2.2-1-4.4-1.6-6.8-1.6c-0.1,0-0.2,0-0.3,0h-0.1
		c-0.2,0-0.6,0-0.8,0c-2.4,0-4.7,0.6-6.9,1.7l-37.7,21.7c-1.9,1.3-3.5,3-4.5,4.7c-1.3,2.1-1.9,4.4-1.9,6.7v43.1
		c0,2.3,0.6,4.6,1.9,6.8c1.1,2,2.4,3.5,4,4.6l38.9,22.4c1.9,0.9,3.9,1.6,6.1,1.6h0.7h0.5c0.1,0,0.1,0,0.2,0c2.2,0,4.2-0.8,6-1.4h0.1
		l38.2-22.5c0.5-0.3,0.7-0.9,0.4-1.4s-0.9-0.7-1.4-0.4l-38.1,22.4c-1.6,0.7-3.4,1.4-5.2,1.4h-0.6h-0.7c-1.9,0-3.7-0.7-5.2-1.4
		l-38.8-22.4c-1.3-0.9-2.4-2.2-3.4-3.9c-1-1.9-1.6-3.9-1.6-5.8v-43.1c0-1.9,0.5-3.9,1.6-5.7c0.9-1.5,2.3-2.9,3.9-4l36.3-21l1.3-0.7
		c1.9-0.9,3.9-1.4,5.9-1.4c0.2,0,0.5,0,0.8,0h0.3c2,0,4,0.5,5.8,1.4l1.3,0.8l36.5,20.9c1.4,0.9,2.4,2.1,3.5,4c0.9,1.7,1,3.5,1,5.7
		v42.8c0,0.6,0.4,1,1,1c0.6,0,1-0.4,1-1v-42.9C-307.8,257.4-307.8,255-309.1,252.7z"/>
	<path class="st0" d="M-357.9,280.1c6.6,0,12-5.4,12-12c0-6.6-5.4-12-12-12c-6.6,0-12,5.4-12,12
		C-369.9,274.8-364.5,280.1-357.9,280.1z M-361.5,258.9c1.1-0.4,2.4-0.7,3.7-0.7c3.9,0,7.4,2.4,9,5.9c-6.1,0.5-10.1,0-11.7-1.5
		c-0.9-0.8-1-1.9-1-3C-361.5,259.4-361.5,259.1-361.5,258.9z M-363.6,260c-0.1,1-0.3,1.8-0.9,2.4c-0.7,0.8-1.6,1.2-2.4,1.4
		C-366.1,262.3-364.9,261-363.6,260z M-367.6,266c1-0.1,3.2-0.5,4.7-2.3c0.1-0.1,0.2-0.3,0.3-0.4c0.2,0.3,0.4,0.5,0.7,0.8
		c1.6,1.5,4.5,2.2,8.9,2.2c1.4,0,3.1-0.1,4.8-0.2c0.1,0.7,0.2,1.4,0.2,2.1c0,5.5-4.5,9.9-9.9,9.9c-5.4,0-9.9-4.5-9.9-9.9
		C-367.8,267.4-367.7,266.7-367.6,266z"/>
	<path class="st0" d="M-342.6,300.7c0,0.6,0.5,1,1,1h5.4c0.6,0,1-0.5,1-1v-0.4c0-9-5.4-17.2-13.8-20.7c-0.3-0.1-0.5-0.1-0.8,0
		c-2.7,1.2-5.3,1.7-7.9,1.7c-2.8,0-5.5-0.6-8-1.8c-0.3-0.1-0.6-0.1-0.8,0c-8.5,3.5-13.9,11.7-13.9,20.8v0.4c0,0.6,0.5,1,1,1h6.6
		c0.5,0,1-0.4,1-1c0,0,0.1-2.7,1.3-5.3c0.2-0.5,0-1.1-0.5-1.3c-0.5-0.2-1.1,0-1.3,0.5c-0.8,2-1.2,3.9-1.3,5.1h-4.7
		c0.2-7.9,5-15,12.3-18.2c2.7,1.2,5.5,1.8,8.4,1.8c2.8,0,5.5-0.6,8.3-1.7c7.2,3.2,11.8,10.2,12.1,18.1h-4.4
		C-342.2,299.7-342.6,300.2-342.6,300.7z"/>
	<path class="st0" d="M-370.4,300.8c0,0.6,0.5,1,1,1h24.7c0.6,0,1-0.5,1-1c0-0.2,0-3.7-1.3-6c-0.3-0.6-0.9-0.8-1.4-0.5
		s-0.7,0.9-0.4,1.4c0.6,1.2,0.9,3,1,4.1h-23.6C-370,299.8-370.4,300.3-370.4,300.8z"/>
	<path class="st0" d="M-362.6,276c0.1,0.1,1.8,0.8,4,0.8c1.2,0,2.5-0.2,3.9-0.9c0.5-0.3,0.7-0.9,0.4-1.4c-0.3-0.5-0.9-0.7-1.4-0.4
		c-3,1.5-6,0.1-6.1,0.1c-0.5-0.2-1.1,0-1.4,0.5C-363.3,275.1-363.1,275.7-362.6,276z"/>
	<path class="st0" d="M-356.1,287.8v-2.1c0-1.3-1-2.3-2.3-2.3s-2.3,1-2.3,2.3v2.1c0,1.3,1,2.3,2.3,2.3
		C-357.2,290.1-356.1,289.1-356.1,287.8z M-358.7,287.8v-2.1c0-0.1,0.1-0.3,0.3-0.3c0.2,0,0.3,0.1,0.3,0.3v2.1
		C-358.2,288.1-358.7,288.1-358.7,287.8z"/>
	<path class="st0" d="M-361.8,299.4c0.1,0,0.2,0.1,0.4,0.1c0.4,0,0.8-0.2,0.9-0.6l1.8-4.7l1.8,4.5c0.2,0.5,0.8,0.8,1.3,0.6
		c0.5-0.2,0.8-0.8,0.6-1.3l-2.7-6.9c-0.2-0.4-0.5-0.6-0.9-0.6c-0.4,0-0.8,0.3-0.9,0.6l-2.8,7.1
		C-362.6,298.6-362.3,299.2-361.8,299.4z"/>
</g>
</svg>
