<?xml version="1.0" encoding="utf-8"?>
<!-- Generator: Adobe Illustrator 19.0.0, SVG Export Plug-In . SVG Version: 6.00 Build 0)  -->
<svg version="1.1" id="图层_1" xmlns="http://www.w3.org/2000/svg" xmlns:xlink="http://www.w3.org/1999/xlink" x="0px" y="0px"
	 viewBox="0 0 20 20" style="enable-background:new 0 0 20 20;" xml:space="preserve">
<style type="text/css">
	.st0{fill:#F7931E;}
</style>
<g id="XMLID_5181_">
	<g id="XMLID_111_">
		<path id="XMLID_112_" class="st0" d="M7.1,6.3l8.2,0c0.2,0,0.4-0.2,0.4-0.4c0-0.2-0.2-0.4-0.4-0.4l-8.2,0c-0.2,0-0.4,0.2-0.4,0.4
			C6.7,6.1,6.9,6.3,7.1,6.3z M4.9,5.2H4.8c-0.4,0-0.7,0.3-0.7,0.7V6c0,0.4,0.3,0.7,0.7,0.7h0.1c0.4,0,0.7-0.3,0.7-0.7V5.9
			C5.6,5.5,5.3,5.2,4.9,5.2z M4.9,8.2H4.8c-0.4,0-0.7,0.3-0.7,0.7V9c0,0.4,0.3,0.7,0.7,0.7h0.1c0.4,0,0.7-0.3,0.7-0.7V8.9
			C5.6,8.5,5.3,8.2,4.9,8.2z M4.9,11.3H4.8c-0.4,0-0.7,0.3-0.7,0.7v0.1c0,0.4,0.3,0.7,0.7,0.7h0.1c0.4,0,0.7-0.3,0.7-0.7v-0.1
			C5.6,11.6,5.3,11.3,4.9,11.3z M4.9,14.3H4.8c-0.4,0-0.7,0.3-0.7,0.7v0.1c0,0.4,0.3,0.7,0.7,0.7h0.1c0.4,0,0.7-0.3,0.7-0.7V15
			C5.6,14.6,5.3,14.3,4.9,14.3z M15.3,8.6l-8.2,0C6.9,8.6,6.7,8.8,6.7,9c0,0.2,0.2,0.4,0.4,0.4l8.2,0c0.2,0,0.4-0.2,0.4-0.4
			S15.5,8.6,15.3,8.6z M15.3,11.6l-8.2,0c-0.2,0-0.4,0.2-0.4,0.4c0,0.2,0.2,0.4,0.4,0.4l8.2,0c0.2,0,0.4-0.2,0.4-0.4
			C15.7,11.8,15.5,11.6,15.3,11.6z M15.3,14.7l-8.2,0c-0.2,0-0.4,0.2-0.4,0.4c0,0.2,0.2,0.4,0.4,0.4l8.2,0c0.2,0,0.4-0.2,0.4-0.4
			C15.7,14.8,15.5,14.7,15.3,14.7z"/>
	</g>
</g>
<path id="XMLID_101_" class="st0" d="M15,1.8h-0.8v0.3c0-0.9-0.4-1.3-1.3-1.3H7c-0.7,0-1.4,0-1.6,1H4.8c-1.5,0-2.7,1-2.7,2.5v12
	c0,1.5,1.2,2.5,2.7,2.5H15c1.5,0,2.2-1,2.2-2.5v-12C17.1,2.8,16.4,1.8,15,1.8z M7,1.8h5.9c0.4,0,0.7,0.1,0.7,0.5s-0.3,0.5-0.7,0.5H7
	c-0.4,0-0.7-0.1-0.7-0.5S6.6,1.8,7,1.8z M16.1,16.3c0,0.9-0.3,1.5-1.2,1.5H4.8c-0.9,0-1.7-0.6-1.7-1.5v-12c0-0.9,0.8-1.5,1.7-1.5
	h0.5c0.2,1,0.8,1,1.6,1h5.9c0.9,0,1.3-0.7,1.3-1.7v0.7H15c0.9,0,1.2,0.6,1.2,1.5V16.3z"/>
<rect id="XMLID_1_" x="13.7" y="1.8" class="st0" width="1" height="1"/>
</svg>
