<?xml version="1.0" encoding="utf-8"?>
<!-- Generator: Adobe Illustrator 19.0.0, SVG Export Plug-In . SVG Version: 6.00 Build 0)  -->
<svg version="1.1" id="图层_1" xmlns="http://www.w3.org/2000/svg" xmlns:xlink="http://www.w3.org/1999/xlink" x="0px" y="0px"
	 viewBox="0 0 120 120" style="enable-background:new 0 0 120 120;" xml:space="preserve">
<style type="text/css">
	.st0{fill:#486987;}
</style>
<g id="XMLID_600_">
	<g id="XMLID_585_">
		<path id="XMLID_71_" class="st0" d="M76.8,90.6c-0.3,0-0.6-0.1-0.8-0.4c-5.2-7.3-7.1-10-7.7-11.1l0,0l-4.8-7c-8.1,2.8-17,0-22-7.2
			c-6-8.7-3.8-20.5,4.9-26.5c8.7-6,20.6-3.8,26.5,4.9c4.9,7.1,4.4,16.5-1.1,23.1l12.5,18.1c0.2,0.2,0.2,0.5,0.2,0.7
			s-0.2,0.5-0.4,0.6l-6.6,4.5C77.2,90.5,77,90.6,76.8,90.6z M70,78.1c0.5,0.8,4.3,6.3,7.1,10.1l5-3.4L69.7,66.9
			c-0.3-0.4-0.2-0.9,0.1-1.2c5.4-5.9,6-14.6,1.5-21.2c-5.3-7.7-16-9.7-23.7-4.4c-7.7,5.3-9.7,16-4.4,23.7c4.5,6.6,12.9,9.1,20.3,6.2
			c0.4-0.2,0.9,0,1.2,0.4l5.2,7.6C70,78,70,78.1,70,78.1z"/>
		<path id="XMLID_68_" class="st0" d="M57.3,66.7c-4.1,0-8.1-1.9-10.5-5.5c-4-5.8-2.5-13.8,3.3-17.8c2.8-1.9,6.2-2.7,9.6-2
			c3.4,0.6,6.3,2.5,8.2,5.3c1.9,2.8,2.7,6.2,2,9.6c-0.6,3.4-2.5,6.3-5.3,8.2L64,63.6l0.6,0.8C62.3,65.9,59.8,66.7,57.3,66.7z
			 M57.3,43.1c-2.2,0-4.3,0.7-6.1,1.9c-4.9,3.4-6.1,10.1-2.8,15c3.4,4.9,10.1,6.1,15,2.8c2.4-1.6,4-4.1,4.5-6.9s-0.1-5.7-1.7-8.1
			c-1.6-2.4-4.1-4-6.9-4.5C58.6,43.2,57.9,43.1,57.3,43.1z"/>
	</g>
	<path id="XMLID_67_" class="st0" d="M61.3,116.7c-0.1,0-0.1,0-0.2,0l-0.5,0l-0.7,0c-2.2,0-4.2-0.7-6.1-1.6L14.9,92.7
		c-1.6-1.1-2.9-2.6-4-4.6C9.6,85.9,9,83.6,9,81.3V38.2c0-2.3,0.6-4.6,1.9-6.7c1-1.7,2.6-3.4,4.5-4.7L53.1,5.1
		C55.3,4,57.6,3.4,60,3.4c0.2,0,0.6,0,0.8,0l0.1,0c0.1,0,0.2,0,0.3,0c2.4,0,4.6,0.6,6.8,1.6l1.4,0.8l36.3,20.9
		c1.6,1.1,2.9,2.5,4.2,4.7c1.3,2.3,1.3,4.7,1.3,6.7V81c0,0.6-0.4,1-1,1s-1-0.4-1-1V38.2c0-2.2-0.1-4-1-5.7c-1.1-1.9-2.1-3.1-3.5-4
		L68.2,7.6l-1.3-0.8c-1.8-0.9-3.8-1.4-5.8-1.4l-0.3,0c-0.3,0-0.6,0-0.8,0c-2,0-4,0.5-5.9,1.4l-1.3,0.7L16.5,28.5
		c-1.6,1.1-3,2.5-3.9,4c-1.1,1.8-1.6,3.8-1.6,5.7v43.1c0,1.9,0.6,3.9,1.6,5.8c1,1.7,2.1,3,3.4,3.9l38.8,22.4
		c1.5,0.7,3.3,1.4,5.2,1.4l0.7,0l0.6,0c1.8,0,3.6-0.7,5.2-1.4l38.1-22.4c0.5-0.3,1.1-0.1,1.4,0.4c0.3,0.5,0.1,1.1-0.4,1.4
		l-38.2,22.5c0,0-0.1,0-0.1,0C65.5,115.9,63.5,116.7,61.3,116.7z"/>
</g>
</svg>
