<?xml version="1.0" encoding="utf-8"?>
<!-- Generator: Adobe Illustrator 19.0.0, SVG Export Plug-In . SVG Version: 6.00 Build 0)  -->
<svg version="1.1" id="图层_1" xmlns="http://www.w3.org/2000/svg" xmlns:xlink="http://www.w3.org/1999/xlink" x="0px" y="0px"
	 viewBox="0 0 25 25" style="enable-background:new 0 0 25 25;" xml:space="preserve">
<g id="XMLID_532_">
	<path id="XMLID_10_" d="M21.6,5.1c-0.1,0-0.2,0-0.3-0.1c-0.2-0.2-0.3-0.5-0.1-0.7L22,3.3l-1.4-1.1l-0.8,1.1
		c-0.2,0.2-0.5,0.3-0.7,0.1c-0.2-0.2-0.3-0.5-0.1-0.7l1.1-1.4c0.2-0.2,0.5-0.3,0.7-0.1L23,2.8c0.1,0.1,0.2,0.2,0.2,0.3
		c0,0.1,0,0.3-0.1,0.4L22,4.9C21.9,5.1,21.8,5.1,21.6,5.1z"/>
	<path id="XMLID_9_" d="M13.1,17.6c-0.1,0-0.2,0-0.3-0.1l-3.6-2.8C9,14.6,8.9,14.3,9.1,14c0.2-0.2,0.5-0.3,0.7-0.1l3.6,2.8
		c0.2,0.2,0.3,0.5,0.1,0.7C13.4,17.6,13.3,17.6,13.1,17.6z"/>
	<path id="XMLID_6_" d="M9.1,19.1c-0.1,0-0.2,0-0.3-0.1c-0.1-0.1-0.2-0.3-0.2-0.4l0.1-3.9c0-0.1,0-0.2,0.1-0.3l9.5-12.3
		C18.5,1.9,18.8,1.8,19,2l3.6,2.8c0.1,0.1,0.2,0.2,0.2,0.3c0,0.1,0,0.3-0.1,0.4l-9.5,12.3C13.2,17.9,13.1,18,13,18l-3.8,1.1
		C9.2,19.1,9.1,19.1,9.1,19.1z M9.7,14.9L9.6,18l2.9-0.9l9.1-11.8l-2.8-2.2l-8.6,11.2l0,0L9.7,14.9z"/>
	<path id="XMLID_5_" d="M11.5,9.1H6.8c-0.3,0-0.5-0.2-0.5-0.5s0.2-0.5,0.5-0.5h4.7c0.3,0,0.5,0.2,0.5,0.5S11.8,9.1,11.5,9.1z"/>
	<path id="XMLID_4_" d="M9.7,11.8H6.8c-0.3,0-0.5-0.2-0.5-0.5s0.2-0.5,0.5-0.5h2.9c0.3,0,0.5,0.2,0.5,0.5S10,11.8,9.7,11.8z"/>
	<path id="XMLID_3_" d="M18.8,23H5.2c-0.5,0-1-0.4-1-1V5.7c0-0.5,0.4-1,1-1h9.3c0.3,0,0.5,0.2,0.5,0.5s-0.2,0.5-0.5,0.5H5.2l0,16.3
		l13.6,0l0-10.8c0-0.3,0.2-0.5,0.5-0.5s0.5,0.2,0.5,0.5v10.9C19.7,22.6,19.3,23,18.8,23z"/>
	<path id="XMLID_2_" d="M8.1,14.3H6.8c-0.3,0-0.5-0.2-0.5-0.5s0.2-0.5,0.5-0.5h1.3c0.3,0,0.5,0.2,0.5,0.5S8.4,14.3,8.1,14.3z"/>
</g>
</svg>
