<?xml version="1.0" encoding="utf-8"?>
<!-- Generator: Adobe Illustrator 19.0.0, SVG Export Plug-In . SVG Version: 6.00 Build 0)  -->
<svg version="1.1" id="图层_1" xmlns="http://www.w3.org/2000/svg" xmlns:xlink="http://www.w3.org/1999/xlink" x="0px" y="0px"
	 viewBox="0 0 30 30" style="enable-background:new 0 0 30 30;" xml:space="preserve">
<style type="text/css">
	.st0{fill:#DD7D14;}
</style>
<g id="XMLID_4719_">
	<path id="XMLID_4730_" class="st0" d="M20.4,6.7H9.9c-0.3,0-0.4,0.1-0.4,0.4s0.1,0.4,0.4,0.4h10.5c0.3,0,0.4-0.1,0.4-0.4
		C20.8,7,20.6,6.7,20.4,6.7z"/>
	<path id="XMLID_4729_" class="st0" d="M20.4,9H9.9C9.6,9,9.5,9.1,9.5,9.4c0,0.3,0.1,0.4,0.4,0.4h10.5c0.3,0,0.4-0.1,0.4-0.4
		C20.8,9.1,20.6,9,20.4,9z"/>
	<path id="XMLID_4728_" class="st0" d="M20.4,11.3H9.9c-0.3,0-0.4,0.1-0.4,0.4c0,0.3,0.1,0.4,0.4,0.4h10.5c0.3,0,0.4-0.1,0.4-0.4
		C20.8,11.4,20.6,11.3,20.4,11.3z"/>
	<path id="XMLID_4727_" class="st0" d="M20.4,13.5H9.9c-0.3,0-0.4,0.1-0.4,0.4c0,0.3,0.1,0.4,0.4,0.4h10.5c0.3,0,0.4-0.1,0.4-0.4
		C20.8,13.7,20.6,13.5,20.4,13.5z"/>
	<path id="XMLID_4726_" class="st0" d="M20.4,15.7H9.9c-0.3,0-0.4,0.1-0.4,0.4c0,0.3,0.1,0.4,0.4,0.4h10.5c0.3,0,0.4-0.1,0.4-0.4
		C20.8,15.9,20.6,15.7,20.4,15.7z"/>
	<path id="XMLID_4725_" class="st0" d="M20.4,18H9.9c-0.3,0-0.4,0.1-0.4,0.4c0,0.3,0.1,0.4,0.4,0.4h10.5c0.3,0,0.4-0.1,0.4-0.4
		C20.8,18.1,20.6,18,20.4,18z"/>
	<path id="XMLID_4720_" class="st0" d="M28.3,21.7h-3V4c0-1.3-1.1-2.5-2.5-2.5H6.2H4H3.9H3.7C2.4,1.5,1.3,2.7,1.3,4v2.7
		c0,0.1,0.1,0.4,0.3,0.5c0.1,0.1,0.3,0.3,0.5,0.3l0,0h3v17.7c0,1.3,1.1,2.5,2.5,2.5c0,0,0,0,0.1,0c0,0,0,0,0.1,0h18.6
		c1.3,0,2.5-1.1,2.5-2.5v-2.7C29,22,28.7,21.7,28.3,21.7z M2.8,6V4C2.8,2.9,4,2.9,4,2.9l0,0c0.5,0,1.1,0.4,1.1,1.1v2H2.8z M8.8,22.5
		v2.7c0,0.5-0.4,1.1-1.1,1.1c0,0,0,0-0.1,0c0,0,0,0-0.1,0c-0.5,0-1.1-0.4-1.1-1.1V4c0-0.4-0.1-0.7-0.3-1.1h16.4
		c0.5,0,1.1,0.4,1.1,1.1v17.7H9.5C9.1,21.7,8.8,22,8.8,22.5z M27.5,25.2c0,0.5-0.4,1.1-1.1,1.1H10.1c0.1-0.3,0.3-0.7,0.3-1.1v-2
		h17.2V25.2z"/>
</g>
</svg>
