<?xml version="1.0" encoding="utf-8"?>
<!-- Generator: Adobe Illustrator 19.0.0, SVG Export Plug-In . SVG Version: 6.00 Build 0)  -->
<svg version="1.1" id="图层_1" xmlns="http://www.w3.org/2000/svg" xmlns:xlink="http://www.w3.org/1999/xlink" x="0px" y="0px"
	 viewBox="-419 221 120 120" style="enable-background:new -419 221 120 120;" xml:space="preserve">
<style type="text/css">
	.st0{fill:#344D67;}
</style>
<g>
	<path class="st0" d="M-309.1,252.4c-1.3-2.2-2.6-3.6-4.2-4.7l-36.3-20.9l-1.4-0.8c-2.2-1-4.4-1.6-6.8-1.6c-0.1,0-0.2,0-0.3,0h-0.1
		c-0.2,0-0.6,0-0.8,0c-2.4,0-4.7,0.6-6.9,1.7l-37.7,21.7c-1.9,1.3-3.5,3-4.5,4.7c-1.3,2.1-1.9,4.4-1.9,6.7v43.1
		c0,2.3,0.6,4.6,1.9,6.8c1.1,2,2.4,3.5,4,4.6l38.9,22.4c1.9,0.9,3.9,1.6,6.1,1.6h0.7h0.5c0.1,0,0.1,0,0.2,0c2.2,0,4.2-0.8,6-1.4h0.1
		l38.2-22.5c0.5-0.3,0.7-0.9,0.4-1.4s-0.9-0.7-1.4-0.4l-38.1,22.4c-1.6,0.7-3.4,1.4-5.2,1.4h-0.6h-0.7c-1.9,0-3.7-0.7-5.2-1.4
		L-403,312c-1.3-0.9-2.4-2.2-3.4-3.9c-1-1.9-1.6-3.9-1.6-5.8v-43.1c0-1.9,0.5-3.9,1.6-5.7c0.9-1.5,2.3-2.9,3.9-4l36.3-21l1.3-0.7
		c1.9-0.9,3.9-1.4,5.9-1.4c0.2,0,0.5,0,0.8,0h0.3c2,0,4,0.5,5.8,1.4l1.3,0.8l36.5,20.9c1.4,0.9,2.4,2.1,3.5,4c0.9,1.7,1,3.5,1,5.7
		V302c0,0.6,0.4,1,1,1c0.6,0,1-0.4,1-1v-42.9C-307.8,257.1-307.8,254.7-309.1,252.4z"/>
	<path class="st0" d="M-348.9,286.8c0.4,0,0.6-0.3,0.6-0.6v-9.3c0-0.4-0.1-0.8-0.2-1.2c-0.2-0.4-0.4-0.8-0.7-1
		c-0.3-0.3-0.7-0.5-1-0.7c-0.4-0.2-0.8-0.2-1.2-0.2c-0.4,0-0.8,0.1-1.2,0.2c-0.4,0.2-0.7,0.4-1,0.7c-0.3,0.3-0.5,0.7-0.7,1
		c-0.2,0.4-0.2,0.8-0.2,1.2V292c0,0.4,0.3,0.6,0.6,0.6c0.4,0,0.6-0.3,0.6-0.6v-15.2c0-0.3,0.1-0.5,0.1-0.7c0.1-0.2,0.2-0.5,0.4-0.6
		c0.2-0.2,0.4-0.3,0.6-0.4c0.2-0.1,0.5-0.1,0.7-0.1c0.3,0,0.5,0.1,0.7,0.1c0.2,0.1,0.4,0.2,0.6,0.4c0.2,0.2,0.3,0.4,0.4,0.6
		c0.1,0.2,0.1,0.5,0.1,0.7v9.3C-349.5,286.5-349.2,286.8-348.9,286.8z"/>
	<path class="st0" d="M-367.5,291C-367.5,291.1-367.5,291.1-367.5,291c0,0.1,0.1,0.2,0.1,0.2c0,0,0,0.1,0.1,0.1c0,0,0.1,0.1,0.1,0.1
		c0,0,0,0,0,0l10.5,5.7c1,0.8,1.6,1.5,1.8,2.2c0.3,0.7,0.3,1.5,0.3,2.6c0,0.4,0.3,0.6,0.6,0.6c0.4,0,0.6-0.3,0.6-0.6
		c0-1.1,0-2.1-0.3-3c-0.3-0.9-1-1.8-2.3-2.8c0,0,0,0,0,0c0,0,0,0,0,0l-10.1-5.5c0,0,0-0.1,0-0.1l0,0c0.1-0.4,0.3-0.9,0.6-1.2
		c0.3-0.3,0.7-0.5,1.2-0.5v0c0.1,0,0.3,0,0.4,0l6,1.7c0.3,0.1,0.7-0.1,0.8-0.4s-0.1-0.7-0.4-0.8l-6.1-1.7c0,0,0,0,0,0c0,0,0,0,0,0
		c-0.2-0.1-0.5-0.1-0.7-0.1v0c-0.9,0-1.6,0.4-2.1,0.9c-0.5,0.5-0.8,1.2-0.9,1.8l0,0c-0.1,0.2-0.1,0.5-0.1,0.7c0,0,0,0,0,0
		c0,0,0,0,0,0.1C-367.5,291-367.5,291-367.5,291z"/>
	<path class="st0" d="M-355.3,313.7L-355.3,313.7h21.8c0.4,0,0.6-0.3,0.6-0.6v0v-9c0-0.4-0.3-0.6-0.6-0.6h0h-21.8
		c-0.4,0-0.6,0.3-0.6,0.6v0v9C-355.9,313.4-355.7,313.7-355.3,313.7z M-354.7,304.7h20.6v7.7h-20.6V304.7z"/>
	<path class="st0" d="M-335.8,298.3c0,0.1,0,0.1,0,0.2h0v3.5c0,0.4,0.3,0.6,0.6,0.6c0.4,0,0.6-0.3,0.6-0.6v-3.4l1.7-6.2
		c0,0,0,0,0-0.1c0,0,0-0.1,0-0.1v-7.9c0-0.9-0.3-1.6-0.9-2.2l0,0c-0.6-0.6-1.4-0.9-2.3-0.9c-0.4,0-0.6,0.3-0.6,0.6
		c0,0.4,0.3,0.6,0.6,0.6c0.5,0,1,0.2,1.4,0.6l0,0c0.3,0.3,0.5,0.8,0.5,1.3v7.8L-335.8,298.3z"/>
	<path class="st0" d="M-343.7,286.8c0.4,0,0.6-0.3,0.6-0.6v-9.3c0-0.4-0.1-0.8-0.2-1.2c-0.2-0.4-0.4-0.8-0.7-1
		c-0.3-0.3-0.7-0.5-1-0.7c-0.4-0.2-0.8-0.2-1.2-0.2c-0.4,0-0.6,0.3-0.6,0.6c0,0.4,0.3,0.6,0.6,0.6c0.3,0,0.5,0.1,0.7,0.1
		c0.2,0.1,0.4,0.2,0.6,0.4c0.2,0.2,0.3,0.4,0.4,0.6c0.1,0.2,0.1,0.5,0.1,0.7v9.3C-344.4,286.5-344.1,286.8-343.7,286.8z"/>
	<path class="st0" d="M-338.6,289.3c0.4,0,0.6-0.3,0.6-0.6v-9.3c0-0.4-0.1-0.8-0.2-1.2c-0.2-0.4-0.4-0.7-0.7-1l0,0
		c-0.3-0.3-0.7-0.5-1-0.7v0l0,0c-0.4-0.2-0.8-0.2-1.2-0.2c-0.4,0-0.6,0.3-0.6,0.6c0,0.4,0.3,0.6,0.6,0.6c0.3,0,0.5,0.1,0.7,0.1v0
		c0.2,0.1,0.4,0.2,0.6,0.4l0,0c0.2,0.2,0.3,0.4,0.4,0.6c0.1,0.2,0.1,0.5,0.1,0.7v9.3C-339.2,289.1-339,289.3-338.6,289.3z"/>
	<path class="st0" d="M-375.6,265.6v10.1h1.2v-4.2c0.5,0.8,1.2,1.1,2.1,1.1c1,0,1.7-0.3,2.3-1c0.6-0.7,0.9-1.6,0.9-2.8
		c0-1-0.3-1.9-0.8-2.5c-0.5-0.6-1.2-0.9-2.1-0.9c-1.1,0-1.9,0.5-2.4,1.4v-1.2H-375.6z M-373.8,266.9c0.4-0.4,0.9-0.6,1.5-0.6
		c0.6,0,1.1,0.2,1.4,0.6c0.3,0.5,0.5,1.1,0.5,1.8c0,0.9-0.2,1.6-0.6,2.1c-0.3,0.5-0.8,0.8-1.5,0.8c-0.6,0-1-0.2-1.4-0.6
		c-0.3-0.4-0.5-0.8-0.5-1.4v-1C-374.4,267.9-374.2,267.3-373.8,266.9z"/>
	<path class="st0" d="M-361.5,272.5V268c0-1.7-0.8-2.6-2.5-2.6c-0.9,0-1.7,0.2-2.4,0.6h0.1v1.1c0.7-0.5,1.5-0.8,2.3-0.8
		c0.9,0,1.4,0.6,1.4,1.7l-2.1,0.3c-1.5,0.3-2.3,1-2.3,2.3c0,0.6,0.2,1.1,0.6,1.5c0.4,0.3,0.9,0.5,1.6,0.5c0.9,0,1.6-0.4,2.1-1.2v1.1
		H-361.5z M-362.8,269.6c0,0.6-0.2,1-0.5,1.4c-0.3,0.4-0.8,0.6-1.3,0.6c-0.4,0-0.7-0.1-0.9-0.3c-0.3-0.2-0.4-0.5-0.4-0.8
		c0-0.4,0.1-0.7,0.3-0.9c0.2-0.2,0.6-0.3,1.2-0.4l1.6-0.3V269.6z"/>
	<path class="st0" d="M-358.6,274.7c-0.2,0-0.5,0-0.7-0.1v1.1c0.2,0.1,0.5,0.1,0.8,0.1c1.1,0,1.9-0.7,2.5-2.2l3.1-8v-0.1h-1.4
		l-1.9,5.2c0,0.3-0.1,0.5-0.1,0.6l-0.1-0.6l-1.8-5.2h-1.4l2.7,6.9l-0.5,1.3C-357.6,274.4-358,274.7-358.6,274.7z"/>
	<path class="st0" d="M-342.5,276.4c0.1,0.1,0.1,0.2,0.2,0.3c0.2-0.5,0.4-1,0.4-1.5V264c0-2.1-1.7-3.8-3.8-3.8h-32.7
		c-2.1,0-3.8,1.7-3.8,3.8v11.2c0,2.1,1.7,3.8,3.8,3.8h23.2c0-0.2,0-0.5,0-0.7c0-0.3-0.1-0.6,0-0.9h-23.2c-1.3,0-2.3-1.1-2.3-2.3
		v-11.2c0-1.3,1.1-2.3,2.3-2.3h32.7c1.3,0,2.3,1.1,2.3,2.3v10.6C-342.8,275-342.5,275.7-342.5,276.4z"/>
</g>
</svg>
