<?xml version="1.0" encoding="utf-8"?>
<!-- Generator: Adobe Illustrator 19.0.0, SVG Export Plug-In . SVG Version: 6.00 Build 0)  -->
<svg version="1.1" id="图层_1" xmlns="http://www.w3.org/2000/svg" xmlns:xlink="http://www.w3.org/1999/xlink" x="0px" y="0px"
	 viewBox="0 0 60 60" style="enable-background:new 0 0 60 60;" xml:space="preserve">
<style type="text/css">
	.st0{fill-rule:evenodd;clip-rule:evenodd;fill:#344D67;}
</style>
<g id="XMLID_67_">
	<path id="XMLID_670_" class="st0" d="M30.2,28c2.9,0,5.5,1.2,7.4,3.1l0,0l0,0l0,0c1.9,1.9,3.1,4.5,3.1,7.4c0,2.9-1.2,5.5-3.1,7.4
		l-0.1,0c-1.9,1.9-4.5,3-7.4,3c-2.9,0-5.5-1.2-7.4-3.1c-1.9-1.9-3.1-4.5-3.1-7.4c0-2.9,1.2-5.5,3.1-7.4l0,0
		C24.7,29.2,27.3,28,30.2,28L30.2,28z M36.6,32.2c-1.6-1.6-3.9-2.6-6.4-2.6c-2.5,0-4.7,1-6.4,2.6l0,0l0,0c-1.6,1.6-2.6,3.9-2.6,6.4
		c0,2.5,1,4.7,2.6,6.4c1.6,1.6,3.9,2.6,6.4,2.6c2.5,0,4.7-1,6.3-2.6l0,0c1.6-1.6,2.6-3.9,2.6-6.4C39.2,36.1,38.2,33.8,36.6,32.2
		L36.6,32.2z"/>
	<path id="XMLID_630_" class="st0" d="M30.2,35.9c0.7,0,1.4,0.3,1.9,0.8l0,0c0.5,0.5,0.8,1.2,0.8,1.9c0,0.7-0.3,1.4-0.8,1.9l0,0l0,0
		c-0.5,0.5-1.2,0.8-1.9,0.8c-0.7,0-1.4-0.3-1.9-0.8l0,0c-0.5-0.5-0.8-1.2-0.8-1.9c0-0.7,0.3-1.4,0.8-1.9
		C28.8,36.2,29.5,35.9,30.2,35.9L30.2,35.9z M31.1,37.7c-0.2-0.2-0.5-0.3-0.8-0.3c-0.3,0-0.6,0.1-0.8,0.4c-0.2,0.2-0.4,0.5-0.4,0.8
		c0,0.3,0.1,0.6,0.3,0.8l0,0c0.2,0.2,0.5,0.3,0.8,0.3c0.3,0,0.6-0.1,0.8-0.4l0,0c0.2-0.2,0.3-0.5,0.3-0.8
		C31.4,38.2,31.3,37.9,31.1,37.7L31.1,37.7z"/>
	<g id="XMLID_327_">
		<circle id="XMLID_560_" class="st0" cx="26.1" cy="42.7" r="1.3"/>
		<circle id="XMLID_559_" class="st0" cx="30.2" cy="44.4" r="1.3"/>
		<circle id="XMLID_514_" class="st0" cx="34.4" cy="42.7" r="1.3"/>
		<circle id="XMLID_413_" class="st0" cx="26.1" cy="34.4" r="1.3"/>
		<circle id="XMLID_407_" class="st0" cx="24.3" cy="38.6" r="1.3"/>
		<circle id="XMLID_404_" class="st0" cx="30.2" cy="32.7" r="1.3"/>
		<circle id="XMLID_402_" class="st0" cx="34.4" cy="34.4" r="1.3"/>
		<circle id="XMLID_372_" class="st0" cx="36.1" cy="38.6" r="1.3"/>
	</g>
	<path id="XMLID_323_" class="st0" d="M53.8,21.9c0.4,0.1,0.7,0.4,0.6,0.9c-0.1,0.4-0.4,0.7-0.9,0.6l-12.7-2
		c-0.4-0.1-0.6-0.4-0.6-0.7h0v-1.5v-1.5c0-2.7-2.5-4.4-5.8-5.2c-1.3-0.3-2.8-0.5-4.2-0.5c-1.5,0-2.9,0.2-4.2,0.5
		c-3.2,0.8-5.8,2.5-5.8,5.2v2.9c0,0.4-0.3,0.7-0.7,0.8l-12.7,2c-0.4,0.1-0.8-0.2-0.9-0.6c0-0.1,0-0.1,0-0.2l0-5h0v0
		c0-4,2.1-7.1,6.2-9.3c4-2.1,9.9-3.2,17.7-3.2l0.3,0v0c0.3,0,0.7,0,1.3,0h0C39,5.2,44.6,6.3,48.4,8.4c4,2.1,6,5.2,6,9l0,0.1l0,0.1v0
		v0l0,1.2c0,0.4-0.3,0.7-0.8,0.7c-0.4,0-0.7-0.3-0.7-0.8l0-1.2l0-0.1l0-0.1c0-3.3-1.7-5.9-5.2-7.7c-3.6-1.9-9-3-16.2-3.1
		c-0.3,0-0.7,0-1.3,0v0l-0.3,0c-7.6,0-13.3,1.1-17,3c-3.6,1.9-5.4,4.5-5.4,7.9v0h0l0,4.2L18.7,20v-2.3c0-3.5,3-5.7,6.9-6.7
		c1.5-0.4,3-0.5,4.6-0.5c1.6,0,3.1,0.2,4.6,0.5c3.9,0.9,6.9,3.2,6.9,6.7v1.5V20L53.8,21.9z"/>
	<path id="XMLID_70_" class="st0" d="M28,21.4h4.4v-3.7c0-0.7,0.3-1.4,0.8-1.9l0,0l0,0c0.5-0.5,1.2-0.8,1.9-0.8
		c0.7,0,1.4,0.3,1.9,0.8l0,0c0.5,0.5,0.8,1.2,0.8,1.9v4.1l12.5,12.5l0,0c4.1,4.1,4.1,4.1,4.1,8.3v6.1c0,1.3-0.5,2.5-1.4,3.3
		c-0.8,0.8-2,1.4-3.3,1.4H30.2H10.7c-1.3,0-2.4-0.5-3.3-1.4l0,0l0,0c-0.8-0.8-1.4-2-1.4-3.3v-6.1c0-4.2,0-4.2,4.1-8.4l12.5-12.5
		v-4.1c0-0.7,0.3-1.4,0.8-1.9l0,0c0.5-0.5,1.2-0.8,1.9-0.8c0.7,0,1.4,0.3,1.9,0.8l0,0c0.5,0.5,0.8,1.2,0.8,1.9V21.4L28,21.4z
		 M33.1,22.9h-5.8h0c-0.4,0-0.8-0.3-0.8-0.8v-4.4c0-0.3-0.1-0.6-0.3-0.8l0,0c-0.2-0.2-0.5-0.3-0.8-0.3c-0.3,0-0.6,0.1-0.8,0.3l0,0
		c-0.2,0.2-0.4,0.5-0.4,0.8v4.4c0,0.2-0.1,0.4-0.2,0.5L11.2,35.4c-3.7,3.7-3.7,3.7-3.7,7.3v6.1c0,0.9,0.4,1.7,0.9,2.2l0,0
		C9,51.6,9.8,52,10.7,52h19.5h19.5c0.9,0,1.7-0.4,2.2-0.9c0.6-0.6,0.9-1.4,0.9-2.2v-6.1c0-3.6,0-3.6-3.6-7.2l0,0L36.5,22.7
		c-0.1-0.1-0.2-0.3-0.2-0.5v-4.4c0-0.3-0.1-0.6-0.3-0.8l0,0c-0.2-0.2-0.5-0.3-0.8-0.3c-0.3,0-0.6,0.1-0.8,0.4l0,0
		c-0.2,0.2-0.4,0.5-0.4,0.8v4.4v0C33.9,22.6,33.6,22.9,33.1,22.9z"/>
	<path id="XMLID_69_" class="st0" d="M53.8,18c0.4,0.1,0.7,0.5,0.6,0.9c-0.1,0.4-0.5,0.7-0.9,0.6L50.4,19l0,0l-3.2-0.5h0L44,18
		c-0.4-0.1-0.7-0.5-0.6-0.9c0.1-0.4,0.5-0.7,0.9-0.6l3.2,0.5l3.1,0.5l0,0L53.8,18z"/>
	<path id="XMLID_68_" class="st0" d="M6.9,19.5c-0.4,0.1-0.8-0.2-0.9-0.6C6,18.4,6.2,18,6.7,18l3.2-0.5l0,0L13,17l3.2-0.5
		c0.4-0.1,0.8,0.2,0.9,0.6c0.1,0.4-0.2,0.8-0.6,0.9l-3.2,0.5h0L10.1,19l0,0L6.9,19.5z"/>
</g>
</svg>
