<?xml version="1.0" encoding="utf-8"?>
<!-- Generator: Adobe Illustrator 19.0.0, SVG Export Plug-In . SVG Version: 6.00 Build 0)  -->
<svg version="1.1" id="图层_1" xmlns="http://www.w3.org/2000/svg" xmlns:xlink="http://www.w3.org/1999/xlink" x="0px" y="0px"
	 viewBox="0 0 20 20" style="enable-background:new 0 0 20 20;" xml:space="preserve">
<style type="text/css">
	.st0{fill:#344D67;}
</style>
<path id="XMLID_4752_" class="st0" d="M14.7,19.7c-2.9,0-6-2.6-8.1-5.2C4.1,11.6,1.8,6.8,3,3.3C3.1,3,4.8,0.3,7.7,1l0,0
	c0.1,0,0.4,0,0.8,0.3S9,2,9.2,2.5l0.7,4c0,0.3,0,0.5-0.3,0.7L7.7,8.3c0.3,1.1,1.4,4,4.1,5.6l1.5-1.1c0.1-0.1,0.4-0.1,0.7-0.1l4,1.6
	c0.4,0.1,1.1,0.8,1,2.1c0,0-0.1,2.7-3.6,3.6C15.1,19.7,15,19.7,14.7,19.7z M6.9,2.2c-1.5,0-2.5,1.5-2.6,1.6c-1,2.7,1,7,3.4,10
	s5.3,4.9,7.4,4.7c2.5-0.5,2.5-2.3,2.5-2.3c0-0.4-0.1-0.5-0.1-0.7L13.8,14l-1.5,1.1c-0.3,0.1-0.5,0.1-0.7,0c-4.2-2.3-5.2-7-5.2-7.1
	c0-0.3,0-0.5,0.3-0.7l1.8-1.2L7.8,2.5c0-0.3-0.1-0.3-0.1-0.3c-0.1,0-0.1,0-0.3,0C7.2,2.2,7,2.2,6.9,2.2z"/>
</svg>
