<?xml version="1.0" encoding="utf-8"?>
<!-- Generator: Adobe Illustrator 19.0.0, SVG Export Plug-In . SVG Version: 6.00 Build 0)  -->
<svg version="1.1" id="图层_1" xmlns="http://www.w3.org/2000/svg" xmlns:xlink="http://www.w3.org/1999/xlink" x="0px" y="0px"
	 viewBox="0 0 70 70" style="enable-background:new 0 0 70 70;" xml:space="preserve">
<g id="XMLID_1043_">
	<path id="XMLID_52_" d="M25.3,63.7h-8.2v-2h8.2c2.2,0,3.3-0.9,3.3-2.7c0-2.6-4-2.7-4.1-2.7h-5.2c-1.1,0-1.9-0.3-2.5-0.9
		c-0.7-0.7-0.7-1.6-0.7-1.7V39.6c-0.1-0.5-0.3-2.4,0.8-3.9c0.9-1.1,2.2-1.6,4.1-1.6v2c-1.2,0-2,0.3-2.5,0.9
		c-0.7,0.9-0.4,2.3-0.4,2.3l0,0.2v14.2c0,0.4,0.5,0.6,1.2,0.6h5.2c2.1,0,6.1,1,6.1,4.7C30.5,62,28.5,63.7,25.3,63.7z"/>
	<path id="XMLID_49_" d="M31.3,32.2c-5.5,0-9.9-4.5-9.9-9.9s4.5-9.9,9.9-9.9s9.9,4.5,9.9,9.9S36.8,32.2,31.3,32.2z M31.3,14.3
		c-4.4,0-7.9,3.6-7.9,7.9s3.6,7.9,7.9,7.9s7.9-3.6,7.9-7.9S35.7,14.3,31.3,14.3z"/>
	<path id="XMLID_46_" d="M38.7,66.2H21c-1.9,0-3.8-0.9-4.9-2.5H15c-3.3,0-6.1-2.6-6.1-5.9V39.9c0-3.2,2.7-5.9,6.1-5.9h4.8
		c0.2,0,0.4,0,0.6,0l0,0l0,0c0.2,0,0.4,0,0.6,0h17.7c0.1,0,0.2,0,0.3,0c0,0,0.1,0,0.2,0h7.2V23.8c0-2.8,2.4-5.1,5.3-5.1
		S57,21,57,23.8v14.5c0,0.2,0,0.4,0,0.6c0,0.2,0,0.4,0,0.6c0,3-2.5,5.4-5.5,5.4h-6.7v15.5C44.7,63.6,42,66.2,38.7,66.2z M15,36.1
		c-2.2,0-4.1,1.7-4.1,3.9v17.9c0,2.1,1.8,3.9,4.1,3.9h2.2l0.3,0.5c0.7,1.2,2.1,2,3.5,2h17.7c2.2,0,4.1-1.7,4.1-3.9V42.8h8.7
		c1.9,0,3.5-1.5,3.5-3.4c0-0.1,0-0.2,0-0.3l0-0.3l0-0.1c0-0.2,0-0.3,0-0.4V23.8c0-1.7-1.5-3.1-3.3-3.1s-3.3,1.4-3.3,3.1v12.2h-9.2
		c-0.1,0-0.1,0-0.2,0l-0.1,0l-0.1,0c-0.1,0-0.1,0-0.2,0l-17.7,0c-0.1,0-0.2,0-0.3,0l-0.3,0l-0.3,0c-0.1,0-0.2,0-0.3,0H15z"/>
	<path id="XMLID_43_" d="M56.5,16.9h-9c-1.7,0-3-1.3-3-3v-9c0-1.7,1.3-3,3-3h9c1.7,0,3,1.3,3,3v9C59.5,15.6,58.1,16.9,56.5,16.9z
		 M47.4,3.9c-0.6,0-1,0.4-1,1v9c0,0.6,0.4,1,1,1h9c0.6,0,1-0.4,1-1v-9c0-0.6-0.4-1-1-1H47.4z"/>
	<rect id="XMLID_42_" x="46.5" y="8.9" width="11" height="2"/>
	<rect id="XMLID_41_" x="50.9" y="2.9" width="2" height="13.4"/>
</g>
</svg>
