<?xml version="1.0" encoding="utf-8"?>
<!-- Generator: Adobe Illustrator 19.0.0, SVG Export Plug-In . SVG Version: 6.00 Build 0)  -->
<svg version="1.1" id="图层_1" xmlns="http://www.w3.org/2000/svg" xmlns:xlink="http://www.w3.org/1999/xlink" x="0px" y="0px"
	 viewBox="0 0 20 20" style="enable-background:new 0 0 20 20;" xml:space="preserve">
<style type="text/css">
	.st0{fill:#4D4D4D;}
</style>
<g id="XMLID_324_">
	<path id="XMLID_326_" class="st0" d="M10,20C4.5,20,0,15.5,0,10S4.5,0,10,0s10,4.5,10,10S15.5,20,10,20z M10,0.9
		C4.9,0.9,0.9,5,0.9,10S5,19.1,10,19.1s9.1-4,9.1-9.1S15,0.9,10,0.9z"/>
	<path id="XMLID_325_" class="st0" d="M11,9.6l5.5,2.7v-1.8l-1-0.7V8.5c0-0.1-0.4-0.4-0.5-0.4s-0.5,0.1-0.5,0.4v0.9L14,9.2l-0.5-0.4
		V7.3c0-0.1-0.4-0.4-0.5-0.4S12.5,7,12.5,7.3v1l-0.9-0.2l-0.4-0.2h-0.1l0.1-2.4c0-0.6-0.5-1.1-1.1-1.1H10H9.9
		c-0.6,0-1.1,0.5-1.1,1.1l0.1,2.4H8.7L8.3,8l-1,0.2V7.3c0-0.1-0.4-0.4-0.5-0.4S6.3,7,6.3,7.3v1.5L5.8,9.2L5.3,9.3V8.6
		c0-0.1-0.4-0.4-0.5-0.4S4.3,8.3,4.3,8.6v1.3l-1,0.7v1.8l5.5-2.7L9,13.5c0,0.1,0.1,0.5,0.1,0.7l-1.8,1.1V16l2.3-0.4H10l2.3,0.4v-0.7
		l-2-1.1c0-0.1,0.1-0.5,0.1-0.7L11,9.6z"/>
</g>
</svg>
