<?xml version="1.0" encoding="utf-8"?>
<!-- Generator: Adobe Illustrator 19.0.0, SVG Export Plug-In . SVG Version: 6.00 Build 0)  -->
<svg version="1.1" id="图层_1" xmlns="http://www.w3.org/2000/svg" xmlns:xlink="http://www.w3.org/1999/xlink" x="0px" y="0px"
	 viewBox="0 0 40 40" style="enable-background:new 0 0 40 40;" xml:space="preserve">
<g id="XMLID_1796_">
	<path id="XMLID_135_" d="M20.7,32.6c-6.8,0-12.3-5.5-12.3-12.3c0-5.4,3.4-10.1,8.6-11.7c0.3-0.1,0.5,0.1,0.6,0.3
		c0.1,0.3-0.1,0.5-0.3,0.6c-4.7,1.5-7.9,5.8-7.9,10.7c0,6.2,5,11.3,11.3,11.3s11.3-5,11.3-11.3c0-4.9-3.3-9.4-8-10.8
		c-0.3-0.1-0.4-0.4-0.3-0.6c0.1-0.3,0.4-0.4,0.6-0.3c5.2,1.5,8.8,6.4,8.8,11.7C32.9,27.1,27.4,32.6,20.7,32.6z"/>
	<g id="XMLID_133_">
		<line id="XMLID_131_" x1="19.8" y1="5" x2="19.8" y2="15"/>
		<path id="XMLID_132_" d="M20.3,15.5c-0.3,0-0.5-0.2-0.5-0.5V5c0-0.3,0.2-0.5,0.5-0.5s0.5,0.2,0.5,0.5v10
			C20.8,15.3,20.6,15.5,20.3,15.5z"/>
	</g>
</g>
</svg>
