<?xml version="1.0" encoding="utf-8"?>
<!-- Generator: Adobe Illustrator 19.0.0, SVG Export Plug-In . SVG Version: 6.00 Build 0)  -->
<svg version="1.1" id="图层_1" xmlns="http://www.w3.org/2000/svg" xmlns:xlink="http://www.w3.org/1999/xlink" x="0px" y="0px"
	 viewBox="0 0 20 20" style="enable-background:new 0 0 20 20;" xml:space="preserve">
<path id="XMLID_2_" d="M19.7,9.1c-0.2-0.2-0.5-0.2-0.7,0l-2.1,2.3C17,11,17,10.5,17,10c0-4.4-3.6-8-8-8s-8,3.6-8,8s3.6,8,8,8
	c0.3,0,0.5-0.2,0.5-0.5S9.3,17,9,17c-3.9,0-7-3.1-7-7s3.1-7,7-7s7,3.1,7,7c0,0.6-0.1,1.2-0.2,1.7l-1.5-2.7c-0.1-0.2-0.4-0.3-0.7-0.2
	c-0.2,0.1-0.3,0.4-0.2,0.7l2.2,3.9c0.1,0.1,0.2,0.2,0.4,0.2c0,0,0,0,0.1,0c0.1,0,0.3-0.1,0.4-0.2l3.3-3.7
	C19.9,9.6,19.9,9.3,19.7,9.1z"/>
</svg>
