<?xml version="1.0" encoding="utf-8"?>
<!-- Generator: Adobe Illustrator 19.0.0, SVG Export Plug-In . SVG Version: 6.00 Build 0)  -->
<svg version="1.1" id="图层_1" xmlns="http://www.w3.org/2000/svg" xmlns:xlink="http://www.w3.org/1999/xlink" x="0px" y="0px"
	 viewBox="-449 251 60 60" style="enable-background:new -449 251 60 60;" xml:space="preserve">
<style type="text/css">
	.st0{fill:#F7931E;}
</style>
<path class="st0" d="M-398.2,305h-41c-2.9,0-4.8-0.7-5.7-2.3c-1.2-1.9-0.4-4.2-0.1-5.3l0.3-0.9v-0.3l20.5-37.6
	c0.6-1.5,2.5-3.4,4.1-3.8c1.8-0.5,4.4-0.2,6.4,3.5l20.9,37.3c0.5,0.9,2,3.7,0.8,6.1C-392.9,304-394.8,305-398.2,305z M-443.6,296.5
	l0,0.3l-0.3,1c-0.3,0.9-1,2.9,0,4.4c0.8,1.3,2.3,1.8,4.9,1.8h41c3,0,4.6-0.8,5.4-2.6c1-2-0.3-4.4-0.8-5.2l-0.1-0.2l-20.8-37.1
	c-1.4-2.5-3.1-3.5-5.3-3c-1.2,0.2-2.9,1.8-3.5,3.2L-443.6,296.5z"/>
<path class="st0" d="M-418.8,301.6c-1.9,0-3.4-1.5-3.4-3.4s1.5-3.4,3.4-3.4s3.4,1.5,3.4,3.4S-416.9,301.6-418.8,301.6z
	 M-418.8,295.8c-1.3,0-2.4,1.1-2.4,2.4s1.1,2.4,2.4,2.4c1.3,0,2.4-1.1,2.4-2.4S-417.5,295.8-418.8,295.8z"/>
<path class="st0" d="M-418.8,292.7c-1.9,0-3.5-1.5-3.6-3.3l-1.1-24.4c0-0.7,0.2-1.5,0.8-2.1c0.9-0.9,2.3-1.5,3.9-1.5c0,0,0,0,0,0
	c1.6,0,3,0.6,3.9,1.5c0.6,0.6,0.9,1.3,0.8,2.1l-1.1,24.3C-415.3,291.2-416.9,292.7-418.8,292.7z M-418.8,262.4
	c-1.3,0-2.5,0.4-3.2,1.2c-0.3,0.3-0.6,0.7-0.6,1.3l1.1,24.4c0.1,1.3,1.2,2.4,2.6,2.4c1.4,0,2.5-1.1,2.6-2.4l1.1-24.3
	c0-0.6-0.3-1.1-0.6-1.3C-416.3,262.9-417.5,262.4-418.8,262.4C-418.8,262.4-418.8,262.4-418.8,262.4L-418.8,262.4
	C-418.8,262.4-418.8,262.4-418.8,262.4z"/>
</svg>
