<?xml version="1.0" encoding="utf-8"?>
<!-- Generator: Adobe Illustrator 19.0.0, SVG Export Plug-In . SVG Version: 6.00 Build 0)  -->
<svg version="1.1" id="图层_1" xmlns="http://www.w3.org/2000/svg" xmlns:xlink="http://www.w3.org/1999/xlink" x="0px" y="0px"
	 viewBox="-419 221 120 120" style="enable-background:new -419 221 120 120;" xml:space="preserve">
<style type="text/css">
	.st0{fill:#486987;}
</style>
<path class="st0" d="M-358.3,338.1c-2,0-4-0.8-5.7-1.6l-39-22.4c-1.6-1.1-3-2.6-4.2-4.6c-1.4-2.6-2.1-4.8-2.1-6.8v-43.1
	c0-2.5,1.1-4.9,2.1-6.7c1.2-2,3.2-3.6,4.8-4.6l36.4-21l1.3-0.8c0,0,0.1,0,0.1-0.1c2.3-1.1,4.5-1.6,6.7-1.6h1.2
	c2.5,0,4.7,0.5,6.8,1.6l1.4,0.8l36.2,21c1.9,1.2,3,2.8,4.1,4.7c1.1,1.9,1.1,4,1,5.9c0,0.3,0,0.6,0,0.8v43.3c0,0.6-0.4,1-1,1
	s-1-0.4-1-1v-43.3c0-0.3,0-0.6,0-0.9c0-1.8,0-3.4-0.8-4.8c-1-1.7-1.8-3-3.4-4l-36.2-21l-1.3-0.8c-1.7-0.9-3.6-1.4-5.8-1.4h-1.2
	c-1.9,0-3.8,0.5-5.8,1.4l-1.3,0.8l-36.3,21c-1.4,0.9-3.1,2.3-4.1,4c-0.9,1.5-1.9,3.6-1.9,5.7v43.1c0,1.6,0.6,3.5,1.9,5.8
	c1,1.6,2.2,3,3.5,3.9l38.8,22.4c1.5,0.7,3.4,1.5,5.2,1.4l1.4,0c1.8,0,3.6-0.7,5.2-1.4l37.9-22.2c0.5-0.3,1.1-0.1,1.4,0.4
	c0.3,0.5,0.1,1.1-0.4,1.4l-37.9,22.2c0,0-0.1,0-0.1,0.1c-1.8,0.8-3.9,1.6-6.1,1.6h-1.3C-358,338.1-358.2,338.1-358.3,338.1z"/>
<path class="st0" d="M-336.4,283.7h-0.3v-9c0-1.5-1.2-2.7-2.7-2.7h-4.8l2.4-5.2c0.3-0.7,0.3-1.4,0.1-2.1c-0.2-0.7-0.7-1.3-1.4-1.6
	l-15.8-7.5c-0.7-0.3-1.4-0.3-2.1-0.1s-1.3,0.7-1.6,1.4l-1.3,2.9l-1.5-0.7c-0.7-0.3-1.4-0.3-2.1,0s-1.2,0.8-1.5,1.5l-0.9,2l-0.7-0.3
	c-0.7-0.2-1.5-0.2-2.2,0.1s-1.2,0.9-1.5,1.6l-3.1,8h-0.5c-1.5,0-2.7,1.2-2.7,2.7v25.8c0,1.5,1.2,2.7,2.7,2.7h38.5
	c1.5,0,2.7-1.3,2.8-2.8v-8.2h0.2c1.9,0,3.5-1.6,3.6-3.6v-1.3C-332.8,285.3-334.4,283.7-336.4,283.7z M-377.9,273.4h38.4
	c0.7,0,1.3,0.6,1.3,1.3v9h-7.4c-2,0-3.6,1.6-3.6,3.6v1.3c0,2,1.6,3.6,3.6,3.6h7.5v8.2c0,0.7-0.6,1.3-1.3,1.3h-38.5
	c-0.7,0-1.3-0.6-1.3-1.3v-25.7C-379.2,274-378.6,273.4-377.9,273.4z M-349.3,268.2c0.1,0.3,0.1,0.7,0,1l-1.2,2.8h-1.5
	c0.2-1.3-0.5-2.7-1.8-3.2l-14.7-5.7l0.8-1.9c0.3-0.7,1-1,1.7-0.7l16,7C-349.7,267.6-349.4,267.9-349.3,268.2z M-353.4,270.9
	c0.1,0.3,0.1,0.7,0,1.1h-22.4l2.9-7.6c0.2-0.4,0.4-0.6,0.8-0.8c0.3-0.1,0.7-0.1,1.1,0l16.8,6.5
	C-353.8,270.3-353.6,270.5-353.4,270.9z M-347.7,288.6v-1.3c0-1.1,0.9-2.1,2.1-2.1h9.2c1.1,0,2.1,0.9,2.1,2.1v1.3
	c0,1.1-0.9,2.1-2.1,2.1h-9.2C-346.7,290.7-347.7,289.8-347.7,288.6z M-345.8,272h-3.2l0.9-2.3c0.6-1.4,0-3-1.4-3.6l-13-5.7l1.2-2.6
	c0.1-0.3,0.4-0.6,0.7-0.7c0.3-0.2,0.7-0.1,1,0l15.8,7.5c0.3,0.1,0.6,0.4,0.7,0.7c0.2,0.3,0.1,0.7,0,1L-345.8,272z"/>
</svg>
