<?xml version="1.0" encoding="utf-8"?>
<!-- Generator: Adobe Illustrator 19.0.0, SVG Export Plug-In . SVG Version: 6.00 Build 0)  -->
<svg version="1.1" id="图层_1" xmlns="http://www.w3.org/2000/svg" xmlns:xlink="http://www.w3.org/1999/xlink" x="0px" y="0px"
	 viewBox="0 0 50 50" style="enable-background:new 0 0 50 50;" xml:space="preserve">
<style type="text/css">
	.st0{fill:#FFAE6C;}
</style>
<path id="XMLID_32_" class="st0" d="M41.5,44h-39C2.2,44,2,43.8,2,43.5V19.3c0-0.1,0-0.2,0.1-0.3l6.8-9.8C8.9,9.1,9.1,9,9.3,9h26.7
	c0.2,0,0.3,0.1,0.4,0.2l5.6,9.3c0,0.1,0.1,0.2,0.1,0.3V31c0,0.3-0.2,0.5-0.5,0.5S41,31.3,41,31V18.9L35.6,10H9.5L3,19.4V43h38v-3
	c0-0.3,0.2-0.5,0.5-0.5S42,39.7,42,40v3.5C42,43.8,41.8,44,41.5,44z"/>
<path id="XMLID_31_" class="st0" d="M41,20H2c-0.3,0-0.5-0.2-0.5-0.5S1.7,19,2,19h39c0.3,0,0.5,0.2,0.5,0.5S41.3,20,41,20z"/>
<path id="XMLID_30_" class="st0" d="M24.5,30h-6c-0.3,0-0.5-0.2-0.5-0.5V18.3l0.5-9.1c0-0.3,0.3-0.5,0.5-0.5c0.3,0,0.5,0.2,0.5,0.5
	L19,18.3V29h5v-9.7l-0.4-10c0-0.3,0.2-0.5,0.5-0.5c0.3,0,0.5,0.2,0.5,0.5l0.4,10v10.3C25,29.8,24.8,30,24.5,30z"/>
<path id="XMLID_29_" class="st0" d="M48,34H33.5c-0.2,0-0.4-0.1-0.5-0.4c-0.1-0.2,0-0.4,0.2-0.6l4.3-2.8c0.2-0.1,0.5-0.1,0.7,0.1
	c0.2,0.2,0.1,0.5-0.1,0.7L35.2,33H48c0.3,0,0.5,0.2,0.5,0.5S48.3,34,48,34z"/>
<path id="XMLID_28_" class="st0" d="M44.6,39.8c-0.2,0-0.3-0.1-0.4-0.2C44,39.3,44,39,44.3,38.9l2.6-1.9H33c-0.3,0-0.5-0.2-0.5-0.5
	S32.7,36,33,36h15.5c0.2,0,0.4,0.1,0.5,0.3c0.1,0.2,0,0.4-0.2,0.6l-3.9,2.8C44.8,39.7,44.7,39.8,44.6,39.8z"/>
</svg>
