<?xml version="1.0" encoding="utf-8"?>
<!-- Generator: Adobe Illustrator 19.0.0, SVG Export Plug-In . SVG Version: 6.00 Build 0)  -->
<svg version="1.1" id="图层_1" xmlns="http://www.w3.org/2000/svg" xmlns:xlink="http://www.w3.org/1999/xlink" x="0px" y="0px"
	 viewBox="0 0 50 50" style="enable-background:new 0 0 50 50;" xml:space="preserve">
<style type="text/css">
	.st0{fill:none;stroke:#FBB03B;stroke-linecap:round;stroke-linejoin:round;stroke-miterlimit:10;}
	.st1{fill:#FBB03B;}
</style>
<path id="XMLID_4115_" class="st0" d="M21.3,26.9"/>
<path id="XMLID_57_" class="st1" d="M41.2,35.5c-0.2,0-0.4-0.1-0.5-0.3c0-0.1-2.6-6.7-17.3-6.9V35c0,0.2-0.1,0.4-0.3,0.5
	c-0.2,0.1-0.4,0-0.5-0.1l-13-11.6c-0.1-0.1-0.2-0.2-0.2-0.4s0.1-0.3,0.2-0.4l13-11.6c0.1-0.1,0.4-0.2,0.5-0.1
	c0.2,0.1,0.3,0.3,0.3,0.5v6.7c2.6,0.1,18.3,1.5,18.3,16.4C41.7,35.3,41.5,35.5,41.2,35.5C41.3,35.5,41.2,35.5,41.2,35.5z M10.7,23.5
	l11.8,10.4v-5.8c-0.1-0.2-0.1-0.3,0-0.5c0.1-0.2,0.3-0.3,0.4-0.3c11.3,0,16,3.6,17.8,5.8C39.3,19.8,23.7,19.6,23,19.6
	c-0.1,0-0.2,0-0.3-0.1l-0.1-0.1c-0.1-0.1-0.2-0.3-0.2-0.4v-6L10.7,23.5z"/>
<path id="XMLID_54_" class="st1" d="M25,49.3c-13.5,0-24.5-11-24.5-24.5c0-13.5,11-24.5,24.5-24.5s24.5,11,24.5,24.5
	C49.6,38.3,38.5,49.3,25,49.3z M25,1.2C12,1.2,1.5,11.8,1.5,24.7c0,13,10.6,23.5,23.5,23.5c13,0,23.5-10.6,23.5-23.5
	C48.6,11.8,38,1.2,25,1.2z"/>
</svg>
