<?xml version="1.0" encoding="utf-8"?>
<!-- Generator: Adobe Illustrator 19.0.0, SVG Export Plug-In . SVG Version: 6.00 Build 0)  -->
<svg version="1.1" id="图层_1" xmlns="http://www.w3.org/2000/svg" xmlns:xlink="http://www.w3.org/1999/xlink" x="0px" y="0px"
	 viewBox="0 0 30 30" style="enable-background:new 0 0 30 30;" xml:space="preserve">
<path id="XMLID_36_" d="M24.7,15.2c-0.6-2.5-1.9-5.4-3.6-8.1c0,0,0,0,0,0c0,0,0,0,0,0c0,0,0,0,0,0C21,7,21,7,21,7c0,0-0.1,0-0.1,0
	c0,0,0,0-0.1,0c0,0,0,0,0,0c0,0-0.1-0.1-0.1-0.1c0,0,0,0-0.1,0c0,0,0,0,0,0c0,0-0.1,0-0.1,0c0,0,0,0,0,0c0,0,0,0,0,0
	c0,0-0.1,0.1-0.1,0.1c0,0,0,0.1,0,0.1c0,0,0,0,0,0.1c-0.3,1.2-0.9,2.3-1.7,3.2c-2.1-2.5-3.2-5.7-3.2-9c0-0.3-0.2-0.5-0.5-0.5
	C12,0.9,4.3,11.1,4.3,18.8c0,5.7,4.7,10.4,10.4,10.4c5.7,0,10.4-4.7,10.4-10.4C25.2,17.7,25,16.5,24.7,15.2z M10.3,23.8
	c0-3.2,2.7-7,4-7.9c0.2,1.7,0.8,3.2,1.9,4.5c0,0,0,0,0,0c0,0,0,0,0,0c0,0,0.1,0,0.1,0.1c0,0,0,0,0.1,0c0.1,0,0.1,0,0.2,0
	c0.1,0,0.1,0,0.2,0c0,0,0,0,0.1,0c0,0,0.1,0,0.1-0.1c0,0,0,0,0,0c0,0,0,0,0,0c0.3-0.3,0.6-0.7,0.8-1.2c0.5,1,1,2,1.2,3
	c0.1,0.6,0.2,1.1,0.2,1.6c0,2.5-2,4.5-4.5,4.5C12.3,28.2,10.3,26.2,10.3,23.8z M19,27.2c0.8-0.9,1.2-2.1,1.2-3.4
	c0-0.6-0.1-1.2-0.3-1.9c-0.3-1.3-1-2.8-1.8-4.1c0,0,0,0,0,0c0,0,0,0,0,0c0,0,0,0-0.1-0.1c0,0,0-0.1-0.1-0.1c0,0-0.1,0.2-0.1,0.2
	c0,0,0,0.2-0.1,0.2c0,0,0,0,0,0c0,0-0.1-0.2-0.1-0.2c0,0-0.1-0.1-0.1-0.1c0,0,0,0-0.1,0c0,0-0.1,0-0.1,0c0,0,0,0,0,0c0,0,0,0-0.1,0
	c0,0-0.1,0-0.1,0.1c0,0,0,0.1,0,0.1c0,0,0,0,0,0.1c-0.1,0.5-0.3,0.9-0.6,1.3c-0.9-1.2-1.4-2.6-1.4-4.1c0-0.3-0.2-0.5-0.5-0.5
	c-1.7,0-5.5,5.3-5.5,9.2c0,1.3,0.5,2.5,1.2,3.4c-3.1-1.6-5.2-4.7-5.2-8.4c0-6.8,6.4-15.6,8.9-16.7c0.1,3.5,1.5,6.9,3.8,9.5
	c0,0,0,0,0,0c0,0,0,0,0,0c0,0,0.1,0,0.1,0.1c0,0,0,0,0.1,0c0.1,0,0.1,0,0.2,0c0.1,0,0.1,0,0.2,0c0,0,0,0,0.1,0c0,0,0.1,0,0.1-0.1
	c0,0,0,0,0,0c0,0,0,0,0,0c0.9-0.9,1.5-1.9,2-3.1c1.4,2.3,2.4,4.7,2.9,6.9c0.3,1.2,0.5,2.3,0.5,3.4C24.2,22.5,22,25.6,19,27.2z"/>
</svg>
