<?xml version="1.0" encoding="utf-8"?>
<!-- Generator: Adobe Illustrator 19.0.0, SVG Export Plug-In . SVG Version: 6.00 Build 0)  -->
<svg version="1.1" id="图层_1" xmlns="http://www.w3.org/2000/svg" xmlns:xlink="http://www.w3.org/1999/xlink" x="0px" y="0px"
	 viewBox="0 0 20 20" style="enable-background:new 0 0 20 20;" xml:space="preserve">
<style type="text/css">
	.st0{fill:#4D4D4D;}
</style>
<g id="XMLID_312_">
	<path id="XMLID_316_" class="st0" d="M12,11.2h-0.5L11.2,11c0.6-0.7,1-1.6,1-2.6c0-2.2-1.7-3.9-3.9-3.9s-4,1.8-4,3.9
		c0,2.2,1.7,3.9,3.9,3.9c1,0,1.8-0.4,2.6-1l0.2,0.2v0.5l3.5,3.5l1-1L12,11.2z M8.2,11.2c-1.6,0-2.8-1.2-2.8-2.8s1.2-2.8,2.8-2.8
		S11,6.8,11,8.4S9.8,11.2,8.2,11.2z"/>
	<path id="XMLID_313_" class="st0" d="M10,20C4.5,20,0,15.5,0,10S4.5,0,10,0s10,4.5,10,10S15.5,20,10,20z M10,0.9
		C4.9,0.9,0.9,5,0.9,10S5,19.1,10,19.1s9.1-4.1,9.1-9.1S15.1,0.9,10,0.9z"/>
</g>
</svg>
