<?xml version="1.0" encoding="utf-8"?>
<!-- Generator: Adobe Illustrator 19.0.0, SVG Export Plug-In . SVG Version: 6.00 Build 0)  -->
<svg version="1.1" id="图层_1" xmlns="http://www.w3.org/2000/svg" xmlns:xlink="http://www.w3.org/1999/xlink" x="0px" y="0px"
	 viewBox="0 0 30 30" style="enable-background:new 0 0 30 30;" xml:space="preserve">
<path id="XMLID_4803_" d="M29.4,27.8l-8.7-8.7c1.8-2.1,2.6-4.7,2.6-7.3c0-3.1-1.2-6-3.4-8.2s-5.1-3.4-8.2-3.4s-6,1.2-8.2,3.4
	s-3.4,5.1-3.4,8.2s1.2,6,3.4,8.2s5.1,3.4,8.2,3.4c2.6,0,5.3-0.9,7.3-2.6l8.7,8.7c0.1,0.1,0.4,0.3,0.7,0.3s0.6-0.1,0.7-0.3
	C29.9,28.9,29.9,28.3,29.4,27.8z M11.8,2.5c2.5,0,4.8,1,6.6,2.8c1.8,1.8,2.8,4.1,2.8,6.6s-1,4.8-2.8,6.6c-1.8,1.8-4.1,2.8-6.6,2.8
	s-4.8-1-6.6-2.8c-1.8-1.8-2.8-4.1-2.8-6.6s1-4.8,2.8-6.6C7,3.3,9.3,2.5,11.8,2.5z"/>
</svg>
