<?xml version="1.0" encoding="utf-8"?>
<!-- Generator: Adobe Illustrator 19.0.0, SVG Export Plug-In . SVG Version: 6.00 Build 0)  -->
<svg version="1.1" id="图层_1" xmlns="http://www.w3.org/2000/svg" xmlns:xlink="http://www.w3.org/1999/xlink" x="0px" y="0px"
	 viewBox="-419 221 120 120" style="enable-background:new -419 221 120 120;" xml:space="preserve">
<style type="text/css">
	.st0{fill:#344D67;}
</style>
<g>
	<path class="st0" d="M-308.3,252.7c-1.3-2.2-2.6-3.6-4.2-4.7l-36.3-20.9l-1.4-0.8c-2.2-1-4.4-1.6-6.8-1.6c-0.1,0-0.2,0-0.3,0h-0.1
		c-0.2,0-0.6,0-0.8,0c-2.4,0-4.7,0.6-6.9,1.7l-37.7,21.7c-1.9,1.3-3.5,3-4.5,4.7c-1.3,2.1-1.9,4.4-1.9,6.7v43.1
		c0,2.3,0.6,4.6,1.9,6.8c1.1,2,2.4,3.5,4,4.6l38.9,22.4c1.9,0.9,3.9,1.6,6.1,1.6h0.7h0.5c0.1,0,0.1,0,0.2,0c2.2,0,4.2-0.8,6-1.4h0.1
		l38.2-22.5c0.5-0.3,0.7-0.9,0.4-1.4s-0.9-0.7-1.4-0.4l-38.1,22.4c-1.6,0.7-3.4,1.4-5.2,1.4h-0.6h-0.7c-1.9,0-3.7-0.7-5.2-1.4
		l-38.8-22.4c-1.3-0.9-2.4-2.2-3.4-3.9c-1-1.9-1.6-3.9-1.6-5.8v-43.1c0-1.9,0.5-3.9,1.6-5.7c0.9-1.5,2.3-2.9,3.9-4l36.3-21l1.3-0.7
		c1.9-0.9,3.9-1.4,5.9-1.4c0.2,0,0.5,0,0.8,0h0.3c2,0,4,0.5,5.8,1.4l1.3,0.8l36.5,20.9c1.4,0.9,2.4,2.1,3.5,4c0.9,1.7,1,3.5,1,5.7
		v42.8c0,0.6,0.4,1,1,1c0.6,0,1-0.4,1-1v-42.9C-307,257.4-307,255-308.3,252.7z"/>
	<path class="st0" d="M-354.7,260.3h-13.9c-2.2,0-4,1.8-4,4v37.1c0,2.2,1.8,4,4,4h26.1c2.2,0,4-1.8,4-4v-24.2c0-0.3-0.1-0.5-0.3-0.7
		c-0.3-0.3-10.1-10.5-15.2-15.9C-354.2,260.4-354.4,260.3-354.7,260.3z M-340.4,301.6c-0.1,1-1,1.9-2.1,1.9h-26.1c-1.1,0-2-0.9-2-2
		v-37.1c0-1.1,0.9-2,2-2h12.5v12.5c0.1,1.3,1.1,3.7,3.9,3.7h11.8V301.6z M-352.2,276.5c-1.6,0-1.8-1.5-1.9-1.8v-11.3
		c2.9,3,9.6,10,12.5,13.1H-352.2z"/>
	<path class="st0" d="M-364.9,276.8h5.8c0.6,0,1-0.4,1-1c0-0.6-0.4-1-1-1h-5.8c-0.6,0-1,0.4-1,1
		C-365.9,276.4-365.4,276.8-364.9,276.8z"/>
	<path class="st0" d="M-366.2,282.1c0,0.6,0.4,1,1,1h19.3c0.6,0,1-0.4,1-1c0-0.6-0.4-1-1-1h-19.3
		C-365.8,281.1-366.2,281.5-366.2,282.1z"/>
	<path class="st0" d="M-346.1,287.6h-19c-0.6,0-1,0.4-1,1c0,0.6,0.4,1,1,1h19c0.6,0,1-0.4,1-1C-345.1,288-345.6,287.6-346.1,287.6z"
		/>
	<path class="st0" d="M-346.1,294.1H-365c-0.6,0-1,0.4-1,1c0,0.6,0.4,1,1,1h18.9c0.6,0,1-0.4,1-1
		C-345.1,294.5-345.6,294.1-346.1,294.1z"/>
</g>
</svg>
