<?xml version="1.0" encoding="utf-8"?>
<!-- Generator: Adobe Illustrator 19.0.0, SVG Export Plug-In . SVG Version: 6.00 Build 0)  -->
<svg version="1.1" id="图层_1" xmlns="http://www.w3.org/2000/svg" xmlns:xlink="http://www.w3.org/1999/xlink" x="0px" y="0px"
	 viewBox="0 0 26.1 26.1" style="enable-background:new 0 0 26.1 26.1;" xml:space="preserve">
<style type="text/css">
	.st0{fill:#808080;}
</style>
<path id="XMLID_40_" class="st0" d="M19.5,17.8c-1.1,0-2.1,0.5-2.8,1.2l-7.5-4.7c0.2-0.4,0.2-0.9,0.2-1.3c0-0.5-0.1-0.9-0.3-1.4
	l7.6-4.4c0.7,0.7,1.7,1.1,2.7,1.1c2.1,0,3.9-1.7,3.9-3.9c0-2.1-1.7-3.9-3.9-3.9s-3.9,1.7-3.9,3.9c0,0.5,0.1,1,0.3,1.4l-7.6,4.4
	C7.6,9.5,6.7,9,5.6,9c-2.1,0-3.9,1.7-3.9,3.9c0,2.1,1.7,3.9,3.9,3.9c1.1,0,2.1-0.4,2.8-1.2l7.5,4.7c-0.1,0.4-0.2,0.8-0.2,1.3
	c0,2.1,1.7,3.9,3.9,3.9s3.9-1.7,3.9-3.9C23.4,19.5,21.7,17.8,19.5,17.8z M19.5,2.1c1.2,0,2.2,1,2.2,2.2c0,1.2-1,2.2-2.2,2.2
	s-2.2-1-2.2-2.2C17.3,3.1,18.3,2.1,19.5,2.1z M5.6,15.2c-1.2,0-2.2-1-2.2-2.2c0-1.2,1-2.2,2.2-2.2c0.7,0,1.4,0.3,1.8,0.9
	c0,0,0,0.1,0,0.1c0,0.1,0.1,0.1,0.1,0.2c0.2,0.3,0.3,0.7,0.3,1.1c0,0.4-0.1,0.8-0.4,1.2c0,0,0,0,0,0c0,0,0,0,0,0
	C7.1,14.7,6.4,15.2,5.6,15.2z M19.5,23.9c-1.2,0-2.2-1-2.2-2.2c0-0.4,0.1-0.8,0.3-1.1c0,0,0,0,0,0c0,0,0,0,0,0
	c0.4-0.6,1.1-1.1,1.9-1.1c1.2,0,2.2,1,2.2,2.2C21.8,22.9,20.8,23.9,19.5,23.9z"/>
</svg>
