<?xml version="1.0" encoding="utf-8"?>
<!-- Generator: Adobe Illustrator 19.0.0, SVG Export Plug-In . SVG Version: 6.00 Build 0)  -->
<svg version="1.1" id="图层_1" xmlns="http://www.w3.org/2000/svg" xmlns:xlink="http://www.w3.org/1999/xlink" x="0px" y="0px"
	 viewBox="0 0 20 20" style="enable-background:new 0 0 20 20;" xml:space="preserve">
<style type="text/css">
	.st0{fill:#FFC183;}
</style>
<g id="XMLID_40_">
	<g id="XMLID_63_">
		<g id="XMLID_81_">
			<path id="XMLID_122_" class="st0" d="M15.5,3L15.5,3h-3.4l0,0c0-0.1,0-0.1,0-0.3c0,0,0,0,0.1,0s0.3,0,0.4,0
				c0.3-0.1,0.6-0.1,0.9-0.4l0,0h-0.9c-0.3,0-0.6,0-0.9,0l0,0l0,0v0.6l0,0l0,0v0.6L11.2,10c0,1-0.4,1.9-1.4,1.9S8.4,11,8.4,10L8,3.3
				C8,3.2,8,3,8,2.9V2.1l0,0l0,0c-0.3,0-0.6,0-0.9,0H6.2l0,0C6.5,2.4,6.7,2.5,7,2.5c0.1,0,0.3,0,0.4,0l0,0c0,0.1,0,0.1,0,0.3l0,0h-3
				l0,0C4.3,2.9,0.2,5.8,0.2,14h2.4c0-3.8,1-6.3,1.9-7.7v10.4c0,0,4.9,2,11.1,0V6.4c0.9,1.4,1.8,3.8,1.8,7.6h2.4
				C19.8,6,15.7,3.1,15.5,3z"/>
		</g>
	</g>
	<g id="XMLID_44_">
		<g id="XMLID_45_">
			<rect id="XMLID_53_" x="9.2" y="2.4" class="st0" width="1.4" height="0.5"/>
		</g>
	</g>
	<g id="XMLID_41_">
		<g id="XMLID_42_">
			<polygon id="XMLID_43_" class="st0" points="9.9,11.4 10.4,9.8 9.8,3.1 9.2,9.8 9.8,11.4 			"/>
		</g>
	</g>
</g>
</svg>
