<?xml version="1.0" encoding="utf-8"?>
<!-- Generator: Adobe Illustrator 19.0.0, SVG Export Plug-In . SVG Version: 6.00 Build 0)  -->
<svg version="1.1" id="图层_1" xmlns="http://www.w3.org/2000/svg" xmlns:xlink="http://www.w3.org/1999/xlink" x="0px" y="0px"
	 viewBox="5 -5 30 30" style="enable-background:new 5 -5 30 30;" xml:space="preserve">
<g id="XMLID_314_">
	<g id="XMLID_321_">
		<g id="XMLID_322_">
			<path id="XMLID_323_" d="M25.2,3.5L25.2,3.5h-3.1l0,0c0-0.1,0-0.1,0-0.2l0,0c0.1,0,0.2,0,0.4,0c0.2-0.1,0.5-0.1,0.8-0.4l0,0h-0.8
				c-0.2,0-0.5,0-0.8,0l0,0l0,0v0.6l0,0l0,0v0.6l-0.5,5.9c0,0.9-0.4,1.7-1.3,1.7c-0.9,0-1.3-0.7-1.3-1.7l-0.1-6c0-0.1,0-0.2,0-0.4
				V3.1l0,0l0,0c-0.2,0-0.5,0-0.8,0h-0.7l0,0c0.2,0.1,0.5,0.2,0.7,0.4c0.1,0,0.2,0,0.4,0l0,0c0,0.1,0,0.1,0,0.2l0,0h-3l0,0
				c-0.1,0.1-3.8,2.7-3.8,10.1h2.1c0-3.4,0.8-5.6,1.7-6.9v9.4c0,0,4.4,1.9,10,0V6.9c0.8,1.3,1.7,3.4,1.7,6.9h2.1
				C29,6.3,25.3,3.6,25.2,3.5z"/>
		</g>
	</g>
	<g id="XMLID_318_">
		<g id="XMLID_319_">
			<rect id="XMLID_320_" x="19.5" y="2.9" width="1.2" height="0.5"/>
		</g>
	</g>
	<g id="XMLID_315_">
		<g id="XMLID_316_">
			<polygon id="XMLID_317_" points="20.2,11.1 20.7,9.7 20.1,3.6 19.5,9.7 20.1,11.1 			"/>
		</g>
	</g>
</g>
<path id="XMLID_311_" d="M20,24.9c-8.3,0-14.9-6.7-14.9-14.9S11.7-4.9,20-4.9S34.9,1.7,34.9,10S28.1,24.9,20,24.9z M20-3.8
	C12.4-3.8,6.2,2.4,6.2,10S12.4,23.8,20,23.8S33.8,17.6,33.8,10S27.6-3.8,20-3.8z"/>
</svg>
