<?xml version="1.0" encoding="utf-8"?>
<!-- Generator: Adobe Illustrator 19.0.0, SVG Export Plug-In . SVG Version: 6.00 Build 0)  -->
<svg version="1.1" id="图层_1" xmlns="http://www.w3.org/2000/svg" xmlns:xlink="http://www.w3.org/1999/xlink" x="0px" y="0px"
	 viewBox="0 0 20 20" style="enable-background:new 0 0 20 20;" xml:space="preserve">
<style type="text/css">
	.st0{fill:#FFC183;}
</style>
<path id="XMLID_240_" class="st0" d="M0.6,16.6c0.5-0.1,0.5,0.3,0.5,0.3s0.1,0.3,0.6,0.3c0.1,0,0,0.5,0.4,0.8s1,0.1,1,0.1
	s0.6,0,1.4,0.5C4.6,18.7,5.3,19,5.7,19c0.4-0.1,0.5,0.3,1.2,0c0.6-0.3,1.2,0.1,1.3,0.4c0.1,0.3,0.8,0.3,1.3,0s1.2-0.3,1.3-0.3
	c0.1,0,0.6,0.4,1,0.3c0.1,0,0.4,0,0.6,0.3c0.1,0.1,1-0.4,1-0.5c0.1-0.1,1.3,0,1.6-0.3c0.3-0.3,0-0.5,0.8-0.5c0.4,0,0.4-0.1,0.9-0.5
	c0.3-0.1,0.3,0,0.5,0.1c0.3,0.1,0.6,0.1,1-0.4c0.1-0.1,0.8-0.3,0.8-0.3s0.3-0.1,0.5-0.4L13.9,1.1c-1.3,0.4-2.6,0.5-4,0.5
	S7.1,1.3,5.6,1.1L0.2,16.6C0.3,16.6,0.4,16.6,0.6,16.6z"/>
</svg>
