<?xml version="1.0" encoding="utf-8"?>
<!-- Generator: Adobe Illustrator 19.0.0, SVG Export Plug-In . SVG Version: 6.00 Build 0)  -->
<svg version="1.1" id="图层_1" xmlns="http://www.w3.org/2000/svg" xmlns:xlink="http://www.w3.org/1999/xlink" x="0px" y="0px"
	 viewBox="5 -5 30 30" style="enable-background:new 5 -5 30 30;" xml:space="preserve">
<g id="XMLID_327_">
	<path id="XMLID_332_" d="M10.6,16.8c0.6-0.1,0.6,0.3,0.6,0.3s0.1,0.3,0.7,0.3c0.1,0,0,0.6,0.4,0.7c0.4,0.3,1,0.1,1,0.1
		s0.7,0,1.4,0.4c0.1,0.1,0.8,0.4,1.2,0.3c0.4-0.1,0.6,0.3,1.1,0c0.6-0.3,1.2,0.1,1.2,0.4c0.1,0.3,0.7,0.3,1.2,0
		C20,19,20.5,19,20.8,19c0.3,0,0.6,0.3,1,0.3c0.1,0,0.4,0,0.7,0.3c0.1,0.1,1-0.4,1.1-0.6c0.1-0.1,1.2,0,1.5-0.3
		c0.3-0.3,0-0.4,0.7-0.6c0.4,0,0.4-0.1,0.8-0.6c0.3-0.1,0.3,0,0.6,0.1c0.3,0.1,0.6,0.1,1-0.4c0.1-0.1,0.8-0.3,0.8-0.3
		s0.3-0.1,0.6-0.4L23.8,1.3c-1.2,0.3-2.6,0.6-4,0.6c-1.5,0-2.9-0.1-4.1-0.6l-5.4,15.4C10.3,16.8,10.5,16.8,10.6,16.8z"/>
	<path id="XMLID_328_" d="M20,24.9c-8.3,0-14.9-6.6-14.9-14.9S11.7-4.9,20-4.9S34.9,1.7,34.9,10S28.1,24.9,20,24.9z M20-3.8
		C12.4-3.8,6.2,2.4,6.2,10S12.4,23.8,20,23.8S33.8,17.6,33.8,10S27.6-3.8,20-3.8z"/>
</g>
</svg>
