<?xml version="1.0" encoding="utf-8"?>
<!-- Generator: Adobe Illustrator 19.0.0, SVG Export Plug-In . SVG Version: 6.00 Build 0)  -->
<svg version="1.1" id="图层_1" xmlns="http://www.w3.org/2000/svg" xmlns:xlink="http://www.w3.org/1999/xlink" x="0px" y="0px"
	 viewBox="0 0 20 20" style="enable-background:new 0 0 20 20;" xml:space="preserve">
<style type="text/css">
	.st0{fill:#232323;}
</style>
<path class="st0" d="M18.9,8.8c0.3-0.3,0.4-0.8,0.3-1.3c-0.1-0.4-0.5-0.8-0.9-0.8l-4.9-0.8c0,0-0.1,0-0.1-0.1l-2.1-4.7
	C10.9,1,10.5,0.8,10,0.8S9.1,1.1,9,1.4L6.9,6.1L6.8,6.2L1.9,6.8C1.4,6.9,1,7.2,0.9,7.7C0.8,8.1,0.9,8.6,1.2,9l3.6,3.5v0.1l-1.1,5.3
	c-0.1,0.5,0.1,0.9,0.5,1.3c0.3,0.1,0.5,0.3,0.6,0.3c0.3,0,0.4,0,0.6-0.1l4.5-3c0,0,0,0,0.1,0h0.1l4.9,2.8c0.1,0.1,0.4,0.1,0.6,0.1
	c0.2,0,0.5-0.1,0.8-0.3c0.4-0.3,0.5-0.8,0.4-1.3l-1.5-5.2v-0.1L18.9,8.8z"/>
</svg>
