<?xml version="1.0" encoding="utf-8"?>
<!-- Generator: Adobe Illustrator 19.0.0, SVG Export Plug-In . SVG Version: 6.00 Build 0)  -->
<svg version="1.1" id="图层_1" xmlns="http://www.w3.org/2000/svg" xmlns:xlink="http://www.w3.org/1999/xlink" x="0px" y="0px"
	 viewBox="0 0 25 25" style="enable-background:new 0 0 25 25;" xml:space="preserve">
<g id="XMLID_512_">
	<path id="XMLID_93_" d="M12.8,23h-10c-0.3,0-0.5-0.2-0.5-0.5v-19C2.3,3.2,2.6,3,2.8,3h10c0.3,0,0.5,0.2,0.5,0.5v19
		C13.3,22.8,13.1,23,12.8,23z M3.3,22h9V4h-9V22z"/>
	<path id="XMLID_90_" d="M21.8,23h-9c-0.3,0-0.5-0.2-0.5-0.5v-14c0-0.3,0.2-0.5,0.5-0.5h9c0.3,0,0.5,0.2,0.5,0.5v14
		C22.3,22.8,22.1,23,21.8,23z M13.3,22h8V9h-8V22z"/>
	<path id="XMLID_89_" d="M6.8,14.5c-0.3,0-0.5-0.2-0.5-0.5V6c0-0.3,0.2-0.5,0.5-0.5S7.3,5.7,7.3,6v8C7.3,14.3,7.1,14.5,6.8,14.5z"/>
	<path id="XMLID_88_" d="M8.8,14.5c-0.3,0-0.5-0.2-0.5-0.5V6c0-0.3,0.2-0.5,0.5-0.5S9.3,5.7,9.3,6v8C9.3,14.3,9.1,14.5,8.8,14.5z"/>
	<path id="XMLID_8_" d="M18.8,23h-3c-0.3,0-0.5-0.2-0.5-0.5v-4c0-0.3,0.2-0.5,0.5-0.5h3c0.3,0,0.5,0.2,0.5,0.5v4
		C19.3,22.8,19.1,23,18.8,23z M16.3,22h2v-3h-2V22z"/>
	<path id="XMLID_5_" d="M8.8,23h-2c-0.3,0-0.5-0.2-0.5-0.5v-4c0-0.3,0.2-0.5,0.5-0.5h2c0.3,0,0.5,0.2,0.5,0.5v4
		C9.3,22.8,9.1,23,8.8,23z M7.3,22h1v-3h-1V22z"/>
	<path id="XMLID_4_" d="M19.3,15h-3c-0.3,0-0.5-0.2-0.5-0.5s0.2-0.5,0.5-0.5h3c0.3,0,0.5,0.2,0.5,0.5S19.6,15,19.3,15z"/>
	<path id="XMLID_3_" d="M19.3,13h-3c-0.3,0-0.5-0.2-0.5-0.5s0.2-0.5,0.5-0.5h3c0.3,0,0.5,0.2,0.5,0.5S19.6,13,19.3,13z"/>
</g>
</svg>
