<?xml version="1.0" encoding="utf-8"?>
<!-- Generator: Adobe Illustrator 19.0.0, SVG Export Plug-In . SVG Version: 6.00 Build 0)  -->
<svg version="1.1" id="图层_1" xmlns="http://www.w3.org/2000/svg" xmlns:xlink="http://www.w3.org/1999/xlink" x="0px" y="0px"
	 viewBox="0 0 70 70" style="enable-background:new 0 0 70 70;" xml:space="preserve">
<style type="text/css">
	.st0{fill:#999999;}
</style>
<path id="XMLID_14_" class="st0" d="M69.3,33.5l-6.7-16l0-0.4c0,0,0,0,0,0c0,0,0-0.1,0-0.1c0-0.2-0.1-0.4-0.3-0.6c0,0,0,0,0,0
	c-0.1-0.1-0.2-0.1-0.3-0.2c0,0,0,0-0.1,0c0,0,0,0,0,0L32.8,7.5c-0.3-0.1-0.5,0-0.8,0.1L10.3,19.8c-0.5-0.1-1,0.1-1.2,0.5l-8,17.2
	c-0.1,0.3-0.1,0.6,0,0.8c0.1,0.3,0.3,0.5,0.6,0.5l5.6,1.7l0.1,11.1c0,0.4,0.3,0.8,0.7,0.9l34,11.6c0.1,0,0.2,0.1,0.3,0.1
	c0.2,0,0.5-0.1,0.7-0.3l20-18c0.2-0.2,0.3-0.5,0.3-0.8l-0.3-10l5.4-0.5c0.3,0,0.6-0.2,0.8-0.5C69.4,34.1,69.4,33.8,69.3,33.5z
	 M31,25.9l-18-5.3l18-10.1V25.9z M41.9,29.1C41.9,29.1,41.9,29.1,41.9,29.1L33,26.5V9.7l26.3,7.9L41.9,29.1z M10.4,22.4l29.9,8.9
	l-4.5,16L3.4,37.3L10.4,22.4z M9.3,41.2l26.8,8.2c0.1,0,0.2,0,0.3,0c0.2,0,0.3,0,0.5-0.1c0.2-0.1,0.4-0.3,0.5-0.6l3.4-11.9l0.5,25.1
	L9.4,51L9.3,41.2z M43.3,61.2l-0.7-30.1l18-12.1l0.7,25.9L43.3,61.2z M63,33.3L62.8,23l4.2,9.9L63,33.3z"/>
</svg>
