<?xml version="1.0" encoding="utf-8"?>
<!-- Generator: Adobe Illustrator 19.0.0, SVG Export Plug-In . SVG Version: 6.00 Build 0)  -->
<svg version="1.1" id="图层_1" xmlns="http://www.w3.org/2000/svg" xmlns:xlink="http://www.w3.org/1999/xlink" x="0px" y="0px"
	 viewBox="0 0 70 70" style="enable-background:new 0 0 70 70;" xml:space="preserve">
<style type="text/css">
	.st0{fill-rule:evenodd;clip-rule:evenodd;}
</style>
<g id="XMLID_1050_">
	<path id="XMLID_1066_" class="st0" d="M53.2,27.2c-0.5,0-0.9-0.4-0.9-0.9c0-0.5,0.4-0.9,0.9-0.9h5v-2.7h-3.9
		c-0.5,0-0.9-0.4-0.9-0.9c0-0.5,0.4-0.9,0.9-0.9H59h0c0.5,0,0.9,0.4,0.9,0.9v4.4v0c0,0.5-0.4,0.9-0.9,0.9H53.2L53.2,27.2z
		 M42.8,21.1c0.4,0,0.8,0.4,0.8,0.9c0,0.5-0.4,0.9-0.8,0.9H12v2.7h29.8c0.4,0,0.8,0.4,0.8,0.9c0,0.5-0.4,0.9-0.8,0.9H11.2h0
		c-0.4,0-0.8-0.4-0.8-0.9V22v0c0-0.5,0.4-0.9,0.8-0.9H42.8z"/>
	<g id="XMLID_1060_">
		<path id="XMLID_1063_" class="st0" d="M53.3,12.3L50,11.4l-7.2,26.7l0.4,4.9l2.8-4.1L53.3,12.3L53.3,12.3z M49.7,9.6l4.9,1.3
			c0.5,0.1,0.7,0.6,0.6,1l-7.4,27.7l0,0c0,0.1-0.1,0.2-0.1,0.3L43.4,46c-0.1,0.2-0.4,0.4-0.7,0.4c-0.5,0-0.9-0.3-0.9-0.8l-0.6-7.5
			c0-0.1,0-0.2,0-0.3l7.4-27.7C48.7,9.7,49.2,9.5,49.7,9.6z"/>
		<path id="XMLID_1062_" class="st0" d="M42.5,38.8c-0.4,0.3-0.9,0.2-1.2-0.2c-0.3-0.4-0.2-0.9,0.2-1.2c0.2-0.1,0.4-0.3,0.6-0.3
			c0.9-0.4,1.9-0.5,2.8-0.2c0.9,0.2,1.8,0.8,2.3,1.6c0.1,0.2,0.2,0.4,0.3,0.6c0.2,0.4,0,0.9-0.4,1.1c-0.4,0.2-0.9,0-1.1-0.4
			c-0.1-0.1-0.1-0.2-0.2-0.3c-0.3-0.5-0.8-0.8-1.4-0.9c-0.6-0.1-1.2-0.1-1.7,0.1C42.7,38.7,42.6,38.7,42.5,38.8z"/>
		<path id="XMLID_1061_" class="st0" d="M41.8,45.3c0.1-0.5,0.6-0.7,1-0.6c0.5,0.1,0.7,0.6,0.6,1l-0.5,1.9c-0.1,0.5-0.6,0.7-1,0.6
			c-0.5-0.1-0.7-0.6-0.6-1L41.8,45.3z"/>
	</g>
	<path id="XMLID_1059_" class="st0" d="M10.4,30.7c0-0.5,0.3-0.9,0.8-0.9c0.4,0,0.8,0.4,0.8,0.9v24.2c0,0.4,0.1,0.7,0.4,1l0,0
		c0.2,0.2,0.5,0.4,0.8,0.4h42.7c0.3,0,0.6-0.2,0.8-0.4l0,0c0.2-0.2,0.3-0.6,0.3-1V30.7c0-0.5,0.3-0.9,0.8-0.9c0.4,0,0.8,0.4,0.8,0.9
		v24.2c0,0.8-0.3,1.6-0.8,2.2l0,0c-0.5,0.6-1.2,0.9-1.9,0.9H13.1c-0.7,0-1.4-0.3-1.8-0.8l-0.1-0.1c-0.5-0.6-0.8-1.3-0.8-2.2V30.7z"
		/>
	<g id="XMLID_1051_">
		<path id="XMLID_1058_" class="st0" d="M37.1,46.1c0.4,0,0.8,0.4,0.8,0.9c0,0.5-0.4,0.9-0.8,0.9H16c-0.4,0-0.8-0.4-0.8-0.9
			c0-0.5,0.4-0.9,0.8-0.9H37.1z"/>
		<path id="XMLID_1056_" class="st0" d="M37.5,36.8c0.4,0,0.8,0.4,0.8,0.9c0,0.5-0.4,0.9-0.8,0.9H16c-0.4,0-0.8-0.4-0.8-0.9
			c0-0.5,0.4-0.9,0.8-0.9H37.5z"/>
		<path id="XMLID_1054_" class="st0" d="M38.5,32.4c0.4,0,0.8,0.4,0.8,0.9c0,0.5-0.4,0.9-0.8,0.9H16c-0.4,0-0.8-0.4-0.8-0.9
			c0-0.5,0.4-0.9,0.8-0.9H38.5z"/>
		<path id="XMLID_1052_" class="st0" d="M37.4,41.2c0.4,0,0.8,0.4,0.8,0.9c0,0.5-0.4,0.9-0.8,0.9H16c-0.4,0-0.8-0.4-0.8-0.9
			c0-0.5,0.4-0.9,0.8-0.9H37.4z"/>
	</g>
</g>
</svg>
