<?xml version="1.0" encoding="utf-8"?>
<!-- Generator: Adobe Illustrator 19.0.0, SVG Export Plug-In . SVG Version: 6.00 Build 0)  -->
<svg version="1.1" id="图层_1" xmlns="http://www.w3.org/2000/svg" xmlns:xlink="http://www.w3.org/1999/xlink" x="0px" y="0px"
	 viewBox="0 0 60 60" style="enable-background:new 0 0 60 60;" xml:space="preserve">
<style type="text/css">
	.st0{fill:#344D67;}
</style>
<path id="XMLID_71_" class="st0" d="M7.4,49.2l-0.3,0c-0.4,0-0.8-0.3-0.9-0.6c-0.1-0.4-0.1-0.8,0.2-1.1c1.8-1.7,3.3-3.7,4.3-6
	c-5.7-3-9.2-8.2-9.2-13.9c0-9.1,8.9-16.4,19.7-16.4s19.7,7.4,19.7,16.4c0,9.1-8.9,16.4-19.7,16.4c-0.1,0-0.2,0-0.3,0
	c-2.3,2-5.1,3.6-8.2,4.4C11.1,48.9,9.3,49.2,7.4,49.2z M21.3,13.2c-9.8,0-17.7,6.5-17.7,14.4c0,5.1,3.4,9.9,8.9,12.5
	c0.5,0.2,0.7,0.8,0.5,1.3c-0.8,2-2,3.9-3.4,5.6c0.9-0.1,1.8-0.3,2.7-0.5c2.9-0.8,5.5-2.3,7.7-4.2c0.2-0.2,0.4-0.3,0.7-0.3
	c0.3,0,0.5,0,0.7,0c9.8,0,17.7-6.5,17.7-14.4C39.1,19.7,31.1,13.2,21.3,13.2z"/>
<path id="XMLID_68_" class="st0" d="M52.1,47.6c0,0-0.1,0-0.1,0c-1-0.1-2-0.3-3-0.6c-3-0.8-5.8-2.4-8.1-4.4c-1.3,0-2.6,0-3.9-0.2
	c-0.4-0.1-0.7-0.3-0.8-0.7c-0.1-0.4,0-0.8,0.3-1c3.9-3.4,6-8,6-13c0-5.4-2.4-10.2-6.9-13.7c-0.3-0.2-0.4-0.6-0.4-1
	c0.1-0.4,0.4-0.7,0.8-0.7c1.4-0.3,2.9-0.4,4.3-0.4c10.4,0,18.9,6.9,18.9,15.4c0,5.5-3.6,10.6-9.5,13.4c0,0,0,0.1,0,0.1
	c0.8,1.9,1.9,3.7,3.2,5.3c0.3,0.3,0.3,0.8,0.1,1.1C52.8,47.4,52.5,47.6,52.1,47.6z M41,40.5c0.4,0,0.9,0.2,1.2,0.5
	c2.1,1.9,4.6,3.3,7.3,4c0.1,0,0.2,0.1,0.3,0.1c-0.8-1.2-1.4-2.5-2-3.8c-0.2-0.5-0.2-1,0-1.5c0.2-0.5,0.5-0.9,1-1.2
	c5.2-2.4,8.4-6.9,8.4-11.6c0-7.4-7.6-13.4-16.9-13.4c-0.6,0-1.2,0-1.8,0.1c3.8,3.7,6,8.7,6,13.8c0,4.8-1.8,9.3-5.1,12.9
	c0.5,0,1,0,1.4,0C40.9,40.6,40.9,40.5,41,40.5z"/>
</svg>
