<?xml version="1.0" encoding="utf-8"?>
<!-- Generator: Adobe Illustrator 19.0.0, SVG Export Plug-In . SVG Version: 6.00 Build 0)  -->
<svg version="1.1" id="图层_1" xmlns="http://www.w3.org/2000/svg" xmlns:xlink="http://www.w3.org/1999/xlink" x="0px" y="0px"
	 viewBox="0 0 70 70" style="enable-background:new 0 0 70 70;" xml:space="preserve">
<g id="XMLID_1069_">
	<g id="XMLID_1075_">
		<path id="XMLID_53_" d="M13,32.8c-0.3,0-0.5-0.1-0.6-0.4L5.7,20.7c-2.2-3.9-1-8.8,2.8-11.2l0.1-0.1c2.7-1.7,6.1-1.7,8.8,0l0.1,0.1
			c3.8,2.4,5,7.3,2.8,11.2l-6.7,11.7C13.5,32.6,13.3,32.8,13,32.8z M13,9.6c-1.3,0-2.5,0.3-3.6,1l-0.1,0.1c-3.1,2-4.2,6-2.3,9.2
			L13,30.6L19.1,20c1.8-3.2,0.8-7.3-2.3-9.2l-0.1-0.1C15.5,10,14.3,9.6,13,9.6z"/>
		<path id="XMLID_50_" d="M13,19.9c-1.8,0-3.3-1.5-3.3-3.3s1.5-3.3,3.3-3.3s3.3,1.5,3.3,3.3S14.8,19.9,13,19.9z M13,14.7
			c-1,0-1.8,0.8-1.8,1.8c0,1,0.8,1.8,1.8,1.8s1.8-0.8,1.8-1.8C14.8,15.5,14,14.7,13,14.7z"/>
		<path id="XMLID_49_" d="M13,37.9c-5.6,0-9.7-2-9.7-4.6c0-2.3,3.4-4.2,8.3-4.5l0.1,1.5c-4.3,0.3-6.9,1.8-6.9,3.1
			c0,1.5,3.4,3.1,8.3,3.1c4.9,0,8.3-1.7,8.3-3.1c0-1.3-2.6-2.8-6.9-3.1l0.1-1.5c4.9,0.3,8.3,2.2,8.3,4.5
			C22.7,35.9,18.5,37.9,13,37.9z"/>
	</g>
	<g id="XMLID_1071_">
		<path id="XMLID_46_" d="M57.7,50.6c-0.3,0-0.5-0.1-0.6-0.4l-6.7-11.7c-2.2-3.9-1-8.8,2.8-11.2l0.1-0.1c2.7-1.7,6.1-1.7,8.8,0
			l0.1,0.1c3.8,2.4,5,7.3,2.8,11.2l-6.7,11.7C58.2,50.5,58,50.6,57.7,50.6z M57.7,27.5c-1.3,0-2.5,0.3-3.6,1L54,28.6
			c-3.1,2-4.2,6-2.3,9.2l6.1,10.6l6.1-10.6c1.8-3.2,0.8-7.3-2.3-9.2l-0.1-0.1C60.3,27.8,59,27.5,57.7,27.5z"/>
		<path id="XMLID_43_" d="M57.7,37.7c-1.8,0-3.3-1.5-3.3-3.3s1.5-3.3,3.3-3.3s3.3,1.5,3.3,3.3S59.6,37.7,57.7,37.7z M57.7,32.6
			c-1,0-1.8,0.8-1.8,1.8c0,1,0.8,1.8,1.8,1.8c1,0,1.8-0.8,1.8-1.8C59.6,33.4,58.8,32.6,57.7,32.6z"/>
		<path id="XMLID_42_" d="M57.7,55.8c-5.6,0-9.7-2-9.7-4.6c0-2.3,3.4-4.2,8.3-4.5l0.1,1.5c-4.3,0.3-6.9,1.8-6.9,3.1
			c0,1.5,3.4,3.1,8.3,3.1s8.3-1.7,8.3-3.1c0-1.3-2.6-2.8-6.9-3.1l0.1-1.5c4.9,0.3,8.3,2.2,8.3,4.5C67.5,53.8,63.3,55.8,57.7,55.8z"
			/>
	</g>
	<path id="XMLID_41_" d="M48.7,51.9H9c-0.4,0-0.7-0.3-0.7-0.7v-7c0-0.4,0.3-0.7,0.7-0.7h35.5V34H23c-0.4,0-0.7-0.3-0.7-0.7
		s0.3-0.7,0.7-0.7h22.2c0.4,0,0.7,0.3,0.7,0.7v10.9c0,0.4-0.3,0.7-0.7,0.7H9.7v5.5h39c0.4,0,0.7,0.3,0.7,0.7S49.1,51.9,48.7,51.9z"
		/>
</g>
</svg>
