<?xml version="1.0" encoding="utf-8"?>
<!-- Generator: Adobe Illustrator 19.0.0, SVG Export Plug-In . SVG Version: 6.00 Build 0)  -->
<svg version="1.1" id="图层_1" xmlns="http://www.w3.org/2000/svg" xmlns:xlink="http://www.w3.org/1999/xlink" x="0px" y="0px"
	 viewBox="0 0 20 20" style="enable-background:new 0 0 20 20;" xml:space="preserve">
<style type="text/css">
	.st0{fill:#344D67;}
</style>
<path id="XMLID_4789_" class="st0" d="M17.5,19.1H2.3c-1.1,0-2.1-1-2.1-2v-0.5c0-0.1,0.1-1.5,2.6-2.7c0.2-0.1,0.6-0.4,0.9-0.5
	c0.9-0.6,2.1-1.4,3.7-1.7C6.9,10.9,6.5,10,6.2,8.9C5.9,8.2,5.9,7.5,5.9,6.8V6.4c0-0.1,0-0.4,0-0.6c0-0.6,0-1.4,0.1-1.9
	c0.4-2,1.7-3,3.9-3s3.4,1,3.9,3c0.1,0.5,0.1,1.2,0.1,1.9c0,0.2,0,0.5,0,0.6v0.4c0,0.7,0,1.4-0.2,2.1c-0.5,1.1-0.9,2.1-1.2,2.7
	c1.6,0.4,2.9,1.1,3.7,1.7c0.4,0.2,0.6,0.4,1,0.5c2.5,1.1,2.6,2.5,2.6,2.6v0.4C19.6,18.1,18.7,19.1,17.5,19.1z M9.9,1.8
	c-1.7,0-2.7,0.7-3.1,2.4c-0.1,0.4-0.1,1.1,0,1.6c0,0.2,0,0.5,0,0.6v0.4c0,0.7,0,1.2,0.2,1.9c0.5,1.2,0.9,2.4,1.5,3
	c0.1,0.1,0.1,0.2,0.1,0.4s-0.1,0.2-0.4,0.2c-1.7,0.4-3,1.1-4.1,1.7c-0.4,0.2-0.7,0.4-1,0.6c-2,1-2.1,1.9-2.1,1.9V17
	c0,0.5,0.6,1.1,1.2,1.1h15.1c0.7,0,1.2-0.6,1.2-1.2v-0.4l0,0c0,0-0.1-1-2.1-1.9l0,0c-0.2-0.1-0.6-0.4-1-0.6c-1-0.6-2.4-1.5-4.1-1.7
	c-0.1,0-0.2-0.1-0.4-0.2c0-0.1,0-0.2,0.1-0.4c0.5-0.6,1-1.7,1.5-3.1c0.2-0.6,0.1-1.1,0.1-1.9V6.3c0-0.2,0-0.5,0-0.7
	c0-0.6,0-1.2,0-1.6C12.5,2.4,11.6,1.8,9.9,1.8z"/>
</svg>
