<?xml version="1.0" encoding="utf-8"?>
<!-- Generator: Adobe Illustrator 19.0.0, SVG Export Plug-In . SVG Version: 6.00 Build 0)  -->
<svg version="1.1" id="图层_1" xmlns="http://www.w3.org/2000/svg" xmlns:xlink="http://www.w3.org/1999/xlink" x="0px" y="0px"
	 viewBox="0 0 20 20" style="enable-background:new 0 0 20 20;" xml:space="preserve">
<style type="text/css">
	.st0{fill:#4D4D4D;}
</style>
<g id="XMLID_226_">
	<path id="XMLID_280_" class="st0" d="M12.1,4.5c0.1,0.4,0.1,0.5,0.1,0.8c0,0.1-0.1,0.8-0.1,1.1c0,0.2,0.1,0.2,0.1,0.4
		c0.1,0.2,0.1,0.6,0,0.8c0,0.1-0.1,0.4-0.1,0.5c-0.1,0.1-0.2,0.1-0.4,0.2c-0.1,0.2,0,0.5-0.1,0.7s-0.4,0.2-0.4,0.6
		c0.1,0,0.2,0,0.4,0c0.1,0.2,0.4,0.7,0.5,0.8c0.1,0,0.4,0.1,0.5,0.1c0.6,0.2,1.3,0.5,1.9,0.8c0.6,0.2,1.3,0.4,1.5,0.8
		c0,0.4,0,1.4,0,1.9H4.1c0-0.5,0-1.5,0-1.9c0.2-0.6,0.8-0.6,1.5-0.8c0.6-0.2,1.3-0.6,1.9-0.8c0.1,0,0.4-0.1,0.5-0.1
		c0.2-0.1,0.4-0.6,0.5-0.8h0.2c0-0.4-0.2-0.4-0.4-0.6c0-0.4-0.1-0.6-0.1-0.9H8c-0.2,0-0.2-0.8-0.2-1.3c0-0.1,0.2-0.2,0.1-0.6
		C7.5,4.5,8,3.7,8.8,3.5c0.5-0.2,1.6-0.6,2.6,0l0.2,0.2L12,3.8C12,4.1,12.1,4.5,12.1,4.5z"/>
	<path id="XMLID_227_" class="st0" d="M10,20C4.5,20,0,15.4,0,10C0,4.5,4.6,0,10,0c5.5,0,10,4.6,10,10C20,15.5,15.5,20,10,20z
		 M10,0.7c-5.1,0-9.2,4.2-9.2,9.2S5,19.1,10,19.1s9.2-4.2,9.2-9.2C19.2,4.9,15.1,0.7,10,0.7z"/>
</g>
</svg>
