<?xml version="1.0" encoding="utf-8"?>
<!-- Generator: Adobe Illustrator 19.0.0, SVG Export Plug-In . SVG Version: 6.00 Build 0)  -->
<svg version="1.1" id="图层_1" xmlns="http://www.w3.org/2000/svg" xmlns:xlink="http://www.w3.org/1999/xlink" x="0px" y="0px"
	 viewBox="0 0 40 40" style="enable-background:new 0 0 40 40;" xml:space="preserve">
<path id="XMLID_132_" d="M20.5,34c-1.3,0-13.2-0.1-13.2-4.7c0-4.7,3.3-6.2,7.4-7.5c1.4-0.5,2.1-1.3,2.4-2.9
	c-1.8-0.7-2.8-4.4-2.8-7.9c0-3.4,2.7-6.1,6.1-6.1s6.1,2.7,6.1,6.1c0,3.5-1,7.2-2.8,7.9c0.3,1.6,1.1,2.4,2.4,2.9c0,0,0,0,0,0
	c4,1.3,7.4,2.8,7.4,7.5C33.7,33.9,21.9,34,20.5,34z M18.2,18.7c-0.4,2.2-1.3,3.4-3.2,4c-4.5,1.5-6.7,2.9-6.7,6.6c0,3,9,3.7,12.2,3.7
	c3.2,0,12.2-0.7,12.2-3.7c0-3.7-2.2-5.1-6.7-6.6l0,0c-1.8-0.6-2.8-1.8-3.2-4c0-0.1-0.1-0.1-0.1-0.2c0-0.3,0.2-0.5,0.5-0.5
	c1.1,0,2.4-3,2.4-7c0-2.8-2.3-5.1-5.1-5.1s-5.1,2.3-5.1,5.1c0,4,1.2,7,2.4,7c0.3,0,0.5,0.2,0.5,0.5C18.3,18.6,18.2,18.7,18.2,18.7z"
	/>
</svg>
