<?xml version="1.0" encoding="utf-8"?>
<!-- Generator: Adobe Illustrator 19.0.0, SVG Export Plug-In . SVG Version: 6.00 Build 0)  -->
<svg version="1.1" id="图层_1" xmlns="http://www.w3.org/2000/svg" xmlns:xlink="http://www.w3.org/1999/xlink" x="0px" y="0px"
	 viewBox="-4 6 20 20" style="enable-background:new -4 6 20 20;" xml:space="preserve">
<path d="M4.3,24.1C4.3,24.1,4.3,24.1,4.3,24.1c-0.1,0-0.2-0.1-0.3-0.2l-0.2-0.3c-0.2-0.3-0.4-0.6-0.5-0.8c-0.2-0.3-0.4-0.6-0.6-0.9
	c-0.2-0.3-0.3-0.5-0.5-0.7c0-0.1-0.1-0.1-0.1-0.2c-0.5,0.8-1.4,1.5-2.4,1.5c-0.5,0-1.8-0.2-2.4-2.1C-3,19.7-2.9,19-2.5,18.3
	c0.5-0.9,1.6-1,2.5-1.1c-0.1-0.2-0.1-0.3-0.2-0.5c-0.1-0.2-0.2-0.4-0.3-0.6c-0.1-0.3-0.3-0.6-0.5-0.9c-0.2-0.3-0.4-0.6-0.5-0.9
	L-1.7,14c-0.1-0.2,0-0.4,0.1-0.5l0.3-0.2c0.3-0.2,0.6-0.3,0.9-0.5c0.3-0.2,0.6-0.4,0.9-0.5c0.1-0.1,0.3-0.1,0.4-0.2
	c0.4-0.2,0.8-0.4,1.1-0.7l0.3-0.2c0.1-0.1,0.3-0.1,0.5,0L3,11.3c0.5,0.7,0.6,1.4,0.6,2c0,0.3,0,0.7,0.1,0.8c0,0,0.1,0.1,0.5,0
	c0.5,0,0.9-0.4,1.2-0.9c0.1-0.2,0.2-0.5,0-0.8c0,0,0,0,0,0c0,0-0.1,0-0.1,0c-0.8-0.2-1.2-0.5-1.4-0.9c-0.2-0.5-0.1-0.8,0.1-1.1
	c0-0.1,0.1-0.2,0.2-0.3L4.2,10C4.5,9.8,4.7,9.7,5,9.5c0.3-0.1,0.5-0.3,0.8-0.4c0.3-0.2,0.5-0.3,0.8-0.5c0.3-0.1,0.5-0.3,0.8-0.4
	L7.8,8c0.2-0.1,0.4,0,0.5,0.2L9,9.4c0.3,0.5,0.6,1.3,1,1.7c0.4-0.9,1.3-1.5,2.3-1.5c0.8-0.1,2.3,0.4,2.7,2.3c0.2,0.8,0.1,1.5-0.3,2
	c-0.5,0.8-1.4,0.9-2.1,0.9c-0.1,0-0.2,0-0.4,0.1c0.1,0.1,0.1,0.2,0.2,0.3c0.1,0.2,0.3,0.5,0.4,0.7c0.1,0.3,0.3,0.6,0.4,0.9
	c0.1,0.3,0.3,0.6,0.4,0.9l0.2,0.4c0.1,0.1,0.1,0.2,0,0.3s-0.1,0.2-0.2,0.2l-0.4,0.1c-0.1,0-0.3,0.2-0.5,0.3
	c-0.1,0.1-0.2,0.2-0.3,0.2l-0.2,0.2c-0.7,0.5-1.6,1-2.4,1.2l-0.3,0c-0.5-0.1-0.8-0.4-0.8-0.7l0,0c-0.1-0.1-0.1-0.2-0.1-0.3v-0.2
	c0.2-1-0.1-1.6-0.4-1.8c-0.3-0.1-0.9,0.1-1.5,0.7C6.3,18.7,6.3,19,6.3,19c0.1,0.3,0.7,0.7,1,0.9c0.5,0.3,1.2,0.7,1,1.5v0
	c0,0.1,0,0.2-0.1,0.3l-0.1,0.1c-0.6,0.4-1.1,0.7-1.7,1c-0.5,0.3-0.9,0.6-1.5,0.9l-0.2,0.3C4.5,24,4.4,24.1,4.3,24.1z M2.1,19.9
	c0.1,0,0.3,0.1,0.3,0.2c0.1,0.2,0.3,0.5,0.4,0.7C3,21,3.2,21.3,3.3,21.5c0.2,0.3,0.4,0.6,0.5,0.8c0.1,0.2,0.3,0.5,0.4,0.7
	c0,0,0.1-0.1,0.1-0.1C5,22.7,5.5,22.4,6,22.1c0.6-0.3,1.1-0.6,1.5-0.9c0,0,0,0,0-0.1c0.1-0.2-0.1-0.3-0.6-0.6
	c-0.6-0.4-1.3-0.8-1.4-1.4c0-0.4,0.2-0.8,0.5-1.1c0.8-0.8,1.7-1.1,2.3-0.9c0.7,0.3,1.1,1.3,0.8,2.5c0.1,0.1,0.1,0.2,0.1,0.3v0
	c0,0,0,0.1,0.2,0.1l0,0h0.1c0.6-0.2,1.4-0.7,2.1-1.1l0.2-0.2c0.1-0.1,0.2-0.1,0.3-0.2c0.2-0.2,0.4-0.3,0.7-0.4
	c-0.1-0.3-0.3-0.6-0.4-0.9c-0.1-0.3-0.3-0.6-0.4-0.9c-0.1-0.3-0.2-0.5-0.3-0.7c-0.1-0.2-0.3-0.5-0.4-0.7c0-0.1,0-0.2,0-0.3
	c0-0.1,0.1-0.2,0.2-0.2c0.3-0.1,0.7-0.2,1-0.2c0.8,0,1.2-0.2,1.5-0.5c0.2-0.3,0.3-0.6,0.1-1.4c-0.3-1.4-1.3-1.8-1.9-1.7
	c-1,0-1.6,0.8-1.8,1.5c0,0.1-0.1,0.2-0.2,0.3c-0.1,0-0.2,0-0.4,0c-0.6-0.4-1.2-1.5-1.6-2.4L7.8,8.8l-0.1,0C7.5,9,7.3,9.1,7,9.3
	C6.7,9.4,6.4,9.6,6.2,9.7C5.9,9.9,5.7,10,5.4,10.2c-0.3,0.1-0.5,0.3-0.8,0.4l0,0c0,0,0,0.1-0.1,0.1c-0.1,0.1,0,0.3,0,0.4
	c0.1,0.2,0.4,0.3,0.8,0.5c0,0,0.1,0,0.2,0c0,0,0,0,0,0c0.2,0,0.3,0,0.4,0.2c0.5,0.7,0.3,1.3,0.2,1.7c0,0,0,0.1,0,0.1
	c-0.3,0.7-1,1.3-1.8,1.3c-0.3,0-0.8,0-1-0.2c-0.3-0.3-0.3-0.8-0.3-1.3c0-0.6-0.1-1.1-0.4-1.4l0,0c-0.4,0.3-0.8,0.5-1.2,0.8
	c-0.1,0.1-0.3,0.2-0.4,0.2c-0.3,0.2-0.6,0.3-0.8,0.5c-0.3,0.2-0.6,0.4-0.9,0.5l0.1,0.1c0.1,0.3,0.3,0.6,0.5,0.9
	c0.2,0.3,0.4,0.6,0.5,0.9c0.1,0.2,0.2,0.4,0.3,0.6c0.2,0.3,0.3,0.7,0.4,1c0,0.1,0,0.2-0.1,0.3C0.7,17.9,0.6,18,0.5,18H0.3
	c-0.8,0-1.8,0.1-2.2,0.7c-0.3,0.5-0.3,1-0.1,1.6c0.4,1.3,1.1,1.6,1.6,1.6c1,0,1.7-0.8,2.1-1.7C1.8,20,1.9,19.9,2.1,19.9
	C2.1,19.9,2.1,19.9,2.1,19.9z"/>
</svg>
