<?xml version="1.0" encoding="utf-8"?>
<!-- Generator: Adobe Illustrator 19.0.0, SVG Export Plug-In . SVG Version: 6.00 Build 0)  -->
<svg version="1.1" id="图层_1" xmlns="http://www.w3.org/2000/svg" xmlns:xlink="http://www.w3.org/1999/xlink" x="0px" y="0px"
	 viewBox="0 0 20 20" style="enable-background:new 0 0 20 20;" xml:space="preserve">
<style type="text/css">
	.st0{fill:#FFC183;}
</style>
<path id="XMLID_239_" class="st0" d="M15.6,16.6c0.5-0.7,0.7-1.5,0.7-2.4s-0.2-1.6-0.7-2.4V6C14.1,5.3,14,4.3,14,4.3V0.7h-1.9
	c0,0,0.6,3.6-0.7,3.6c-1.4,0-2.2,0-3.3,0c-1,0-0.7-3.6-0.7-3.6h-2v3.6c0,0-0.1,0.9-1.4,1.7v5.7c-0.6,0.8-0.8,1.6-0.8,2.6
	c0,2.9,2.9,5.4,6.5,5.4c2.4,0,4.5-1.2,5.7-2.8h0.1L15.6,16.6L15.6,16.6z"/>
</svg>
