<?xml version="1.0" encoding="utf-8"?>
<!-- Generator: Adobe Illustrator 19.0.0, SVG Export Plug-In . SVG Version: 6.00 Build 0)  -->
<svg version="1.1" id="图层_1" xmlns="http://www.w3.org/2000/svg" xmlns:xlink="http://www.w3.org/1999/xlink" x="0px" y="0px"
	 viewBox="5 -5 30 30" style="enable-background:new 5 -5 30 30;" xml:space="preserve">
<style type="text/css">
	.st0{fill:#1A1A1A;}
</style>
<path id="XMLID_310_" class="st0" d="M25.5,16.5c0.5-0.7,0.7-1.6,0.7-2.4s-0.2-1.7-0.7-2.4v-6c-1.5-0.7-1.6-1.8-1.6-1.8V0.2h-1.7
	c0,0,0.6,3.7-0.7,3.7c-1.3,0-2.1,0-3.1,0s-0.7-3.7-0.7-3.7h-1.7v3.7c0,0-0.1,0.9-1.3,1.8v5.8c-0.5,0.8-0.8,1.7-0.8,2.7
	c0,3,2.8,5.4,6.2,5.4c2.4,0,4.4-1.2,5.4-2.9h0.1v-0.2H25.5z"/>
<path id="XMLID_307_" class="st0" d="M20,24.9c-8.3,0-15-6.7-15-15s6.7-15,15-15s15,6.7,15,15S28.2,24.9,20,24.9z M20-4
	C12.4-4,6.2,2.3,6.2,9.9S12.4,23.7,20,23.7s13.8-6.2,13.8-13.8S27.6-4,20-4z"/>
</svg>
