<?xml version="1.0" encoding="utf-8"?>
<!-- Generator: Adobe Illustrator 19.0.0, SVG Export Plug-In . SVG Version: 6.00 Build 0)  -->
<svg version="1.1" id="图层_1" xmlns="http://www.w3.org/2000/svg" xmlns:xlink="http://www.w3.org/1999/xlink" x="0px" y="0px"
	 viewBox="0 0 60 60" style="enable-background:new 0 0 60 60;" xml:space="preserve">
<style type="text/css">
	.st0{fill:#F7931E;}
</style>
<g id="XMLID_1110_">
	<path id="XMLID_120_" class="st0" d="M42.6,3.3c0,0.5,0,1,0.1,1.5c0.1,7.4-2.6,14.6-7.6,20.1c-1.4,1.6-2.9,3-4.6,4.2
		c-0.3,0.2-0.4,0.5-0.4,0.8c0,0.3,0.2,0.6,0.4,0.8c1.7,1.2,3.3,2.6,4.7,4.2c5,5.5,7.8,12.6,7.9,20c0,0.5,0,0.9,0,1.5l-27,0.2
		c0-0.5,0-1-0.1-1.5c-0.1-7.4,2.6-14.6,7.6-20.1c1.4-1.6,2.9-3,4.6-4.2c0.3-0.2,0.4-0.5,0.4-0.8c0-0.3-0.2-0.6-0.4-0.8
		c-1.7-1.2-3.3-2.6-4.7-4.2c-5-5.5-7.8-12.6-7.9-20c0-0.5,0-0.9,0-1.5L42.6,3.3 M43.5,2.3L14.7,2.5c-0.1,0.8-0.1,1.6-0.1,2.5
		c0.1,8,3.1,15.2,8.1,20.7c1.5,1.6,3.1,3,4.8,4.3c-1.7,1.3-3.3,2.7-4.8,4.4c-4.9,5.5-7.9,12.8-7.8,20.8c0,0.8,0.1,1.6,0.1,2.5
		l28.8-0.2c0.1-0.8,0.1-1.6,0.1-2.5c-0.1-8-3.1-15.2-8.1-20.7c-1.5-1.6-3.1-3-4.8-4.3c1.7-1.3,3.3-2.7,4.8-4.4
		c4.9-5.5,7.9-12.8,7.8-20.8C43.6,3.9,43.6,3.1,43.5,2.3L43.5,2.3z"/>
	<path id="XMLID_114_" class="st0" d="M29.3,28.8c-0.1,0-0.3,0-0.4-0.1c-1.6-0.7-5.3-4.2-6.7-6.6c-0.1-0.2-0.1-0.3,0-0.5
		s0.3-0.3,0.4-0.3l12.9-0.1c0.2,0,0.4,0.1,0.4,0.3c0.1,0.2,0.1,0.4,0,0.5C34.6,24.2,31.1,28.8,29.3,28.8z M23.6,22.4
		c1.5,2.1,4.5,4.8,5.7,5.4c0.6,0.2,3-2.3,5.3-5.5L23.6,22.4z"/>
	<path id="XMLID_110_" class="st0" d="M29.5,34c-0.8,0-1.4-0.5-1.4-1.2c0-0.4,0.1-0.9,0.4-1.2c0.3-0.3,0.6-0.6,1-0.6c0,0,0,0,0,0
		c0.4,0,0.7,0.4,1,0.7c0.3,0.3,0.4,0.8,0.4,1.1c0,0.4-0.1,0.6-0.4,0.9C30.3,34,29.9,34,29.5,34C29.5,34,29.5,34,29.5,34z M29.5,32.5
		c-0.2,0-0.2,0-0.3,0.1c-0.1,0.1-0.1,0.2-0.1,0.3c0,0.2,0.2,0.4,0.4,0.4c0.1,0,0.2,0,0.3-0.1c0.1-0.1,0.1-0.2,0.1-0.3
		C30,32.7,29.8,32.5,29.5,32.5z"/>
	<path id="XMLID_109_" class="st0" d="M29.5,37.7c-0.5,0-1-0.4-1-1c0-0.5,0.4-1,1-1c0,0,0,0,0,0c0.5,0,1,0.4,1,1l0,0
		c0,0.3-0.1,0.5-0.3,0.7C30,37.6,29.8,37.7,29.5,37.7C29.5,37.7,29.5,37.7,29.5,37.7z"/>
	<path id="XMLID_91_" class="st0" d="M29.6,41c-0.4,0-0.7-0.3-0.7-0.7c0-0.2,0.1-0.4,0.2-0.5c0.1-0.1,0.3-0.2,0.5-0.2
		c0.2,0,0.4,0.1,0.5,0.2c0.1,0.1,0.2,0.3,0.2,0.5s-0.1,0.4-0.2,0.5C30,40.9,29.8,41,29.6,41C29.6,41,29.6,41,29.6,41z M29.6,40
		c-0.1,0-0.2,0-0.2,0.1c-0.1,0.1-0.1,0.1-0.1,0.2c0,0.2,0.1,0.3,0.3,0.3c0,0,0.1,0,0.2-0.1c0.1-0.1,0.1-0.1,0.1-0.2
		C29.9,40.1,29.8,40,29.6,40z"/>
</g>
</svg>
