<?xml version="1.0" encoding="utf-8"?>
<!-- Generator: Adobe Illustrator 19.0.0, SVG Export Plug-In . SVG Version: 6.00 Build 0)  -->
<svg version="1.1" id="图层_1" xmlns="http://www.w3.org/2000/svg" xmlns:xlink="http://www.w3.org/1999/xlink" x="0px" y="0px"
	 viewBox="0 0 50 50" style="enable-background:new 0 0 50 50;" xml:space="preserve">
<style type="text/css">
	.st0{fill:#FFAE6C;}
</style>
<g id="XMLID_9439_">
	<path id="XMLID_36_" class="st0" d="M44.7,46H5.1c-2,0-3.1-1.9-3.1-3.7V20.9C2,19,3.1,18,5.1,18h39.6c2.1,0,3.3,1.1,3.3,2.9v5.6
		c0,0.3-0.2,0.5-0.5,0.5H34.4c-1.6,0-2.4,0.6-2.4,1.8v3.4c0,1.3,1,2.8,2.4,2.8h13.1c0.3,0,0.5,0.2,0.5,0.5v6.8
		C48,44.3,46.5,46,44.7,46z M5.1,19C3.6,19,3,19.6,3,20.9v21.4C3,43.6,3.7,45,5.1,45h39.6c1.4,0,2.3-1.4,2.3-2.7V36H34.4
		c-2,0-3.4-2-3.4-3.8v-3.4c0-1.8,1.2-2.8,3.4-2.8H47v-5.1c0-1.2-0.8-1.9-2.3-1.9H5.1z"/>
	<path id="XMLID_33_" class="st0" d="M47.5,36H34.4c-2,0-3.4-2-3.4-3.8v-3.4c0-1.8,1.2-2.8,3.4-2.8h13.1c0.3,0,0.5,0.2,0.5,0.5v9
		C48,35.8,47.8,36,47.5,36z M34.4,27c-1.6,0-2.4,0.6-2.4,1.8v3.4c0,1.3,1,2.8,2.4,2.8H47v-8H34.4z"/>
	<path id="XMLID_32_" class="st0" d="M40.3,18.5c-0.1,0-0.2,0-0.3-0.1c-0.2-0.2-0.2-0.5-0.1-0.7l3-3.6L32.5,3.6L16.7,18.1
		c-0.2,0.2-0.5,0.2-0.7,0c-0.2-0.2-0.2-0.5,0-0.7L32.2,2.5c0.2-0.2,0.5-0.2,0.7,0l11.1,11.3c0.2,0.2,0.2,0.5,0,0.7l-3.3,3.9
		C40.5,18.5,40.4,18.5,40.3,18.5z"/>
	<path id="XMLID_31_" class="st0" d="M14.7,18.5c-0.1,0-0.2,0-0.3-0.1c-0.2-0.1-0.3-0.5-0.2-0.7L24.6,0.9c0.1-0.1,0.2-0.2,0.3-0.2
		s0.3,0,0.4,0.1l5,3.4c0.2,0.2,0.3,0.5,0.1,0.7c-0.2,0.2-0.5,0.3-0.7,0.1l-4.5-3.1l-10,16.4C15,18.4,14.9,18.5,14.7,18.5z"/>
	<path id="XMLID_28_" class="st0" d="M35.3,32.5c-1,0-1.8-0.8-1.8-1.8s0.8-1.8,1.8-1.8c1,0,1.8,0.8,1.8,1.8S36.3,32.5,35.3,32.5z
		 M35.3,29.9c-0.4,0-0.8,0.4-0.8,0.8s0.4,0.8,0.8,0.8s0.8-0.4,0.8-0.8S35.8,29.9,35.3,29.9z"/>
</g>
</svg>
