<?xml version="1.0" encoding="utf-8"?>
<!-- Generator: Adobe Illustrator 19.0.0, SVG Export Plug-In . SVG Version: 6.00 Build 0)  -->
<svg version="1.1" id="图层_1" xmlns="http://www.w3.org/2000/svg" xmlns:xlink="http://www.w3.org/1999/xlink" x="0px" y="0px"
	 viewBox="0 0 20.1 20.1" style="enable-background:new 0 0 20.1 20.1;" xml:space="preserve">
<style type="text/css">
	.st0{fill:#FFFFFF;}
	.st1{fill:#F15A24;}
</style>
<g id="XMLID_88_">
	<line id="XMLID_13_" class="st0" x1="9.4" y1="4.1" x2="9.4" y2="13.1"/>
	<rect id="XMLID_87_" x="9.4" y="4.1" class="st1" width="1" height="9"/>
</g>
<g id="XMLID_86_">
	<line id="XMLID_12_" class="st0" x1="9.4" y1="14.1" x2="9.4" y2="16.1"/>
	<rect id="XMLID_82_" x="9.4" y="14.1" class="st1" width="1" height="2"/>
</g>
<path id="XMLID_83_" class="st1" d="M16.9,18.1h-14c-0.9,0-1.5-0.2-1.8-0.7c-0.4-0.6-0.1-1.4,0-1.7l0.1-0.3c0,0,0-0.1,0-0.1l7-12.8
	l0,0C8.4,2,9,1.4,9.5,1.3c0.4-0.1,1.3-0.2,2,1.1l7.1,12.7c0.1,0.2,0.7,1.2,0.3,2C18.6,17.8,18,18.1,16.9,18.1z M2.1,15.8L2,16.1
	c-0.1,0.2-0.2,0.6-0.1,0.7C2,17,2.4,17.1,2.8,17.1h14c0.6,0,1.1-0.1,1.2-0.3c0.1-0.3-0.1-0.8-0.3-1c0,0,0,0,0,0L10.6,2.9
	c-0.2-0.4-0.5-0.7-0.7-0.7h0C9.6,2.2,9.3,2.7,9.1,3c0,0,0,0,0,0L2.1,15.8C2.1,15.8,2.1,15.8,2.1,15.8z"/>
</svg>
