<?xml version="1.0" encoding="utf-8"?>
<!-- Generator: Adobe Illustrator 19.0.0, SVG Export Plug-In . SVG Version: 6.00 Build 0)  -->
<svg version="1.1" id="图层_1" xmlns="http://www.w3.org/2000/svg" xmlns:xlink="http://www.w3.org/1999/xlink" x="0px" y="0px"
	 viewBox="0 0 20 20" style="enable-background:new 0 0 20 20;" xml:space="preserve">
<style type="text/css">
	.st0{fill:none;}
	.st1{fill:#FBB03B;}
</style>
<path id="XMLID_38_" class="st0" d="M10,15.4c0.6,0,1-0.4,1-1V3.7c0-0.5-0.4-1-1-1s-1,0.4-1,1v10.8C9,15,9.4,15.4,10,15.4z"/>
<path id="XMLID_44_" class="st1" d="M9.8,1C4.9,1,1,4.9,1,9.8c0,4.9,3.9,8.8,8.8,8.8c4.9,0,8.8-3.9,8.8-8.8C18.6,4.9,14.6,1,9.8,1z
	 M9,3.4c0-0.5,0.4-1,1-1s1,0.4,1,1v10.8c0,0.5-0.4,1-1,1s-1-0.4-1-1V3.4z M9.9,17.6c-0.6,0-1.1-0.5-1.1-1.1s0.5-1.1,1.1-1.1
	c0.6,0,1.1,0.5,1.1,1.1S10.5,17.6,9.9,17.6z"/>
</svg>
