<?xml version="1.0" encoding="utf-8"?>
<!-- Generator: Adobe Illustrator 19.0.0, SVG Export Plug-In . SVG Version: 6.00 Build 0)  -->
<svg version="1.1" id="图层_1" xmlns="http://www.w3.org/2000/svg" xmlns:xlink="http://www.w3.org/1999/xlink" x="0px" y="0px"
	 viewBox="0 0 30 30" style="enable-background:new 0 0 30 30;" xml:space="preserve">
<path id="XMLID_37_" d="M29.7,10.7l-2.2-3.9c-0.1-0.2-0.4-0.3-0.6-0.3l-11-4c-0.1,0-0.3,0-0.4,0L4.2,6.7c0,0-0.1,0.1-0.1,0.1
	C3.9,6.8,3.8,6.9,3.7,7l-2.5,4.4c-0.1,0.1-0.1,0.3,0,0.5c0.1,0.2,0.1,0.3,0.2,0.3l2.6,1v8.9c0,0.2,0.2,0.4,0.4,0.5l10.9,4
	c0.1,0,0.1,0,0.2,0c0.1,0,0.1,0,0.2,0l10.9-3.9c0.2-0.1,0.4-0.3,0.4-0.5v-9.4c0-0.1-0.1-0.2-0.1-0.3l2.5-1.1
	c0.1-0.1,0.2-0.2,0.3-0.3C29.8,11,29.8,10.8,29.7,10.7z M15.7,3.6l9.7,3.5l-9.7,3.5L6,7.2L15.7,3.6z M4.5,7.8L15,11.6l-1.6,3.8
	l-10.9-4L4.5,7.8z M5,13.6l8.3,3c0.1,0,0.2,0,0.2,0c0.2,0,0.4-0.1,0.5-0.3l0.9-2v11.1L5,21.7V13.6z M26,21.8l-10,3.5V12.3l1.5,3.5
	c0.1,0.2,0.3,0.3,0.5,0.3c0.1,0,0.2,0,0.3,0L26,13V21.8z M18.4,14.9l-1.5-3.5l9.9-3.6l1.6,2.9L18.4,14.9z"/>
</svg>
