<?xml version="1.0" encoding="utf-8"?>
<!-- Generator: Adobe Illustrator 19.0.0, SVG Export Plug-In . SVG Version: 6.00 Build 0)  -->
<svg version="1.1" id="图层_1" xmlns="http://www.w3.org/2000/svg" xmlns:xlink="http://www.w3.org/1999/xlink" x="0px" y="0px"
	 viewBox="0 0 30 30" style="enable-background:new 0 0 30 30;" xml:space="preserve">
<g id="XMLID_27_">
	<path id="XMLID_41_" d="M28.8,20.4c0.1-0.1,0.2-0.2,0.2-0.4l0-12.4c0,0,0.2-1.2-0.6-2.2c-0.6-0.7-1.6-1.1-2.9-1.2
		c-2.2-0.1-3.1-0.1-3.5,0c-0.3,0-0.9,0-1.5,0.4c-0.8,0.6-1.2,1.5-1.4,3c-0.3,3-7.3,8.3-11.9,8.3c-1.1-0.1-2.7,0-3.8,1
		c-0.9,0.8-1.6,1.9-1.6,3.3C1.4,20.5,1,20.8,1,21.1v1.1C1,22.8,2,23,2.6,23H28c0.6,0,1-0.2,1-0.8v-1.1C29,20.8,29,20.6,28.8,20.4z
		 M3.9,17.7c0.9-0.8,2.2-0.9,3.1-0.8c1.8,0,4.1-0.8,6.2-2c0,0,0,0,0,0l1.1,1.2c0.1,0.1,0.2,0.2,0.4,0.2c0.1,0,0.2,0,0.3-0.1
		c0.2-0.2,0.2-0.5,0-0.7l-1-1.1c0.4-0.2,0.7-0.5,1.1-0.7l1,1.2c0.1,0.1,0.2,0.2,0.4,0.2c0.1,0,0.2,0,0.3-0.1
		c0.2-0.2,0.2-0.5,0.1-0.7l-1-1.1c0.3-0.3,0.7-0.5,1-0.8c0,0,0,0,0,0l1,1.2c0.1,0.1,0.2,0.2,0.4,0.2c0.1,0,0.2,0,0.3-0.1
		c0.2-0.2,0.3-0.5,0.1-0.7l-1-1.2c0,0-0.1-0.1-0.1-0.1c0.3-0.3,0.5-0.6,0.8-0.9l1,1.1c0.1,0.1,0.2,0.2,0.4,0.2c0.1,0,0.2,0,0.3-0.1
		c0.2-0.2,0.2-0.5,0-0.7l-1.1-1.2C19.6,9.2,20,8.4,20,7.8c0.1-1.1,0.5-1.9,1-2.3c0.4-0.3,0.9-0.3,0.9-0.3c0.1,0,0.2,0,0.3,0
		c0.1,0,0.7-0.1,3.3,0c1,0,1.7,0.3,2.1,0.8C28.1,6.7,28,7.5,28,7.6V20H2.9C3,19,3.4,18.2,3.9,17.7z M28,21.9c0,0.1-0.1,0.1-0.1,0.1
		H2.1C2.1,22,2,21.9,2,21.9v-0.8C2,21.1,2.1,21,2.1,21h25.8c0.1,0,0.1,0.1,0.1,0.1V21.9z"/>
	<path id="XMLID_45_" d="M23.6,16.8c1.4,0,2.5-1.2,2.5-2.7c0-1.5-1.1-2.7-2.5-2.7s-2.5,1.2-2.5,2.7C21.1,15.6,22.2,16.8,23.6,16.8z
		 M23.6,12.3c0.8,0,1.5,0.8,1.5,1.7c0,1-0.7,1.7-1.5,1.7s-1.5-0.8-1.5-1.7C22.1,13.1,22.7,12.3,23.6,12.3z"/>
</g>
</svg>
